<?xml version="1.0" encoding="utf-8"?>
<!-- Generator: Adobe Illustrator 23.0.3, SVG Export Plug-In . SVG Version: 6.00 Build 0)  -->
<svg version="1.1" id="Layer_1" xmlns="http://www.w3.org/2000/svg" xmlns:xlink="http://www.w3.org/1999/xlink" x="0px" y="0px"
	 viewBox="0 0 100 100" style="enable-background:new 0 0 100 100;" xml:space="preserve">
<style type="text/css">
	.st0{display:none;}
	.st1{display:inline;}
	.st2{fill:#FFFFFF;}
</style>
<g class="st0">
	<g class="st1">
		<circle cx="50" cy="50" r="50"/>
	</g>
</g>
<path class="st2" d="M96.9,53.1c-0.1-0.7-0.3-1.4-0.6-2c-0.3-0.6-0.7-1.2-1.2-1.6c-0.5-0.5-1.1-0.8-1.7-1L85.5,46
	c-0.2-2-0.6-4-1.2-5.9l6.2-5c0.5-0.4,0.9-1,1.2-1.6c0.3-0.6,0.4-1.3,0.5-2c0-0.7,0-1.4-0.2-2.1c-0.2-0.7-0.5-1.4-1-2.1l-4.4-6.5
	c-0.4-0.7-1-1.2-1.5-1.7c-0.6-0.5-1.2-0.8-1.9-1c-0.7-0.2-1.3-0.3-2-0.3c-0.7,0-1.3,0.2-1.9,0.5l-7,3.8c-1.6-1.3-3.2-2.4-5-3.4
	l0.8-8.2c0.1-0.7,0-1.3-0.3-1.9c-0.2-0.6-0.6-1.2-1.1-1.7c-0.5-0.5-1-1-1.7-1.3c-0.6-0.4-1.4-0.6-2.1-0.8l-7.7-1.5
	c-0.8-0.2-1.5-0.2-2.3-0.1c-0.7,0.1-1.4,0.3-2,0.6c-0.6,0.3-1.2,0.7-1.6,1.2c-0.5,0.5-0.8,1.1-1,1.7L46,14.5c-2,0.2-4,0.6-5.9,1.2
	l-5-6.2c-0.4-0.5-1-0.9-1.6-1.2c-0.6-0.3-1.3-0.4-2-0.5c-0.7,0-1.4,0-2.1,0.2c-0.7,0.2-1.4,0.5-2.1,1l-6.5,4.4
	c-0.7,0.4-1.2,1-1.7,1.5c-0.5,0.6-0.8,1.2-1,1.9c-0.2,0.7-0.3,1.3-0.3,2c0,0.7,0.2,1.3,0.5,1.9l3.8,7c-1.3,1.6-2.4,3.2-3.4,5
	l-8.2-0.8c-0.7-0.1-1.3,0-1.9,0.3c-0.6,0.2-1.2,0.6-1.7,1.1c-0.5,0.5-1,1-1.3,1.7c-0.4,0.6-0.6,1.4-0.8,2.1l-1.5,7.7
	c-0.2,0.8-0.2,1.5-0.1,2.3c0.1,0.7,0.3,1.4,0.6,2c0.3,0.6,0.7,1.2,1.2,1.6c0.5,0.5,1.1,0.8,1.7,1l7.9,2.4c0.2,2,0.6,4,1.2,5.9
	l-6.2,5c-0.5,0.4-0.9,1-1.2,1.6c-0.3,0.6-0.4,1.3-0.5,2c0,0.7,0,1.4,0.2,2.1c0.2,0.7,0.5,1.4,1,2.1l4.4,6.5c0.4,0.7,1,1.2,1.5,1.7
	c0.6,0.5,1.2,0.8,1.9,1c0.7,0.2,1.3,0.3,2,0.3c0.7,0,1.3-0.2,1.9-0.5l7-3.8c1.6,1.3,3.2,2.4,5,3.4l-0.8,8.2c-0.1,0.7,0,1.3,0.3,1.9
	c0.2,0.6,0.6,1.2,1.1,1.7c0.5,0.5,1,1,1.7,1.3c0.6,0.4,1.4,0.6,2.1,0.8l7.7,1.5c0.8,0.2,1.5,0.2,2.3,0.1c0.7-0.1,1.4-0.3,2-0.6
	c0.6-0.3,1.2-0.7,1.6-1.2c0.5-0.5,0.8-1.1,1-1.7l2.4-7.9c2-0.2,4-0.6,5.9-1.2l5,6.2c0.4,0.5,1,0.9,1.6,1.2c0.6,0.3,1.3,0.4,2,0.5
	c0.7,0,1.4,0,2.1-0.2c0.7-0.2,1.4-0.5,2.1-1l6.5-4.4c0.7-0.4,1.2-1,1.7-1.5c0.5-0.6,0.8-1.2,1-1.9c0.2-0.7,0.3-1.3,0.3-2
	c0-0.7-0.2-1.3-0.5-1.9l-3.8-7c1.3-1.6,2.4-3.2,3.4-5l8.2,0.8c0.7,0.1,1.3,0,1.9-0.3c0.6-0.2,1.2-0.6,1.7-1.1c0.5-0.5,1-1,1.3-1.7
	c0.4-0.6,0.6-1.4,0.8-2.1l1.5-7.7C96.9,54.6,96.9,53.8,96.9,53.1z"/>
</svg>
