<?xml version="1.0" encoding="utf-8"?>
<!-- Generator: Adobe Illustrator 21.0.2, SVG Export Plug-In . SVG Version: 6.00 Build 0)  -->
<svg version="1.1" xmlns="http://www.w3.org/2000/svg" xmlns:xlink="http://www.w3.org/1999/xlink" x="0px" y="0px"
	 viewBox="0 0 500 500" style="enable-background:new 0 0 500 500;" xml:space="preserve">
<style type="text/css">
	.st0{display:none;}
	.st1{display:inline;}
	.st2{fill:#FFFFFF;}
</style>
<g id="Layer_1" class="st0">
	<circle class="st1" cx="250" cy="250" r="250"/>
</g>
<g id="Layer_2">
	<path class="st2" d="M451.4,238.5l-8.2-46.6c-1.1-6.5-7.8-9.2-13.9-9.7l-38.2,0.1c-3.4-7.2-7.4-14-11.9-20.5l19.2-33
		c2.7-5.9,3.6-12.7-1.5-16.9l-36.3-30.4c-5.1-4.2-11.9-2-16.9,1.5l-29.2,24.6c-7.2-3.2-14.6-6-22.3-8.1l-6.6-37.6
		c-1.8-6.3-5.4-12-12-12h-47.3c-6.6,0-10.4,6.1-12,12l-6.6,37.6c-7.7,2.2-15.2,4.9-22.3,8.1l-29.2-24.6c-5.4-3.7-11.9-5.7-16.9-1.5
		l-36.3,30.4c-5.1,4.2-4.1,11.4-1.5,16.9l19.2,33c-4.5,6.5-8.4,13.4-11.9,20.5l-38.2-0.1c-6.5,0.7-12.8,3.2-13.9,9.7l-8.2,46.6
		c-1.1,6.5,4.2,11.3,9.7,13.9l35.9,13c0.8,8,2.2,15.8,4.1,23.4l-29.3,24.5c-4.5,4.7-7.7,10.7-4.4,16.4l23.7,41
		c3.3,5.7,10.5,6,16.4,4.4l35.9-13.1c5.7,5.5,11.7,10.6,18.2,15.3l-6.7,37.6c-0.5,6.5,1,13.1,7.2,15.4l44.5,16.2
		c6.2,2.3,11.9-2.2,15.4-7.2l19-33.1c3.9,0.3,7.9,0.4,11.9,0.4s7.9-0.2,11.9-0.4l19,33.1c3.8,5.3,9.2,9.4,15.4,7.2l44.5-16.2
		c6.2-2.3,7.7-9.3,7.2-15.4l-6.7-37.6c6.4-4.6,12.5-9.7,18.2-15.3l35.9,13.1c6.3,1.6,13.1,1.3,16.4-4.4l23.7-41
		c3.3-5.7-0.1-12.1-4.4-16.4l-29.3-24.5c1.9-7.6,3.3-15.4,4.1-23.4l35.9-13C447.5,249.6,452.5,245,451.4,238.5z M177,250
		c0-40.3,32.7-73,73-73s73,32.7,73,73s-32.7,73-73,73S177,290.3,177,250z"/>
</g>
</svg>
