<?xml version="1.0" encoding="utf-8"?>
<!-- Generator: Adobe Illustrator 23.0.3, SVG Export Plug-In . SVG Version: 6.00 Build 0)  -->
<svg version="1.1" id="Layer_1" xmlns="http://www.w3.org/2000/svg" xmlns:xlink="http://www.w3.org/1999/xlink" x="0px" y="0px"
	 viewBox="0 0 100 100" style="enable-background:new 0 0 100 100;" xml:space="preserve">
<style type="text/css">
	.st0{display:none;}
	.st1{display:inline;}
	.st2{fill:#215AA8;}
</style>
<g class="st0">
	<g class="st1">
		<circle cx="50" cy="50" r="50"/>
	</g>
</g>
<g>
	<path class="st2" d="M69.9,35.5c0,3.4-0.8,6.5-2.3,9.2c-1.5,2.7-3.6,4.7-6.2,6.2c-2.6,1.5-5.4,2.2-8.4,2.2c-0.7,0-1.2,0-1.5-0.1
		l-1.3,12.9h-4.8l-1.2-21.1c1.4,0.4,3.1,0.6,4.9,0.6c3.9,0,6.7-1,8.6-3.1c1.9-2.1,2.8-4.6,2.8-7.6c0-3.4-1-6-3.1-7.8
		c-2.1-1.8-4.6-2.8-7.5-2.8c-3.5,0-6.2,1-8.1,3S39,31.9,39,35.7v1.7h-8.8c-0.1-0.2-0.1-1.1-0.1-2.5c0-4.5,1-8.1,2.9-10.9
		s4.4-4.8,7.5-6c3-1.2,6.1-1.8,9.2-1.8c6.4,0,11.4,1.7,14.9,5.2C68.2,24.8,69.9,29.5,69.9,35.5z M42,83.7V72h11.6v11.7H42z"/>
</g>
<path class="st2" d="M50,3c25.9,0,47,21.1,47,47S75.9,97,50,97S3,75.9,3,50S24.1,3,50,3 M50,0C22.4,0,0,22.4,0,50s22.4,50,50,50
	s50-22.4,50-50S77.6,0,50,0L50,0z"/>
</svg>
