<?xml version="1.0" encoding="UTF-8" standalone="no"?>
<!DOCTYPE svg PUBLIC "-//W3C//DTD SVG 1.1//EN" "http://www.w3.org/Graphics/SVG/1.1/DTD/svg11.dtd">
<svg version="1.1" xmlns="http://www.w3.org/2000/svg" xmlns:xlink="http://www.w3.org/1999/xlink" preserveAspectRatio="xMidYMid meet" viewBox="0 0 12 20" width="12" height="20"><defs><path d="M5 2.5C5 3.88 3.88 5 2.5 5C1.12 5 0 3.88 0 2.5C0 1.12 1.12 0 2.5 0C3.88 0 5 1.12 5 2.5Z" id="d3OjyZTMdy"></path><path d="M12 2.5C12 3.88 10.88 5 9.5 5C8.12 5 7 3.88 7 2.5C7 1.12 8.12 0 9.5 0C10.88 0 12 1.12 12 2.5Z" id="f47mygWF"></path><path d="M5 17.5C5 18.88 3.88 20 2.5 20C1.12 20 0 18.88 0 17.5C0 16.12 1.12 15 2.5 15C3.88 15 5 16.12 5 17.5Z" id="jRGZu6Uu"></path><path d="M12 17.5C12 18.88 10.88 20 9.5 20C8.12 20 7 18.88 7 17.5C7 16.12 8.12 15 9.5 15C10.88 15 12 16.12 12 17.5Z" id="b4aCgyAwi"></path><path d="M5 10C5 11.38 3.88 12.5 2.5 12.5C1.12 12.5 0 11.38 0 10C0 8.62 1.12 7.5 2.5 7.5C3.88 7.5 5 8.62 5 10Z" id="bi6rCpBWc"></path><path d="M12 10C12 11.38 10.88 12.5 9.5 12.5C8.12 12.5 7 11.38 7 10C7 8.62 8.12 7.5 9.5 7.5C10.88 7.5 12 8.62 12 10Z" id="a1e6IsHSvY"></path><path d="M5 2.5C5 3.88 3.88 5 2.5 5C1.12 5 0 3.88 0 2.5C0 1.12 1.12 0 2.5 0C3.88 0 5 1.12 5 2.5Z" id="anyue7gSR"></path><path d="M12 2.5C12 3.88 10.88 5 9.5 5C8.12 5 7 3.88 7 2.5C7 1.12 8.12 0 9.5 0C10.88 0 12 1.12 12 2.5Z" id="fRkTmA2lP"></path><path d="M5 17.5C5 18.88 3.88 20 2.5 20C1.12 20 0 18.88 0 17.5C0 16.12 1.12 15 2.5 15C3.88 15 5 16.12 5 17.5Z" id="czFUrbARy"></path><path d="M12 17.5C12 18.88 10.88 20 9.5 20C8.12 20 7 18.88 7 17.5C7 16.12 8.12 15 9.5 15C10.88 15 12 16.12 12 17.5Z" id="b2PigQZbSK"></path><path d="M5 10C5 11.38 3.88 12.5 2.5 12.5C1.12 12.5 0 11.38 0 10C0 8.62 1.12 7.5 2.5 7.5C3.88 7.5 5 8.62 5 10Z" id="e4FIQVKZ4"></path><path d="M12 10C12 11.38 10.88 12.5 9.5 12.5C8.12 12.5 7 11.38 7 10C7 8.62 8.12 7.5 9.5 7.5C10.88 7.5 12 8.62 12 10Z" id="b8UfOdP0V"></path></defs><g><g><g><use xlink:href="#d3OjyZTMdy" opacity="1" fill="#000000" fill-opacity="1"></use></g><g><use xlink:href="#f47mygWF" opacity="1" fill="#000000" fill-opacity="1"></use></g><g><use xlink:href="#jRGZu6Uu" opacity="1" fill="#000000" fill-opacity="1"></use></g><g><use xlink:href="#b4aCgyAwi" opacity="1" fill="#000000" fill-opacity="1"></use></g><g><use xlink:href="#bi6rCpBWc" opacity="1" fill="#000000" fill-opacity="1"></use></g><g><use xlink:href="#a1e6IsHSvY" opacity="1" fill="#000000" fill-opacity="1"></use></g><g><use xlink:href="#anyue7gSR" opacity="1" fill="#000000" fill-opacity="1"></use></g><g><use xlink:href="#fRkTmA2lP" opacity="1" fill="#000000" fill-opacity="1"></use></g><g><use xlink:href="#czFUrbARy" opacity="1" fill="#000000" fill-opacity="1"></use></g><g><use xlink:href="#b2PigQZbSK" opacity="1" fill="#000000" fill-opacity="1"></use></g><g><use xlink:href="#e4FIQVKZ4" opacity="1" fill="#000000" fill-opacity="1"></use></g><g><use xlink:href="#b8UfOdP0V" opacity="1" fill="#000000" fill-opacity="1"></use></g></g></g></svg>