<?xml version="1.0" encoding="utf-8"?>
<!-- Generator: Adobe Illustrator 21.0.2, SVG Export Plug-In . SVG Version: 6.00 Build 0)  -->
<svg version="1.1" xmlns="http://www.w3.org/2000/svg" xmlns:xlink="http://www.w3.org/1999/xlink" x="0px" y="0px"
	 viewBox="0 0 500 500" style="enable-background:new 0 0 500 500;" xml:space="preserve">
<style type="text/css">
	.st0{display:none;}
	.st1{display:inline;}
	.st2{fill:#FFFFFF;}
</style>
<g id="Layer_1" class="st0">
	<circle class="st1" cx="250" cy="250" r="250"/>
</g>
<g id="Layer_2">
	<path class="st2" d="M346.7,248.5c0-41.8-26.6-77.4-63.7-90.9V84.4h18.8c7.2,0,13-5.9,13-13V54c0-7.2-5.9-13-13-13H198.2
		c-7.2,0-13,5.9-13,13v17.4c0,7.2,5.9,13,13,13h18.8v73.2c-37.2,13.5-63.7,49.1-63.7,90.9c0,3.2,0.2,6.4,0.5,9.6
		c-0.3,1.1-0.5,2.2-0.5,3.4v170.3c0,7.2,5.9,13,13,13h167.3c7.2,0,13-5.9,13-13V261.6c0-1.2-0.2-2.3-0.5-3.4
		C346.5,255,346.7,251.8,346.7,248.5z"/>
</g>
</svg>
