<?xml version="1.0" encoding="utf-8"?>
<!-- Generator: Adobe Illustrator 21.0.2, SVG Export Plug-In . SVG Version: 6.00 Build 0)  -->
<svg version="1.1" xmlns="http://www.w3.org/2000/svg" xmlns:xlink="http://www.w3.org/1999/xlink" x="0px" y="0px"
	 viewBox="0 0 500 500" style="enable-background:new 0 0 500 500;" xml:space="preserve">
<style type="text/css">
	.st0{display:none;}
	.st1{display:inline;}
	.st2{fill:#FFFFFF;}
</style>
<g id="Layer_1" class="st0">
	<circle class="st1" cx="250" cy="250" r="250"/>
</g>
<g id="Layer_2">
	<g>
		<path class="st2" d="M413.9,153.1c1-30.4-7.6-71.9-7.6-71.9c0-7.3-37.2-13.2-83-13.2c-45.8,0-83,5.9-83,13.2
			c0,0-8.6,41.5-7.6,71.9c1,30.4,17.7,130.1,20.7,166.5c3,36.4-5.1,74.7-5.1,91.5c0,11.4,33.5,20.7,74.9,20.7
			c41.4,0,74.9-9.3,74.9-20.7c0-16.8-8.1-55.1-5.1-91.5C396.2,283.1,412.9,183.4,413.9,153.1z"/>
		<path class="st2" d="M160.5,262.6c14.1-18.8,50.9-67.7,55.1-73.3c4.2-5.6,4-6.5,4-6.5h-74.2h-6.1h-3.3H59.1c0,0-0.2,0.9,4,6.5
			c4.2,5.6,41,54.5,55.1,73.3s17.6,33.3,17.6,54.8c0,20.6,1.8,70.5-9,88.9c-22.4,1.4-39.1,6.5-39.1,12.5c0,7.1,23.1,12.9,51.6,12.9
			c28.5,0,51.6-5.8,51.6-12.9c0-6.1-16.6-11.1-39.1-12.5c-10.8-18.4-9-68.3-9-88.9C142.9,295.9,146.5,281.4,160.5,262.6z"/>
	</g>
</g>
</svg>
