<?xml version="1.0" encoding="utf-8"?>
<!-- Generator: Adobe Illustrator 21.0.2, SVG Export Plug-In . SVG Version: 6.00 Build 0)  -->
<svg version="1.1" xmlns="http://www.w3.org/2000/svg" xmlns:xlink="http://www.w3.org/1999/xlink" x="0px" y="0px"
	 viewBox="0 0 500 500" style="enable-background:new 0 0 500 500;" xml:space="preserve">
<style type="text/css">
	.st0{display:none;}
	.st1{display:inline;}
	.st2{fill:#FFFFFF;}
</style>
<g id="Layer_1" class="st0">
	<circle class="st1" cx="250" cy="250" r="250"/>
</g>
<g id="Layer_2">
	<path class="st2" d="M133.4,76.2c-7.9,0-14.4,6.5-14.4,14.4v248.5v15v33.6c0,19.9,16.2,36,36,36H381v-24H155.1c-6.6,0-12-5.4-12-12
		s5.4-12,12-12H381v-21.6v-2.4V76.2H133.4z M337.7,173.3c0,7.9-6.5,14.4-14.4,14.4H176.7c-7.9,0-14.4-6.5-14.4-14.4v-39.7
		c0-7.9,6.5-14.4,14.4-14.4h146.6c7.9,0,14.4,6.5,14.4,14.4V173.3z"/>
</g>
</svg>
