<?xml version="1.0" encoding="utf-8"?>
<!-- Generator: Adobe Illustrator 21.0.2, SVG Export Plug-In . SVG Version: 6.00 Build 0)  -->
<svg version="1.1" xmlns="http://www.w3.org/2000/svg" xmlns:xlink="http://www.w3.org/1999/xlink" x="0px" y="0px"
	 viewBox="0 0 500 500" style="enable-background:new 0 0 500 500;" xml:space="preserve">
<style type="text/css">
	.st0{display:none;}
	.st1{display:inline;}
	.st2{fill:#FFFFFF;}
</style>
<g id="Layer_1" class="st0">
	<circle class="st1" cx="250" cy="250" r="250"/>
</g>
<g id="Layer_2">
	<g>
		<path class="st2" d="M235.8,409.8l-35.4-35.4l31.8-31.8L194.5,305l-41.2,41.2c-10.4,10.4-10.4,27.3,0,37.6
			c0.6,0.6,1.1,1.1,1.7,1.6c0.5,0.6,1,1.2,1.5,1.7l50.9,50.9c3.9,3.9,9,5.9,14.1,5.9c5.1,0,10.2-2,14.1-5.9
			C243.6,430.3,243.6,417.6,235.8,409.8z"/>
		<path class="st2" d="M264.2,409.8l35.4-35.4l-31.8-31.8l37.6-37.6l41.2,41.2c10.4,10.4,10.4,27.3,0,37.6c-0.6,0.6-1.1,1.1-1.7,1.6
			c-0.5,0.6-1,1.2-1.5,1.7l-50.9,50.9c-3.9,3.9-9,5.9-14.1,5.9s-10.2-2-14.1-5.9C256.4,430.3,256.4,417.6,264.2,409.8z"/>
		<path class="st2" d="M381,255.8l-69-66.4c0,0,0,0,0,0l-0.5-0.5l0,0c-7.6-7.3-17.9-11.9-29.3-11.9h-32h-0.1h-32
			c-11.4,0-21.7,4.5-29.3,11.9l0,0l-0.5,0.5c0,0,0,0,0,0l-69,66.4c-8.5,8.3-8.7,21.9-0.5,30.4c4.2,4.4,9.8,6.5,15.5,6.5
			c5.4,0,10.8-2,15-6.1l43-41.8v7.8v27.9h25.9h17.9h14.1h0.1h14.1h17.9H308v-27.9v-7.8l43,41.8c4.2,4.1,9.6,6.1,15,6.1
			c5.6,0,11.2-2.2,15.5-6.5C389.7,277.7,389.5,264.1,381,255.8z"/>
		<circle class="st2" cx="250" cy="110.3" r="54.2"/>
	</g>
</g>
</svg>
