<?xml version="1.0" encoding="utf-8"?>
<!-- Generator: Adobe Illustrator 21.0.2, SVG Export Plug-In . SVG Version: 6.00 Build 0)  -->
<svg version="1.1" xmlns="http://www.w3.org/2000/svg" xmlns:xlink="http://www.w3.org/1999/xlink" x="0px" y="0px"
	 viewBox="0 0 500 500" style="enable-background:new 0 0 500 500;" xml:space="preserve">
<style type="text/css">
	.st0{display:none;}
	.st1{display:inline;}
	.st2{fill:#FFFFFF;}
</style>
<g id="Layer_1" class="st0">
	<circle class="st1" cx="250" cy="250" r="250"/>
</g>
<g id="Layer_2">
	<g>
		<path class="st2" d="M227.5,65.7c-96.6,0-175,78.4-175,175s78.4,175,175,175s175-78.4,175-175S324.2,65.7,227.5,65.7z M227.5,94.3
			c19.6,0,35.5,7.5,35.5,27.1c0,19.6-15.9,50.1-35.5,50.1S192,141.1,192,121.5C192,101.9,207.9,94.3,227.5,94.3z M103.2,237.6
			c-18.6-6.1-20.9-23.5-14.8-42.1c6.1-18.6,18.1-31.4,36.8-25.4c18.6,6.1,42.7,30.6,36.7,49.2C155.7,238,121.8,243.6,103.2,237.6z
			 M186.2,358c-11.5,15.9-28.8,12.6-44.7,1.1c-15.9-11.5-24.3-27-12.8-42.8c11.5-15.9,42.3-31.2,58.2-19.7
			C202.8,308.1,197.7,342.1,186.2,358z M227.5,279.7c-21.6,0-39-17.5-39-39c0-21.6,17.5-39,39-39s39,17.5,39,39
			C266.6,262.2,249.1,279.7,227.5,279.7z M313.5,359.1c-15.9,11.5-33.1,14.8-44.7-1.1c-11.5-15.9-16.6-49.9-0.7-61.4
			c15.9-11.5,46.6,3.8,58.2,19.7C337.8,332.1,329.4,347.5,313.5,359.1z M351.8,237.6c-18.6,6.1-52.6,0.4-58.6-18.3
			c-6.1-18.6,18-43.2,36.7-49.2c18.6-6.1,30.7,6.7,36.8,25.4C372.7,214.1,370.5,231.5,351.8,237.6z"/>
		<path class="st2" d="M309.4,415.7c9.2-3.2,18-7.3,26.5-11.9c8.5-4.6,16.5-9.8,24.2-15.4c7.6-5.6,14.9-11.7,21.6-18.2
			c6.7-6.5,12.9-13.5,18.5-20.7c11.3-14.5,20.1-30.5,26.7-47.1c6.4-16.7,10.6-34,12.7-51.6l47.5,11.3c-6.9,20.2-16.3,39.7-27.8,57.4
			c-11.7,17.7-25.7,33.6-41.5,47c-7.9,6.7-16.2,12.8-24.8,18.2c-8.6,5.4-17.6,10.2-26.7,14.3c-9.1,4.1-18.5,7.7-28,10.5
			C328.7,412.2,319.1,414.5,309.4,415.7z"/>
	</g>
</g>
</svg>
