<?xml version="1.0" encoding="utf-8"?>
<!-- Generator: Adobe Illustrator 21.0.2, SVG Export Plug-In . SVG Version: 6.00 Build 0)  -->
<svg version="1.1" xmlns="http://www.w3.org/2000/svg" xmlns:xlink="http://www.w3.org/1999/xlink" x="0px" y="0px"
	 viewBox="0 0 500 500" style="enable-background:new 0 0 500 500;" xml:space="preserve">
<style type="text/css">
	.st0{display:none;}
	.st1{display:inline;}
	.st2{fill:#FFFFFF;}
</style>
<g id="Layer_1" class="st0">
	<circle class="st1" cx="250" cy="250" r="250"/>
</g>
<g id="Layer_2">
	<path class="st2" d="M448.4,166.2L375.3,93l-0.4,0.4V93h-41.5c0,16.5-37.3,29.9-83.4,29.9s-83.4-13.4-83.4-29.9H125v0.7l-72.4,72.4
		c-5.1,5.1-5.1,13.4,0,18.5l39.2,39.2c5.1,5.1,13.4,5.1,18.5,0l14.7-14.7v184.8c0,7.2,5.9,13.1,13.1,13.1h223.7
		c7.2,0,13.1-5.9,13.1-13.1V208l15.8,15.8c5.1,5.1,13.4,5.1,18.5,0l39.2-39.2C453.5,179.6,453.5,171.3,448.4,166.2z"/>
</g>
</svg>
