<?xml version="1.0" encoding="utf-8"?>
<!-- Generator: Adobe Illustrator 21.0.2, SVG Export Plug-In . SVG Version: 6.00 Build 0)  -->
<svg version="1.1" xmlns="http://www.w3.org/2000/svg" xmlns:xlink="http://www.w3.org/1999/xlink" x="0px" y="0px"
	 viewBox="0 0 500 500" style="enable-background:new 0 0 500 500;" xml:space="preserve">
<style type="text/css">
	.st0{display:none;}
	.st1{display:inline;}
	.st2{fill:#FFFFFF;}
	.st3{opacity:0.7;fill:#FFFFFF;}
</style>
<g id="Layer_1" class="st0">
	<circle class="st1" cx="250" cy="250" r="250"/>
</g>
<g id="Layer_2">
	<g>
		<path class="st2" d="M278.8,418.3c0,0,143.8-124.3,162.1-156c18.3-31.7,28-135.3-35.3-147.5s-104.8,60.9-104.8,60.9
			s-12.2-81.7-57.3-86.5c-45.1-4.9-82.9,23.2-75.6,70.7C175.2,207.5,208.1,290.4,278.8,418.3z"/>
		<path class="st3" d="M185.3,381.6C143.1,343,55.5,223.3,46.9,183.3s21.6-85.5,81.1-79c59.5,6.5,70.3,72.5,70.3,72.5
			s27-68.2,81.1-63.8s66,79,40,113.6C293.5,261.2,210.2,362.5,185.3,381.6z"/>
	</g>
</g>
</svg>
