<?xml version="1.0" encoding="utf-8"?>
<!-- Generator: Adobe Illustrator 21.0.2, SVG Export Plug-In . SVG Version: 6.00 Build 0)  -->
<svg version="1.1" xmlns="http://www.w3.org/2000/svg" xmlns:xlink="http://www.w3.org/1999/xlink" x="0px" y="0px"
	 viewBox="0 0 500 500" style="enable-background:new 0 0 500 500;" xml:space="preserve">
<style type="text/css">
	.st0{display:none;}
	.st1{display:inline;}
	.st2{fill:#FFFFFF;}
</style>
<g id="Layer_1" class="st0">
	<circle class="st1" cx="250" cy="250" r="250"/>
</g>
<g id="Layer_2">
	<path class="st2" d="M256.8,124.9c0,0,46.1-38.6,96.7-17.5s62.1,73.5,49.4,124.2c-12.7,50.6-44,64.5-44,64.5s-19.3,92.2-41,119.9
		c-21.7,27.7-41,56.1-48.5,21.1s13.6-118.7-16-122.4c-29.5-3.6-40.4,52.4-45.8,86.2s-20.5,59.1-35,48.2s-30.1-28.9-30.7-167.6
		c0,0-39.8-43.4-33.8-98.9c6-55.5,35-88.6,80.8-86.8C234.8,97.8,256.8,124.9,256.8,124.9z"/>
</g>
</svg>
