<?xml version="1.0" encoding="utf-8"?>
<!-- Generator: Adobe Illustrator 21.0.2, SVG Export Plug-In . SVG Version: 6.00 Build 0)  -->
<svg version="1.1" xmlns="http://www.w3.org/2000/svg" xmlns:xlink="http://www.w3.org/1999/xlink" x="0px" y="0px"
	 viewBox="0 0 500 500" style="enable-background:new 0 0 500 500;" xml:space="preserve">
<style type="text/css">
	.st0{display:none;}
	.st1{display:inline;}
	.st2{fill:#FFFFFF;}
</style>
<g id="Layer_1" class="st0">
	<circle class="st1" cx="250" cy="250" r="250"/>
</g>
<g id="Layer_2">
	<g>
		<g>
			<path class="st2" d="M287.2,274.7c-3.4,0-6.8-1.4-9.3-4.1c-1.3-1.5-32.4-35.9-57.2-69.4C197,169,166.6,95.8,190.3,64.2
				c21-27.9,66.3-29.2,68.2-29.2c6.9-0.1,12.6,5.4,12.8,12.3c0.1,6.9-5.3,12.6-12.2,12.8c-9.7,0.2-37.4,4.2-48.7,19.2
				c-11.4,15.2,4.9,72.2,30.5,107c24,32.5,55.3,67.2,55.6,67.5c4.6,5.1,4.2,13.1-0.9,17.7C293.2,273.6,290.2,274.7,287.2,274.7z"/>
		</g>
		<g>
			<path class="st2" d="M287.2,274.7c-3,0-6-1.1-8.4-3.2c-5.1-4.6-5.5-12.6-0.9-17.7c0.3-0.3,31.6-35,55.6-67.5
				c25.7-34.8,41.9-91.8,30.5-107c-11.3-15.1-39-19-48.7-19.2c-6.9-0.2-12.4-5.9-12.2-12.8c0.2-6.9,5.9-12.4,12.8-12.2
				c1.9,0,47.3,1.3,68.2,29.2c23.7,31.6-6.7,104.8-30.4,136.9c-24.7,33.5-55.8,68-57.2,69.4C294,273.3,290.6,274.7,287.2,274.7z"/>
		</g>
		<g>
			<path class="st2" d="M219.5,465c-20,0-36.5-10.8-46.5-30.5c-27.1-53.4-33.1-76.4-0.1-145c12.8-26.6,15.6-49,8.3-66.8
				c-7.1-17.2-23.7-30.5-49.3-39.7c-5.2-1.9-7.9-7.6-6.1-12.8c1.9-5.2,7.6-7.9,12.8-6.1c31.3,11.1,51.8,28.3,61.2,50.9
				c9.6,23.2,6.6,51.2-8.7,83.1c-30.2,62.9-25,78.3-0.1,127.2c6.8,13.4,16.9,20,29.9,19.5c21.3-0.8,48-20.5,57.1-42.2
				c12.1-28.7,3.6-110.1-0.7-139.1c-0.8-5.5,3-10.6,8.4-11.4c5.5-0.8,10.6,3,11.4,8.4c0.7,4.5,16.1,110.1-0.7,149.8
				c-10.7,25.3-42.3,53.3-74.9,54.5C220.8,465,220.2,465,219.5,465z"/>
		</g>
		<circle class="st2" cx="121" cy="169.4" r="40.1"/>
	</g>
</g>
</svg>
