<?xml version="1.0" encoding="utf-8"?>
<!-- Generator: Adobe Illustrator 21.0.2, SVG Export Plug-In . SVG Version: 6.00 Build 0)  -->
<svg version="1.1" xmlns="http://www.w3.org/2000/svg" xmlns:xlink="http://www.w3.org/1999/xlink" x="0px" y="0px"
	 viewBox="0 0 500 500" style="enable-background:new 0 0 500 500;" xml:space="preserve">
<style type="text/css">
	.st0{display:none;}
	.st1{display:inline;}
	.st2{fill:#FFFFFF;}
</style>
<g id="Layer_1" class="st0">
	<circle class="st1" cx="250" cy="250" r="250"/>
</g>
<g id="Layer_2">
	<g>
		<path class="st2" d="M180.2,118.3c-5.7,0-10.3-4.6-10.3-10.3V53.9c0-5.7,4.6-10.3,10.3-10.3s10.3,4.6,10.3,10.3V108
			C190.5,113.7,185.9,118.3,180.2,118.3z"/>
	</g>
	<g>
		<path class="st2" d="M226.7,118.3c-5.7,0-10.3-4.6-10.3-10.3V53.9c0-5.7,4.6-10.3,10.3-10.3c5.7,0,10.3,4.6,10.3,10.3V108
			C237,113.7,232.4,118.3,226.7,118.3z"/>
	</g>
	<g>
		<path class="st2" d="M273.3,118.3c-5.7,0-10.3-4.6-10.3-10.3V53.9c0-5.7,4.6-10.3,10.3-10.3c5.7,0,10.3,4.6,10.3,10.3V108
			C283.5,113.7,278.9,118.3,273.3,118.3z"/>
	</g>
	<g>
		<path class="st2" d="M319.8,118.3c-5.7,0-10.3-4.6-10.3-10.3V53.9c0-5.7,4.6-10.3,10.3-10.3c5.7,0,10.3,4.6,10.3,10.3V108
			C330.1,113.7,325.5,118.3,319.8,118.3z"/>
	</g>
	<g>
		<path class="st2" d="M319.8,456.3c-5.7,0-10.3-4.6-10.3-10.3V392c0-5.7,4.6-10.3,10.3-10.3c5.7,0,10.3,4.6,10.3,10.3v54.1
			C330.1,451.7,325.5,456.3,319.8,456.3z"/>
	</g>
	<g>
		<path class="st2" d="M273.3,456.3c-5.7,0-10.3-4.6-10.3-10.3V392c0-5.7,4.6-10.3,10.3-10.3c5.7,0,10.3,4.6,10.3,10.3v54.1
			C283.5,451.7,278.9,456.3,273.3,456.3z"/>
	</g>
	<g>
		<path class="st2" d="M226.7,456.3c-5.7,0-10.3-4.6-10.3-10.3V392c0-5.7,4.6-10.3,10.3-10.3c5.7,0,10.3,4.6,10.3,10.3v54.1
			C237,451.7,232.4,456.3,226.7,456.3z"/>
	</g>
	<g>
		<path class="st2" d="M180.2,456.3c-5.7,0-10.3-4.6-10.3-10.3V392c0-5.7,4.6-10.3,10.3-10.3s10.3,4.6,10.3,10.3v54.1
			C190.5,451.7,185.9,456.3,180.2,456.3z"/>
	</g>
	<g>
		<path class="st2" d="M446.1,190.5H392c-5.7,0-10.3-4.6-10.3-10.3s4.6-10.3,10.3-10.3h54.1c5.7,0,10.3,4.6,10.3,10.3
			S451.7,190.5,446.1,190.5z"/>
	</g>
	<g>
		<path class="st2" d="M446.1,237H392c-5.7,0-10.3-4.6-10.3-10.3c0-5.7,4.6-10.3,10.3-10.3h54.1c5.7,0,10.3,4.6,10.3,10.3
			C456.3,232.4,451.7,237,446.1,237z"/>
	</g>
	<g>
		<path class="st2" d="M446.1,283.5H392c-5.7,0-10.3-4.6-10.3-10.3c0-5.7,4.6-10.3,10.3-10.3h54.1c5.7,0,10.3,4.6,10.3,10.3
			C456.3,278.9,451.7,283.5,446.1,283.5z"/>
	</g>
	<g>
		<path class="st2" d="M446.1,330.1H392c-5.7,0-10.3-4.6-10.3-10.3c0-5.7,4.6-10.3,10.3-10.3h54.1c5.7,0,10.3,4.6,10.3,10.3
			C456.3,325.5,451.7,330.1,446.1,330.1z"/>
	</g>
	<g>
		<path class="st2" d="M108,330.1H53.9c-5.7,0-10.3-4.6-10.3-10.3c0-5.7,4.6-10.3,10.3-10.3H108c5.7,0,10.3,4.6,10.3,10.3
			C118.3,325.5,113.7,330.1,108,330.1z"/>
	</g>
	<g>
		<path class="st2" d="M108,283.5H53.9c-5.7,0-10.3-4.6-10.3-10.3c0-5.7,4.6-10.3,10.3-10.3H108c5.7,0,10.3,4.6,10.3,10.3
			C118.3,278.9,113.7,283.5,108,283.5z"/>
	</g>
	<g>
		<path class="st2" d="M108,237H53.9c-5.7,0-10.3-4.6-10.3-10.3c0-5.7,4.6-10.3,10.3-10.3H108c5.7,0,10.3,4.6,10.3,10.3
			C118.3,232.4,113.7,237,108,237z"/>
	</g>
	<g>
		<path class="st2" d="M108,190.5H53.9c-5.7,0-10.3-4.6-10.3-10.3s4.6-10.3,10.3-10.3H108c5.7,0,10.3,4.6,10.3,10.3
			S113.7,190.5,108,190.5z"/>
	</g>
	<path class="st2" d="M354,133.7H146c-6.8,0-12.3,5.5-12.3,12.3v208c0,6.8,5.5,12.3,12.3,12.3h208c6.8,0,12.3-5.5,12.3-12.3V146
		C366.3,139.2,360.8,133.7,354,133.7z M319.8,319.8H180.2V180.2h139.6V319.8z"/>
</g>
</svg>
