<?xml version="1.0" encoding="utf-8"?>
<!-- Generator: Adobe Illustrator 21.0.2, SVG Export Plug-In . SVG Version: 6.00 Build 0)  -->
<svg version="1.1" xmlns="http://www.w3.org/2000/svg" xmlns:xlink="http://www.w3.org/1999/xlink" x="0px" y="0px"
	 viewBox="0 0 500 500" style="enable-background:new 0 0 500 500;" xml:space="preserve">
<style type="text/css">
	.st0{display:none;}
	.st1{display:inline;}
	.st2{fill:#FFFFFF;}
</style>
<g id="Layer_1" class="st0">
	<circle class="st1" cx="250" cy="250" r="250"/>
</g>
<g id="Layer_2">
	<path class="st2" d="M283.5,400.9h-67.1c-4.7,0-8.5-3.8-8.5-8.5v-4.2c0-4.7,3.8-8.5,8.5-8.5h67.1c4.7,0,8.5,3.8,8.5,8.5v4.2
		C292,397.1,288.2,400.9,283.5,400.9z"/>
	<path class="st2" d="M276.8,429h-53.6c-4.7,0-8.5-3.8-8.5-8.5v-0.8c0-4.7,3.8-8.5,8.5-8.5h53.6c4.7,0,8.5,3.8,8.5,8.5v0.8
		C285.3,425.1,281.5,429,276.8,429z"/>
	<path class="st2" d="M357,180.9c0-59.1-47.9-107-107-107s-107,47.9-107,107c0,82.9,55.6,102,60.3,137.7c0.3,2.1,0.6,4.2,0.8,6.2
		v35.4c0,5.6,4.6,10.2,10.2,10.2h71.3c5.6,0,10.2-4.6,10.2-10.2v-35.4c0.3-2,0.6-4.1,0.8-6.2C301.4,282.9,357,263.8,357,180.9z"/>
</g>
</svg>
