<?xml version="1.0" encoding="utf-8"?>
<!-- Generator: Adobe Illustrator 21.0.2, SVG Export Plug-In . SVG Version: 6.00 Build 0)  -->
<svg version="1.1" xmlns="http://www.w3.org/2000/svg" xmlns:xlink="http://www.w3.org/1999/xlink" x="0px" y="0px"
	 viewBox="0 0 500 500" style="enable-background:new 0 0 500 500;" xml:space="preserve">
<style type="text/css">
	.st0{display:none;}
	.st1{display:inline;}
	.st2{fill:#FFFFFF;}
	.st3{opacity:0.7;fill:#FFFFFF;}
</style>
<g id="Layer_1" class="st0">
	<circle class="st1" cx="250" cy="250" r="250"/>
</g>
<g id="Layer_2">
	<g>
		<path class="st2" d="M355.3,161.7c-64.9-13.5-107.7-71.1-126.7,20s5.9,234.6,70.7,248.2c64.9,13.5,145.1-108.1,164.1-199.1
			C482.4,139.7,420.2,175.3,355.3,161.7z M246.6,222.7c0,0,21.5-13.1,43.6-8.4c22.2,4.6,36.6,25.2,36.6,25.2s-21.5,13.1-43.6,8.4
			S246.6,222.7,246.6,222.7z M312.9,364.7c-32.3-6.8-55-30.3-52.4-53.6c12.5,11.3,33.4,21.2,58.1,26.4c24.7,5.2,47.8,4.4,63.8-0.9
			C375.5,359,345.2,371.5,312.9,364.7z M386.9,269.5c-22.2-4.6-36.6-25.2-36.6-25.2s21.5-13.1,43.6-8.4s36.6,25.2,36.6,25.2
			S409.1,274.1,386.9,269.5z"/>
		<path class="st3" d="M245,335.7v-35.3h25.8c4.4-12,8.1-25,11-38.4L241.7,245l-6.7-32.7l15-12l40.4-4.4c1-24.1-0.2-47.8-3.8-68.8
			c-15.9-91.6-60.7-35.6-126-24.3S34.3,76.5,50.1,168.1s91.9,216,157.2,204.7c16.7-2.9,31.1-14.4,42.9-31.4L245,335.7z M223.8,157.6
			c22.3-3.9,43.3,9.9,43.3,9.9s-15.1,20.1-37.4,23.9c-22.3,3.9-43.3-9.9-43.3-9.9S201.5,161.4,223.8,157.6z M82,199.6
			c0,0,15.1-20.1,37.4-23.9s43.3,9.9,43.3,9.9s-15.1,20.1-37.4,23.9C103,213.4,82,199.6,82,199.6z M193.6,293.5
			c-24.9,4.3-46.1,13.5-59,24.3c-1.8-23.4,21.7-46.1,54.3-51.8c32.5-5.6,62.3,7.9,68.5,30.5C241.6,290.7,218.5,289.2,193.6,293.5z"
			/>
	</g>
</g>
</svg>
