<?xml version="1.0" encoding="utf-8"?>
<!-- Generator: Adobe Illustrator 21.0.2, SVG Export Plug-In . SVG Version: 6.00 Build 0)  -->
<svg version="1.1" xmlns="http://www.w3.org/2000/svg" xmlns:xlink="http://www.w3.org/1999/xlink" x="0px" y="0px"
	 viewBox="0 0 500 500" style="enable-background:new 0 0 500 500;" xml:space="preserve">
<style type="text/css">
	.st0{display:none;}
	.st1{display:inline;}
	.st2{fill:#FFFFFF;}
</style>
<g id="Layer_1" class="st0">
	<circle class="st1" cx="250" cy="250" r="250"/>
</g>
<g id="Layer_2">
	<g>
		<path class="st2" d="M30.7,253.1c0-55.8,55.4-101,123.7-101S278,197.3,278,253.1H30.7z"/>
		<path class="st2" d="M266,296.8H42.7c-6.6,0-12-5.4-12-12v-6.7c0-6.6,5.4-12,12-12H266c6.6,0,12,5.4,12,12v6.7
			C278,291.4,272.6,296.8,266,296.8z"/>
		<path class="st2" d="M266,383.3H42.7c-6.6,0-12-5.4-12-12v-12.9c0-6.6,5.4-12,12-12H266c6.6,0,12,5.4,12,12v12.9
			C278,377.9,272.6,383.3,266,383.3z"/>
		<g>
			<g>
				<path class="st2" d="M92.5,336.6H77.7c0-8.9-7.2-16.2-16.1-16.2c-8.9,0-16.2,7.2-16.2,16.2H30.7c0-17,13.9-30.9,30.9-30.9
					S92.5,319.6,92.5,336.6z"/>
			</g>
			<g>
				<path class="st2" d="M154.3,336.6h-14.8c0-8.9-7.2-16.2-16.1-16.2c-8.9,0-16.2,7.2-16.2,16.2H92.5c0-17,13.9-30.9,30.9-30.9
					S154.3,319.6,154.3,336.6z"/>
			</g>
			<g>
				<path class="st2" d="M216.2,336.6h-14.8c0-8.9-7.2-16.2-16.1-16.2c-8.9,0-16.2,7.2-16.2,16.2h-14.8c0-17,13.9-30.9,30.9-30.9
					S216.2,319.6,216.2,336.6z"/>
			</g>
			<g>
				<path class="st2" d="M278,336.6h-14.8c0-8.9-7.2-16.2-16.1-16.2c-8.9,0-16.2,7.2-16.2,16.2h-14.8c0-17,13.9-30.9,30.9-30.9
					S278,319.6,278,336.6z"/>
			</g>
		</g>
	</g>
	<g>
		<polygon class="st2" points="294.5,383.6 416.6,383.6 433.6,160.9 277.6,160.9 		"/>
		<path class="st2" d="M450,119.1h-76l1.6-19.5l29.9-18.9l-17.2-27.2l-36.7,23.2c-4.3,2.7-7.1,7.3-7.5,12.3l-2.4,30.1h-78.7
			c-5.6,0-10.2,4.6-10.2,10.2v13.6c0,5.6,4.6,10.2,10.2,10.2H450c5.6,0,10.2-4.6,10.2-10.2v-13.6C460.1,123.7,455.6,119.1,450,119.1
			z"/>
	</g>
</g>
</svg>
