<?xml version="1.0" encoding="utf-8"?>
<!-- Generator: Adobe Illustrator 21.0.2, SVG Export Plug-In . SVG Version: 6.00 Build 0)  -->
<svg version="1.1" xmlns="http://www.w3.org/2000/svg" xmlns:xlink="http://www.w3.org/1999/xlink" x="0px" y="0px"
	 viewBox="0 0 500 500" style="enable-background:new 0 0 500 500;" xml:space="preserve">
<style type="text/css">
	.st0{display:none;}
	.st1{display:inline;}
	.st2{fill:#FFFFFF;}
</style>
<g id="Layer_1" class="st0">
	<circle class="st1" cx="250" cy="250" r="250"/>
</g>
<g id="Layer_2">
	<g>
		<g>
			<ellipse class="st2" cx="297.8" cy="295.6" rx="47.7" ry="22.4"/>
		</g>
		<g>
			<g>
				<path class="st2" d="M334.6,423c-9.9,4.7-23.1,7.3-36.9,7.3c-13.8,0-26.9-2.6-36.9-7.3c-4.3-2-7.8-4.4-10.7-6.9
					c-0.1,0.6-0.2,1.2-0.2,1.8c0,12.4,21.3,22.4,47.7,22.4s47.7-10,47.7-22.4c0-0.7-0.1-1.2-0.2-1.8
					C342.4,418.6,338.8,421,334.6,423z"/>
			</g>
		</g>
		<g>
			<g>
				<path class="st2" d="M334.6,405.5c-9.9,4.7-23.1,7.3-36.9,7.3c-13.8,0-26.9-2.6-36.9-7.3c-4.3-2-7.8-4.4-10.7-6.9
					c-0.1,0.6-0.2,1.2-0.2,1.8c0,12.4,21.3,22.4,47.7,22.4s47.7-10,47.7-22.4c0-0.7-0.1-1.2-0.2-1.8
					C342.4,401.2,338.8,403.5,334.6,405.5z"/>
			</g>
		</g>
		<g>
			<g>
				<path class="st2" d="M334.6,388c-9.9,4.7-23.1,7.3-36.9,7.3c-13.8,0-26.9-2.6-36.9-7.3c-4.3-2-7.8-4.4-10.7-6.9
					c-0.1,0.6-0.2,1.2-0.2,1.8c0,12.4,21.3,22.4,47.7,22.4s47.7-10,47.7-22.4c0-0.7-0.1-1.2-0.2-1.8
					C342.4,383.7,338.8,386,334.6,388z"/>
			</g>
		</g>
		<g>
			<g>
				<path class="st2" d="M334.6,370.5c-9.9,4.7-23.1,7.3-36.9,7.3c-13.8,0-26.9-2.6-36.9-7.3c-4.3-2-7.8-4.4-10.7-6.9
					c-0.1,0.6-0.2,1.2-0.2,1.8c0,12.4,21.3,22.4,47.7,22.4s47.7-10,47.7-22.4c0-0.7-0.1-1.2-0.2-1.8
					C342.4,366.2,338.8,368.6,334.6,370.5z"/>
			</g>
		</g>
		<g>
			<g>
				<path class="st2" d="M334.6,353.1c-9.9,4.7-23.1,7.3-36.9,7.3c-13.8,0-26.9-2.6-36.9-7.3c-4.3-2-7.8-4.4-10.7-6.9
					c-0.1,0.6-0.2,1.2-0.2,1.8c0,12.4,21.3,22.4,47.7,22.4s47.7-10,47.7-22.4c0-0.7-0.1-1.2-0.2-1.8
					C342.4,348.8,338.8,351.1,334.6,353.1z"/>
			</g>
		</g>
		<g>
			<g>
				<path class="st2" d="M334.6,335.6c-9.9,4.7-23.1,7.3-36.9,7.3c-13.8,0-26.9-2.6-36.9-7.3c-4.3-2-7.8-4.4-10.7-6.9
					c-0.1,0.6-0.2,1.2-0.2,1.8c0,12.4,21.3,22.4,47.7,22.4s47.7-10,47.7-22.4c0-0.7-0.1-1.2-0.2-1.8
					C342.4,331.3,338.8,333.6,334.6,335.6z"/>
			</g>
		</g>
		<g>
			<g>
				<path class="st2" d="M334.6,318.1c-9.9,4.7-23.1,7.3-36.9,7.3c-13.8,0-26.9-2.6-36.9-7.3c-4.3-2-7.8-4.4-10.7-6.9
					c-0.1,0.6-0.2,1.2-0.2,1.8c0,12.4,21.3,22.4,47.7,22.4s47.7-10,47.7-22.4c0-0.7-0.1-1.2-0.2-1.8
					C342.4,313.8,338.8,316.1,334.6,318.1z"/>
			</g>
		</g>
		<g>
			<ellipse class="st2" cx="399.2" cy="327.9" rx="47.7" ry="22.4"/>
		</g>
		<g>
			<g>
				<path class="st2" d="M436,402.8c-9.9,4.7-23.1,7.3-36.9,7.3c-13.8,0-26.9-2.6-36.9-7.3c-4.3-2-7.8-4.4-10.7-6.9
					c-0.1,0.6-0.2,1.2-0.2,1.8c0,12.4,21.3,22.4,47.7,22.4s47.7-10,47.7-22.4c0-0.7-0.1-1.2-0.2-1.8
					C443.8,398.5,440.3,400.8,436,402.8z"/>
			</g>
		</g>
		<g>
			<g>
				<path class="st2" d="M436,385.4c-9.9,4.7-23.1,7.3-36.9,7.3c-13.8,0-26.9-2.6-36.9-7.3c-4.3-2-7.8-4.4-10.7-6.9
					c-0.1,0.6-0.2,1.2-0.2,1.8c0,12.4,21.3,22.4,47.7,22.4s47.7-10,47.7-22.4c0-0.7-0.1-1.2-0.2-1.8
					C443.8,381.1,440.3,383.3,436,385.4z"/>
			</g>
		</g>
		<g>
			<g>
				<path class="st2" d="M436,367.9c-9.9,4.7-23.1,7.3-36.9,7.3c-13.8,0-26.9-2.6-36.9-7.3c-4.3-2-7.8-4.4-10.7-6.9
					c-0.1,0.6-0.2,1.2-0.2,1.8c0,12.4,21.3,22.4,47.7,22.4s47.7-10,47.7-22.4c0-0.7-0.1-1.2-0.2-1.8
					C443.8,363.6,440.3,365.9,436,367.9z"/>
			</g>
		</g>
		<g>
			<g>
				<path class="st2" d="M436,350.4c-9.9,4.7-23.1,7.3-36.9,7.3c-13.8,0-26.9-2.6-36.9-7.3c-4.3-2-7.8-4.4-10.7-6.9
					c-0.1,0.6-0.2,1.2-0.2,1.8c0,12.4,21.3,22.4,47.7,22.4s47.7-10,47.7-22.4c0-0.7-0.1-1.2-0.2-1.8
					C443.8,346.1,440.3,348.4,436,350.4z"/>
			</g>
		</g>
		<path class="st2" d="M413.2,248.9c-10.6-2.3-19-10.5-21.5-21c1.1,7.2,1.7,14.6,1.7,22.1c0,14.3-2.1,28-6,41
			c3.8-0.4,7.7-0.6,11.8-0.6c3,0,6,0.1,8.9,0.3c3.4-13,5.2-26.7,5.2-40.8C413.2,249.6,413.2,249.2,413.2,248.9z"/>
		<g>
			<path class="st2" d="M407.1,83.6H294.6c-5,0-9.3,2.7-11.6,6.8c-0.1,0.2-0.2,0.4-0.3,0.6c-0.1,0.1-0.1,0.3-0.2,0.4
				c-0.1,0.2-0.2,0.4-0.3,0.6c-0.1,0.3-0.2,0.5-0.3,0.8c0,0.2-0.1,0.3-0.1,0.5c-0.1,0.3-0.1,0.5-0.2,0.8c0,0.1,0,0.2-0.1,0.3
				c-0.1,0.4-0.1,0.7-0.2,1.1c0,0.1,0,0.2,0,0.3c0,0.4-0.1,0.8-0.1,1.2c0,7.4,6,13.3,13.3,13.3h39.3h52.9l-23.1,23.1l-14,14
				L223.2,273.8l-66.8-68.2l-49,56.4c-0.3-4-0.5-8-0.5-12c0-79,64.2-143.2,143.2-143.2c6.3,0,12.5,0.4,18.6,1.2
				c-1.5-3.4-2.3-7.1-2.3-11.1c0-3.1,0.5-6.1,1.5-8.9c-5.8-0.6-11.7-1-17.7-1c-89.9,0-163,73.1-163,163
				c0,84.7,64.9,154.5,147.6,162.3v-19.9c-56.5-6.1-103.3-45.2-120.6-97.5l43.4-50l65.5,66.8l144.2-144.2l14.1-14.1l24.4-24.4v72.3
				v20c0,0.4,0,0.8,0.1,1.2c0,0.1,0,0.2,0,0.3c0,0.4,0.1,0.8,0.2,1.2v0.1c0.1,0.3,0.2,0.7,0.3,1c0,0.1,0.1,0.2,0.1,0.4
				c0.1,0.3,0.2,0.6,0.3,0.9c0.1,0.1,0.1,0.3,0.2,0.4c0.1,0.2,0.2,0.4,0.3,0.6c0.1,0.2,0.2,0.3,0.3,0.5c0.1,0.2,0.2,0.3,0.3,0.5
				c0.2,0.3,0.4,0.6,0.6,0.8c0.1,0.1,0.1,0.2,0.2,0.3c0.1,0.2,0.3,0.4,0.5,0.6c0,0,0,0,0.1,0.1c0.3,0.4,0.7,0.8,1.1,1.1
				c0,0,0,0,0.1,0.1c2.4,2.1,5.4,3.4,8.8,3.4c7.4,0,13.3-6,13.3-13.3V108.7C432.3,94.9,421,83.6,407.1,83.6z"/>
		</g>
	</g>
</g>
</svg>
