<?xml version="1.0" encoding="utf-8"?>
<!-- Generator: Adobe Illustrator 21.0.2, SVG Export Plug-In . SVG Version: 6.00 Build 0)  -->
<svg version="1.1" xmlns="http://www.w3.org/2000/svg" xmlns:xlink="http://www.w3.org/1999/xlink" x="0px" y="0px"
	 viewBox="0 0 500 500" style="enable-background:new 0 0 500 500;" xml:space="preserve">
<style type="text/css">
	.st0{display:none;}
	.st1{display:inline;}
	.st2{fill:#FFFFFF;}
</style>
<g id="Layer_1" class="st0">
	<circle class="st1" cx="250" cy="250" r="250"/>
</g>
<g id="Layer_2">
	<g>
		<path class="st2" d="M390.8,329.6c0,24.1-63,28.2-140.8,28.2s-140.8-4-140.8-28.2s63-59.3,140.8-59.3S390.8,305.4,390.8,329.6z"/>
		<path class="st2" d="M368.5,154.7L250,110.3l-118.5,44.5l-71.1,84.5l49.6,53.3c8.3-7.1,19.1-13.8,32.1-19.8
			c31.2-14.5,69.6-22.4,107.9-22.4s76.7,8,107.9,22.4c13,6,23.7,12.7,32.1,19.8l49.6-53.3L368.5,154.7z M250,231.4
			c-23.5,0-43.1-25.6-46.8-59.1l46.8-17.5l46.8,17.5C293.1,205.8,273.5,231.4,250,231.4z"/>
	</g>
</g>
</svg>
