<?xml version="1.0" encoding="utf-8"?>
<!-- Generator: Adobe Illustrator 21.0.2, SVG Export Plug-In . SVG Version: 6.00 Build 0)  -->
<svg version="1.1" xmlns="http://www.w3.org/2000/svg" xmlns:xlink="http://www.w3.org/1999/xlink" x="0px" y="0px"
	 viewBox="0 0 500 500" style="enable-background:new 0 0 500 500;" xml:space="preserve">
<style type="text/css">
	.st0{display:none;}
	.st1{display:inline;}
	.st2{fill:#FFFFFF;}
</style>
<g id="Layer_1" class="st0">
	<circle class="st1" cx="250" cy="250" r="250"/>
</g>
<g id="Layer_2">
	<g>
		<g>
			<path class="st2" d="M114.3,257.2l-21.4-13.4c-5.6-3.5-7.3-11-3.8-16.5l72.6-115.6c3.5-5.6,11-7.3,16.5-3.8l21.4,13.4
				c5.6,3.5,7.3,11,3.8,16.5l-72.6,115.6C127.4,259,119.9,260.7,114.3,257.2z"/>
			<path class="st2" d="M66,204.8l-11.7-7.4c-5.6-3.5-7.3-11-3.8-16.5l52.7-84c3.5-5.6,11-7.3,16.5-3.8l11.7,7.4
				c5.6,3.5,7.3,11,3.8,16.5l-52.7,84C79.1,206.6,71.6,208.3,66,204.8z"/>
		</g>
		<g>
			<path class="st2" d="M294.9,370.5l21.4,13.4c5.6,3.5,13,1.8,16.5-3.8l72.6-115.6c3.5-5.6,1.8-13-3.8-16.5l-21.4-13.4
				c-5.6-3.5-13-1.8-16.5,3.8l-72.6,115.6C287.6,359.5,289.3,367,294.9,370.5z"/>
			<path class="st2" d="M363,391.2l11.7,7.4c5.6,3.5,13,1.8,16.5-3.8l52.7-84c3.5-5.6,1.8-13-3.8-16.5l-11.7-7.4
				c-5.6-3.5-13-1.8-16.5,3.8l-52.7,84C355.7,380.3,357.4,387.7,363,391.2z"/>
		</g>
		
			<rect x="172.2" y="228.4" transform="matrix(0.8469 0.5317 -0.5317 0.8469 168.5588 -93.8361)" class="st2" width="150.2" height="35"/>
	</g>
</g>
</svg>
