<?xml version="1.0" encoding="utf-8"?>
<!-- Generator: Adobe Illustrator 21.0.2, SVG Export Plug-In . SVG Version: 6.00 Build 0)  -->
<svg version="1.1" xmlns="http://www.w3.org/2000/svg" xmlns:xlink="http://www.w3.org/1999/xlink" x="0px" y="0px"
	 viewBox="0 0 500 500" style="enable-background:new 0 0 500 500;" xml:space="preserve">
<style type="text/css">
	.st0{display:none;}
	.st1{display:inline;}
	.st2{fill:#FFFFFF;}
</style>
<g id="Layer_1" class="st0">
	<circle class="st1" cx="250" cy="250" r="250"/>
</g>
<g id="Layer_2">
	<path class="st2" d="M388.4,429.7l-59.1-198.4l57.5-57.5c17.8-17.8,17.8-46.8,0-64.6l0,0c-17.8-17.8-46.8-17.8-64.6,0l-57.5,57.5
		L66.3,107.5c-5.3-1.2-10.5,1.2-12.8,6c-2.2,4.7-0.9,10.6,3.2,14.2L199,232.4l-85,85l-65.9-13.6c-2.4-0.5-4.8,0.7-5.9,2.9
		c-1.1,2.2-0.5,4.9,1.3,6.5l87.6,51.7l51.7,87.6c0.1,0.1,0.2,0.2,0.3,0.3c1.6,1.6,4.1,2.1,6.2,1c2.2-1.1,3.4-3.5,2.9-5.9L178.6,382
		l85-85l104.7,142.2c0.2,0.2,0.4,0.4,0.6,0.6c3.6,3.6,9.1,4.7,13.6,2.6C387.2,440.2,389.7,434.9,388.4,429.7z"/>
</g>
</svg>
