<?xml version="1.0" encoding="utf-8"?>
<!-- Generator: Adobe Illustrator 21.0.2, SVG Export Plug-In . SVG Version: 6.00 Build 0)  -->
<svg version="1.1" xmlns="http://www.w3.org/2000/svg" xmlns:xlink="http://www.w3.org/1999/xlink" x="0px" y="0px"
	 viewBox="0 0 500 500" style="enable-background:new 0 0 500 500;" xml:space="preserve">
<style type="text/css">
	.st0{display:none;}
	.st1{display:inline;}
	.st2{fill:#FFFFFF;}
</style>
<g id="Layer_1" class="st0">
	<circle class="st1" cx="250" cy="250" r="250"/>
</g>
<g id="Layer_2">
	<path class="st2" d="M102.3,92.2c-4.3,4.3-4.3,11.3,0,15.6l69.4,69.4c2.2,2.2,2.2,5.7,0,7.8s-5.7,2.2-7.8,0l-69.4-69.4
		c-4.3-4.3-11.3-4.3-15.6,0c-4.3,4.3-4.3,11.3,0,15.6l69.4,69.4c2.2,2.2,2.2,5.7,0,7.8s-5.7,2.2-7.8,0l-69.4-69.4
		c-4.3-4.3-11.3-4.3-15.6,0s-4.3,11.3,0,15.6l69.4,69.4l27.7,27.7c8.6,8.6,22.7,8.6,31.3,0l3.9-3.9l160,160c6.5,6.5,17,6.5,23.5,0
		c6.5-6.5,6.5-17,0-23.5l-160-160l3.9-3.9c8.6-8.6,8.6-22.7,0-31.3l-27.7-27.7L118,92.2C113.7,87.9,106.7,87.9,102.3,92.2z"/>
	<path class="st2" d="M427.1,130c-22.2-22.2-103.6,23-141.5,60.9c-31,31-23.4,47.5-7.5,64.6L140.6,393c-6.5,6.5-6.5,17,0,23.5
		c6.5,6.5,17,6.5,23.5,0l140.3-140.3l122-122l9.4-9.4C434.1,139,431.2,134.1,427.1,130z"/>
</g>
</svg>
