<?xml version="1.0" encoding="utf-8"?>
<!-- Generator: Adobe Illustrator 21.0.2, SVG Export Plug-In . SVG Version: 6.00 Build 0)  -->
<svg version="1.1" xmlns="http://www.w3.org/2000/svg" xmlns:xlink="http://www.w3.org/1999/xlink" x="0px" y="0px"
	 viewBox="0 0 500 500" style="enable-background:new 0 0 500 500;" xml:space="preserve">
<style type="text/css">
	.st0{display:none;}
	.st1{display:inline;}
	.st2{fill:#FFFFFF;}
</style>
<g id="Layer_1" class="st0">
	<circle class="st1" cx="250" cy="250" r="250"/>
</g>
<g id="Layer_2">
	<g>
		<path class="st2" d="M330.6,117.8c0-22.4-18.3-40.7-40.7-40.7H172.1c-22.4,0-40.7,18.3-40.7,40.7v275.5H95.1v29.6h271.8v-29.6
			h-36.4V117.8z M157.3,122.7c0-6.1,5-11.1,11.1-11.1h125.1c6.1,0,11.1,5,11.1,11.1v88.8c0,6.1-5,11.1-11.1,11.1H168.4
			c-6.1,0-11.1-5-11.1-11.1V122.7z"/>
		<path class="st2" d="M413.1,127.8c-8.2-8.3-19.8-9.4-29-9.4v18.5c6.4,0,10.2,0.8,12.6,1.8c-9.3,7.7-21.2,22.9-19.3,49.4
			c1,15.2,6.1,25.6,15,30.9c4.3,2.6,8.8,3.5,12.8,3.6c-0.1,6.3-0.1,13-0.1,20.1c0,28.3-0.2,49.9-1.4,63.6c-1.1,13.8-3,16.6-3.5,17.1
			c-0.9,0.4-4.4,0.4-6.9,0.4c-1.7,0-2.3-0.5-2.8-1c-4.8-4.9-4.7-22-4.6-31.2c0-1.5,0-2.8,0-4.1l0-1.8c0-11.7,0.1-27.7-10.6-38.5
			c-6.4-6.4-15.5-9.6-27-9.6v18.5c6.4,0,11.1,1.4,13.9,4.2c5.3,5.3,5.2,16.4,5.2,25.3l0,1.9c0,1.2,0,2.6,0,4
			c-0.1,14.4-0.3,34.1,10,44.4c4.2,4.2,9.7,6.5,16,6.5c9.6,0,21.6,0,26.4-18.2c3.3-12.6,3.8-36.3,3.8-81.3c0-14.9,0.2-28,0.4-39.6
			C424.8,161,425.1,140,413.1,127.8z M405.6,202.7c0,0.4,0,0.9,0,1.3c-1.2,0-2.5-0.3-3.6-1c-3.3-2-5.5-7.8-6-16.3
			c-1-15.1,4-24.7,9.1-30.4C406.1,167.3,405.9,183.1,405.6,202.7z"/>
	</g>
</g>
</svg>
