<?xml version="1.0" encoding="utf-8"?>
<!-- Generator: Adobe Illustrator 21.0.2, SVG Export Plug-In . SVG Version: 6.00 Build 0)  -->
<svg version="1.1" id="Layer_1" xmlns="http://www.w3.org/2000/svg" xmlns:xlink="http://www.w3.org/1999/xlink" x="0px" y="0px"
	 viewBox="0 0 500 500" style="enable-background:new 0 0 500 500;" xml:space="preserve">
<style type="text/css">
	.st0{fill:none;}
	.st1{fill:#FFFFFF;}
</style>
<g id="Layer_1_1_">
	<circle class="st0" cx="250" cy="250" r="250"/>
</g>
<g id="Layer_2">
	<g>
		<path class="st1" d="M256.2,167.8c18.1,19.2,71.9-1.9,98.3-26.7s20.5-48.5,2.4-67.8c-18.1-19.2-41.4-26.7-67.8-1.9
			C262.7,96.2,238.1,148.6,256.2,167.8z M334.5,94.3c12.6,13.4,16.7,30-1.7,47.2c-18.4,17.3-55.9,32-68.5,18.6s4.5-49.9,22.9-67.2
			C305.7,75.7,321.9,80.9,334.5,94.3z"/>
		<path class="st1" d="M210.9,71.4c-26.4-24.8-49.7-17.3-67.8,1.9s-24,43,2.4,67.8s80.2,46,98.3,26.7S237.3,96.2,210.9,71.4z
			 M212.7,93c18.4,17.3,35.5,53.8,22.9,67.2s-50.1-1.4-68.5-18.6c-18.4-17.3-14.3-33.8-1.7-47.2S194.3,75.7,212.7,93z"/>
		<g>
			<path class="st1" d="M354.6,257.9h-75.7v144.3h75.7c6.9,0,12.6-5.6,12.6-12.6V270.4C367.2,263.5,361.5,257.9,354.6,257.9z"/>
			<path class="st1" d="M221.1,257.9h-75.7c-6.9,0-12.6,5.6-12.6,12.6v119.2c0,6.9,5.6,12.6,12.6,12.6h75.7V257.9z"/>
		</g>
		<g>
			<path class="st1" d="M221.1,186H114.7c-6.9,0-12.6,5.6-12.6,12.6V231c0,6.9,5.6,12.6,12.6,12.6h106.4V186z"/>
			<path class="st1" d="M385.3,186H278.9v57.6h106.4c6.9,0,12.6-5.6,12.6-12.6v-32.5C397.9,191.6,392.2,186,385.3,186z"/>
		</g>
	</g>
</g>
</svg>
