<?xml version="1.0" encoding="utf-8"?>
<!-- Generator: Adobe Illustrator 21.0.2, SVG Export Plug-In . SVG Version: 6.00 Build 0)  -->
<svg version="1.1" xmlns="http://www.w3.org/2000/svg" xmlns:xlink="http://www.w3.org/1999/xlink" x="0px" y="0px"
	 viewBox="0 0 500 500" style="enable-background:new 0 0 500 500;" xml:space="preserve">
<style type="text/css">
	.st0{display:none;}
	.st1{display:inline;}
	.st2{fill:#FFFFFF;}
</style>
<g id="Layer_1" class="st0">
	<circle class="st1" cx="250" cy="250" r="250"/>
</g>
<g id="Layer_2">
	<g>
		<path class="st2" d="M60.4,253.9l40.1,125.3c8.1,25.3,19.9,47.8,44.1,47.8h210.6c24.3,0,36-22.5,44.1-47.8l40.1-125.3H60.4z
			 M156.4,393.1c0,6.6-5.4,12-12,12h-15.6c-6.6,0-12-5.4-12-12V287.8c0-6.6,5.4-12,12-12h15.6c6.6,0,12,5.4,12,12V393.1z
			 M213.1,393.1c0,6.6-5.4,12-12,12h-15.6c-6.6,0-12-5.4-12-12V287.8c0-6.6,5.4-12,12-12h15.6c6.6,0,12,5.4,12,12V393.1z
			 M269.8,393.1c0,6.6-5.4,12-12,12h-15.6c-6.6,0-12-5.4-12-12V287.8c0-6.6,5.4-12,12-12h15.6c6.6,0,12,5.4,12,12V393.1z
			 M326.5,393.1c0,6.6-5.4,12-12,12h-15.6c-6.6,0-12-5.4-12-12V287.8c0-6.6,5.4-12,12-12h15.6c6.6,0,12,5.4,12,12V393.1z
			 M383.2,393.1c0,6.6-5.4,12-12,12h-7.8h-7.8c-6.6,0-12-5.4-12-12V287.8c0-6.6,5.4-12,12-12h15.6c6.6,0,12,5.4,12,12V393.1z"/>
		<path class="st2" d="M457.2,201.3h-95.2L290.8,79c-3.3-5.7-10.7-7.7-16.5-4.4l-19.9,11.6c-2.5,1.4-4.2,3.6-5.2,6.1
			c-0.9-2.5-2.7-4.7-5.2-6.1l-19.9-11.6c-5.7-3.3-13.1-1.4-16.5,4.4l-71.2,122.3H42.8c-6.6,0-12,5.4-12,12v16.1c0,6.6,5.4,12,12,12
			h414.3c6.6,0,12-5.4,12-12v-16.1C469.2,206.7,463.8,201.3,457.2,201.3z M248.4,102.7c0.3-0.6,0.6-1.1,0.8-1.7
			c0.2,0.6,0.5,1.2,0.8,1.7l57.4,98.6H191L248.4,102.7z"/>
	</g>
</g>
</svg>
