<?xml version="1.0" encoding="utf-8"?>
<!-- Generator: Adobe Illustrator 21.0.2, SVG Export Plug-In . SVG Version: 6.00 Build 0)  -->
<svg version="1.1" xmlns="http://www.w3.org/2000/svg" xmlns:xlink="http://www.w3.org/1999/xlink" x="0px" y="0px"
	 viewBox="0 0 500 500" style="enable-background:new 0 0 500 500;" xml:space="preserve">
<style type="text/css">
	.st0{display:none;}
	.st1{display:inline;}
	.st2{fill:#FFFFFF;}
</style>
<g id="Layer_1" class="st0">
	<circle class="st1" cx="250" cy="250" r="250"/>
</g>
<g id="Layer_2">
	<polygon class="st2" points="421,219 421,167.7 365,167.7 365,219 313.7,219 313.7,275 365,275 365,326.3 421,326.3 421,275 
		472.3,275 472.3,219 	"/>
	<g>
		<path class="st2" d="M415.8,277.7c16.6-16.6,26.8-37.2,30.5-58.7H421v-51.3h-56V219h-51.3v56H365v51.3h2.1l26.8-26.7L415.8,277.7z
			"/>
		<path class="st2" d="M439,167.7V201h9c0.1-15.2-2.9-30.3-9-44.5V167.7z"/>
		<path class="st2" d="M347,344.3v-18V293h-33.3h-18v-18v-56v-18h18H347v-33.3v-18h18h56h14.8c-5.1-9.8-11.7-19-20-27.3
			c-42.9-42.9-112.4-42.9-155.3,0l-13,13l-13-13c-42.9-42.9-112.4-42.9-155.3,0c-42.9,42.9-42.9,112.4,0,155.3l21.7,21.8l22,22
			l58.3,58.3l28.2,28.2l37.7,37.7l0.3-0.3l0.3,0.3l101.4-101.4H347z"/>
	</g>
</g>
</svg>
