<?xml version="1.0" encoding="utf-8"?>
<!-- Generator: Adobe Illustrator 21.0.2, SVG Export Plug-In . SVG Version: 6.00 Build 0)  -->
<svg version="1.1" xmlns="http://www.w3.org/2000/svg" xmlns:xlink="http://www.w3.org/1999/xlink" x="0px" y="0px"
	 viewBox="0 0 500 500" style="enable-background:new 0 0 500 500;" xml:space="preserve">
<style type="text/css">
	.st0{display:none;}
	.st1{display:inline;}
	.st2{fill:#FFFFFF;}
</style>
<g id="Layer_1" class="st0">
	<circle class="st1" cx="250" cy="250" r="250"/>
</g>
<g id="Layer_2">
	<g>
		<path class="st2" d="M150.3,312.2c-0.8,5.4-5.5,9.3-10.9,9.3h-16.5l58.3,58.3L164,224L150.3,312.2z"/>
		<path class="st2" d="M100.9,299.5H130l25-160.9c0.8-5.5,5.6-9.4,11.1-9.3c5.5,0.1,10.1,4.3,10.7,9.8l22.9,207.4L223.2,234
			c1.1-5.1,5.5-8.7,10.7-8.8c5.1-0.1,9.7,3.5,10.9,8.5l7.6,32.7l3.1-6c2.2-4.2,6.8-6.6,11.5-5.8c4.7,0.7,8.4,4.4,9.2,9.1l6.1,35.9
			h111.6l21.9-21.9c42.9-42.9,42.9-112.4,0-155.3c-42.9-42.9-112.4-42.9-155.3,0l-13,13l-13-13c-42.9-42.9-112.4-42.9-155.3,0
			c-42.9,42.9-42.9,112.4,0,155.3L100.9,299.5z"/>
		<path class="st2" d="M272.9,321.5c-5.4,0-10-3.9-10.9-9.2l-2.1-12.5l-1.7,3.2c-2.1,4.1-6.6,6.4-11.2,5.9c-4.6-0.6-8.3-3.9-9.4-8.4
			l-3.1-13.2L209.4,408l37.7,37.7l0.3-0.3l0.3,0.3l124.1-124.1H272.9z"/>
	</g>
</g>
</svg>
