<?xml version="1.0" encoding="utf-8"?>
<!-- Generator: Adobe Illustrator 21.0.2, SVG Export Plug-In . SVG Version: 6.00 Build 0)  -->
<svg version="1.1" xmlns="http://www.w3.org/2000/svg" xmlns:xlink="http://www.w3.org/1999/xlink" x="0px" y="0px"
	 viewBox="0 0 500 500" style="enable-background:new 0 0 500 500;" xml:space="preserve">
<style type="text/css">
	.st0{display:none;}
	.st1{display:inline;}
	.st2{opacity:0.7;fill:#FFFFFF;}
	.st3{fill:#FFFFFF;}
</style>
<g id="Layer_1" class="st0">
	<circle class="st1" cx="250" cy="250" r="250"/>
</g>
<g id="Layer_3">
	<g>
		<g>
			<polygon class="st2" points="66.2,179.4 90.2,150.2 126.2,123.6 163.3,103.3 221.7,81.4 285.3,88.7 319.2,106.9 355.7,152.3 
				363,169 367.7,199.2 364.6,230.5 360.4,254.5 342.1,270.7 306.7,265.5 300.9,221.7 293.1,171.1 260.3,150.2 221.7,150.7 
				173.2,165.9 140.3,193.5 110.1,214.4 			"/>
			<path class="st3" d="M296.4,85.6c-68.5-25.4-123.1-3.3-185.1,39S28.1,237.8,19.6,273.4c-8.5,35.6,19.8,93.2,36.9,98
				c17.1,4.8,23-8.6,27.7-23.5c4.7-14.9,16.3-34.3,40.3-27.2c26,7.7,23,25.8,25.7,50.2c2.7,24.4,18.5,59.4,73.5,34.1
				s113.7-76.3,138.9-142.2C387.6,196.9,364.9,111,296.4,85.6z M105.9,200c-13.1,0-23.7-10.6-23.7-23.7c0-13.1,10.6-23.7,23.7-23.7
				s23.7,10.6,23.7,23.7C129.6,189.4,119,200,105.9,200z M159.6,159.9c-13.1,0-23.7-10.6-23.7-23.7c0-13.1,10.6-23.7,23.7-23.7
				c13.1,0,23.7,10.6,23.7,23.7C183.3,149.2,172.7,159.9,159.6,159.9z M217.2,298.4c-11.3,10.4-26.3,12.4-33.5,4.5s-3.9-22.6,7.4-33
				c11.3-10.4,26.3-12.4,33.5-4.5C231.8,273.3,228.5,288.1,217.2,298.4z M225.8,136.1c-13.1,0-23.7-10.6-23.7-23.7
				c0-13.1,10.6-23.7,23.7-23.7c13.1,0,23.7,10.6,23.7,23.7C249.6,125.5,238.9,136.1,225.8,136.1z M292.6,148.1
				c-13.1,0-23.7-10.6-23.7-23.7c0-13.1,10.6-23.7,23.7-23.7c13.1,0,23.7,10.6,23.7,23.7C316.3,137.5,305.7,148.1,292.6,148.1z
				 M334.8,260.3c-13.1,0-23.7-10.6-23.7-23.7c0-13.1,10.6-23.7,23.7-23.7s23.7,10.6,23.7,23.7C358.6,249.6,347.9,260.3,334.8,260.3
				z M334.8,195.6c-13.1,0-23.7-10.6-23.7-23.7c0-13.1,10.6-23.7,23.7-23.7s23.7,10.6,23.7,23.7C358.6,185,347.9,195.6,334.8,195.6z
				"/>
		</g>
		<path class="st3" d="M457.7,116.3c0,0-30.6-4.6-51.9,30.3c-16.3,26.6-8.3,41.6-3.6,47.2c-10.2,18.6-24.4,58.8-36.9,106.2
			c-17.6,67-25.2,123-16.9,125.2c8.3,2.2,29.4-50.3,47-117.3c12.6-48,20.1-90.3,20.3-111.3c3.2-0.7,6.8-2.2,10.4-5
			c10.5-8.4,12.4-18.9,14-41.6S457.7,116.3,457.7,116.3z"/>
	</g>
</g>
</svg>
