<?xml version="1.0" encoding="utf-8"?>
<!-- Generator: Adobe Illustrator 21.0.2, SVG Export Plug-In . SVG Version: 6.00 Build 0)  -->
<svg version="1.1" xmlns="http://www.w3.org/2000/svg" xmlns:xlink="http://www.w3.org/1999/xlink" x="0px" y="0px"
	 viewBox="0 0 500 500" style="enable-background:new 0 0 500 500;" xml:space="preserve">
<style type="text/css">
	.st0{display:none;}
	.st1{display:inline;}
	.st2{fill:#FFFFFF;}
</style>
<g id="Layer_1" class="st0">
	<circle class="st1" cx="250" cy="250" r="250"/>
</g>
<g id="Layer_2">
	<g id="Layer_2_1_">
		<g>
			<path class="st2" d="M332.5,251.2L207.9,126.5l-9.5-9.5c-2.9-2.9-7.8-2.9-10.8,0l-9.5,9.5L53.6,251.2c-2.9,2.9-2.9,7.8,0,10.8
				l9.5,9.5c2.9,2.9,7.8,2.9,10.8,0l119.2-119.3l119.3,119.3c2.9,2.9,7.8,2.9,10.8,0l9.5-9.5C335.6,259,335.6,254.2,332.5,251.2z"/>
			<path class="st2" d="M293.3,276.8c0-2-0.7-3.9-2.2-5.4l-79.2-79.3l-13.3-13.3c-2.9-2.9-7.8-2.9-10.8,0l-13.5,13.3l0,0l-79.2,79.2
				c-1.5,1.5-2.2,3.4-2.2,5.4l0,0v15.7v16.1v47.9c0,4.2,3.4,7.6,7.6,7.6H151c4.2,0,7.6-3.4,7.6-7.6V295v-2.5v-11.2
				c0-4.2,3.4-7.6,7.6-7.6h53.6c4.2,0,7.6,3.4,7.6,7.6v11.3v2.5v61.4c0,4.2,3.4,7.6,7.6,7.6h50.5c4.2,0,7.6-3.4,7.6-7.6v-53.9v-10.2
				v-15.6H293.3z"/>
			<path class="st2" d="M286.5,183.9v-61.4c0-4.2-3.4-7.6-7.6-7.6h-15.7c-4.2,0-7.6,3.4-7.6,7.6v30.4L286.5,183.9z"/>
		</g>
	</g>
	<path class="st2" d="M438,232.4c-3.5-10.7-14.9-16.5-25.6-13c-0.3,0.1-0.5,0.2-0.8,0.3c0-0.3,0-0.5,0-0.8
		c0-11.2-9.1-20.3-20.3-20.3c-11.2,0-20.3,9.1-20.3,20.3c0,0.3,0,0.5,0,0.8c-0.2-0.1-0.5-0.2-0.8-0.3c-10.7-3.5-22.1,2.4-25.6,13
		c-3.5,10.7,2.4,22.1,13,25.6c0.3,0.1,0.5,0.2,0.8,0.2c-0.2,0.2-0.3,0.4-0.5,0.6c-6.6,9.1-4.6,21.8,4.5,28.4
		c6.2,4.5,14.2,5,20.7,1.9v66.8c0,4.5,3.7,8.2,8.2,8.2c4.5,0,8.2-3.7,8.2-8.2v-66.8c6.5,3.1,14.4,2.6,20.7-1.9
		c9.1-6.6,11.1-19.3,4.5-28.4c-0.2-0.2-0.3-0.4-0.5-0.6c0.3-0.1,0.5-0.1,0.8-0.2C435.6,254.5,441.5,243,438,232.4z M391.4,265.3
		c-9.8,0-17.7-7.9-17.7-17.7c0-9.8,7.9-17.7,17.7-17.7c9.8,0,17.7,7.9,17.7,17.7C409.1,257.3,401.2,265.3,391.4,265.3z"/>
	<path class="st2" d="M431.7,395H70.5c-6.6,0-12-5.4-12-12v-15.6c0-6.6,5.4-12,12-12h361.1c6.6,0,12,5.4,12,12V383
		C443.7,389.6,438.3,395,431.7,395z"/>
</g>
</svg>
