<?xml version="1.0" encoding="utf-8"?>
<!-- Generator: Adobe Illustrator 21.0.2, SVG Export Plug-In . SVG Version: 6.00 Build 0)  -->
<svg version="1.1" xmlns="http://www.w3.org/2000/svg" xmlns:xlink="http://www.w3.org/1999/xlink" x="0px" y="0px"
	 viewBox="0 0 500 500" style="enable-background:new 0 0 500 500;" xml:space="preserve">
<style type="text/css">
	.st0{display:none;}
	.st1{display:inline;}
	.st2{fill:#FFFFFF;}
</style>
<g id="Layer_1" class="st0">
	<circle class="st1" cx="250" cy="250" r="250"/>
</g>
<g id="Layer_2">
	<g id="Layer_2_1_">
		<g>
			<path class="st2" d="M382.3,345.6L264.1,227.4l-9-9c-2.8-2.8-7.4-2.8-10.2,0l-9,9L117.8,345.6c-2.8,2.8-2.8,7.4,0,10.2l9,9
				c2.8,2.8,7.4,2.8,10.2,0L250,251.7l113.1,113.1c2.8,2.8,7.4,2.8,10.2,0l9-9C385.1,353,385.1,348.4,382.3,345.6z"/>
			<path class="st2" d="M345,369.9c0-1.9-0.7-3.7-2.1-5.1l-75.1-75.2L255.2,277c-2.8-2.8-7.4-2.8-10.2,0l-12.8,12.6l0,0l-75.1,75.1
				c-1.4,1.4-2.1,3.3-2.1,5.1l0,0v14.9V400v45.4c0,3.9,3.3,7.2,7.2,7.2h47.9c3.9,0,7.2-3.3,7.2-7.2v-58.3v-2.4v-10.6
				c0-3.9,3.3-7.2,7.2-7.2h50.8c3.9,0,7.2,3.3,7.2,7.2v10.7v2.4v58.3c0,3.9,3.3,7.2,7.2,7.2h47.9c3.9,0,7.2-3.3,7.2-7.2v-51.1v-9.7
				v-14.8H345z"/>
			<path class="st2" d="M338.6,281.8v-58.3c0-3.9-3.3-7.2-7.2-7.2h-14.9c-3.9,0-7.2,3.3-7.2,7.2v28.9L338.6,281.8z"/>
		</g>
	</g>
	<path class="st2" d="M265.9,46.3L265.9,46.3L250,9.1l-16,37.2h0.1C123.1,53.2,60.7,131.1,60.7,190c0,6,0.3,11.9,1,17.8
		c17.1-5.9,35.4-9.2,54.6-9.2c18.9,0,35.1,7.1,52,12.9c24.2-13.7,52.1-21.5,81.8-21.5s57.6,7.8,81.8,21.5l0,0
		c16.9-5.8,33.1-12.9,52-12.9c19.1,0,37.5,3.2,54.6,9.2c0.6-5.8,1-11.8,1-17.8C439.4,131.1,376.9,53.1,265.9,46.3z"/>
</g>
</svg>
