<?xml version="1.0" encoding="UTF-8" standalone="no"?>
<!DOCTYPE svg PUBLIC "-//W3C//DTD SVG 1.1//EN" "http://www.w3.org/Graphics/SVG/1.1/DTD/svg11.dtd">
<svg version="1.1" xmlns="http://www.w3.org/2000/svg" xmlns:xlink="http://www.w3.org/1999/xlink" preserveAspectRatio="xMidYMid meet" viewBox="0 0 12 20" width="12" height="20"><defs><path d="M5 2.5C5 3.88 3.88 5 2.5 5C1.12 5 0 3.88 0 2.5C0 1.12 1.12 0 2.5 0C3.88 0 5 1.12 5 2.5Z" id="fLUczcNA0"></path><path d="M12 2.5C12 3.88 10.88 5 9.5 5C8.12 5 7 3.88 7 2.5C7 1.12 8.12 0 9.5 0C10.88 0 12 1.12 12 2.5Z" id="a4jTph5TnK"></path><path d="M5 17.5C5 18.88 3.88 20 2.5 20C1.12 20 0 18.88 0 17.5C0 16.12 1.12 15 2.5 15C3.88 15 5 16.12 5 17.5Z" id="i1llD6zMAU"></path><path d="M12 17.5C12 18.88 10.88 20 9.5 20C8.12 20 7 18.88 7 17.5C7 16.12 8.12 15 9.5 15C10.88 15 12 16.12 12 17.5Z" id="h14hEVd5zN"></path><path d="M5 10C5 11.38 3.88 12.5 2.5 12.5C1.12 12.5 0 11.38 0 10C0 8.62 1.12 7.5 2.5 7.5C3.88 7.5 5 8.62 5 10Z" id="ct305MnOg"></path><path d="M12 10C12 11.38 10.88 12.5 9.5 12.5C8.12 12.5 7 11.38 7 10C7 8.62 8.12 7.5 9.5 7.5C10.88 7.5 12 8.62 12 10Z" id="h2R9cweiMf"></path><path d="M5 2.5C5 3.88 3.88 5 2.5 5C1.12 5 0 3.88 0 2.5C0 1.12 1.12 0 2.5 0C3.88 0 5 1.12 5 2.5Z" id="a1oMyNXT09"></path><path d="M12 2.5C12 3.88 10.88 5 9.5 5C8.12 5 7 3.88 7 2.5C7 1.12 8.12 0 9.5 0C10.88 0 12 1.12 12 2.5Z" id="dSPuDsYYI"></path><path d="M5 17.5C5 18.88 3.88 20 2.5 20C1.12 20 0 18.88 0 17.5C0 16.12 1.12 15 2.5 15C3.88 15 5 16.12 5 17.5Z" id="a2pwUKVlL"></path><path d="M12 17.5C12 18.88 10.88 20 9.5 20C8.12 20 7 18.88 7 17.5C7 16.12 8.12 15 9.5 15C10.88 15 12 16.12 12 17.5Z" id="brIteeKR3"></path><path d="M5 10C5 11.38 3.88 12.5 2.5 12.5C1.12 12.5 0 11.38 0 10C0 8.62 1.12 7.5 2.5 7.5C3.88 7.5 5 8.62 5 10Z" id="ikKvKs2EE"></path><path d="M12 10C12 11.38 10.88 12.5 9.5 12.5C8.12 12.5 7 11.38 7 10C7 8.62 8.12 7.5 9.5 7.5C10.88 7.5 12 8.62 12 10Z" id="d1730uMtFm"></path></defs><g><g><g><use xlink:href="#fLUczcNA0" opacity="1" fill="#ffffff" fill-opacity="1"></use></g><g><use xlink:href="#a4jTph5TnK" opacity="1" fill="#ffffff" fill-opacity="1"></use></g><g><use xlink:href="#i1llD6zMAU" opacity="1" fill="#ffffff" fill-opacity="1"></use></g><g><use xlink:href="#h14hEVd5zN" opacity="1" fill="#ffffff" fill-opacity="1"></use></g><g><use xlink:href="#ct305MnOg" opacity="1" fill="#ffffff" fill-opacity="1"></use></g><g><use xlink:href="#h2R9cweiMf" opacity="1" fill="#ffffff" fill-opacity="1"></use></g><g><use xlink:href="#a1oMyNXT09" opacity="1" fill="#ffffff" fill-opacity="1"></use></g><g><use xlink:href="#dSPuDsYYI" opacity="1" fill="#ffffff" fill-opacity="1"></use></g><g><use xlink:href="#a2pwUKVlL" opacity="1" fill="#ffffff" fill-opacity="1"></use></g><g><use xlink:href="#brIteeKR3" opacity="1" fill="#ffffff" fill-opacity="1"></use></g><g><use xlink:href="#ikKvKs2EE" opacity="1" fill="#ffffff" fill-opacity="1"></use></g><g><use xlink:href="#d1730uMtFm" opacity="1" fill="#ffffff" fill-opacity="1"></use></g></g></g></svg>