<?xml version="1.0" encoding="utf-8"?>
<!-- Generator: Adobe Illustrator 21.0.2, SVG Export Plug-In . SVG Version: 6.00 Build 0)  -->
<svg version="1.1" xmlns="http://www.w3.org/2000/svg" xmlns:xlink="http://www.w3.org/1999/xlink" x="0px" y="0px"
	 viewBox="0 0 500 500" style="enable-background:new 0 0 500 500;" xml:space="preserve">
<style type="text/css">
	.st0{display:none;}
	.st1{display:inline;}
	.st2{fill:#FFFFFF;}
</style>
<g id="Layer_1" class="st0">
	<circle class="st1" cx="250" cy="250" r="250"/>
</g>
<g id="Layer_2">
	<g>
		<path class="st2" d="M420.9,251.2L268.2,98.4l-11.6-11.6c-3.6-3.6-9.6-3.6-13.2,0l-11.6,11.6L79.1,251.2c-3.6,3.6-3.6,9.6,0,13.2
			l11.6,11.6c3.6,3.6,9.6,3.6,13.2,0L250,129.8l146.2,146.2c3.6,3.6,9.6,3.6,13.2,0l11.6-11.6C424.6,260.7,424.6,254.8,420.9,251.2z
			"/>
		<path class="st2" d="M372.8,282.6c0-2.4-0.9-4.8-2.7-6.6L273,178.8l-16.3-16.3c-3.6-3.6-9.6-3.6-13.2,0L227,178.8c0,0,0,0,0,0
			l-97.1,97.1c-1.8,1.8-2.7,4.2-2.7,6.6l0,0v19.2v19.7v58.7c0,5.1,4.2,9.3,9.3,9.3h61.9c5.1,0,9.3-4.2,9.3-9.3v-75.3v-3.1V288
			c0-5.1,4.2-9.3,9.3-9.3h65.7c5.1,0,9.3,4.2,9.3,9.3v13.8v3.1v75.3c0,5.1,4.2,9.3,9.3,9.3h61.9c5.1,0,9.3-4.2,9.3-9.3v-66v-12.5
			V282.6L372.8,282.6z"/>
		<path class="st2" d="M364.5,168.7V93.4c0-5.1-4.2-9.3-9.3-9.3h-19.2c-5.1,0-9.3,4.2-9.3,9.3v37.3L364.5,168.7z"/>
	</g>
</g>
</svg>
