<?xml version="1.0" encoding="utf-8"?>
<!-- Generator: Adobe Illustrator 21.0.2, SVG Export Plug-In . SVG Version: 6.00 Build 0)  -->
<svg version="1.1" xmlns="http://www.w3.org/2000/svg" xmlns:xlink="http://www.w3.org/1999/xlink" x="0px" y="0px"
	 viewBox="0 0 500 500" style="enable-background:new 0 0 500 500;" xml:space="preserve">
<style type="text/css">
	.st0{display:none;}
	.st1{display:inline;}
	.st2{fill:#FFFFFF;}
</style>
<g id="Layer_1" class="st0">
	<circle class="st1" cx="250" cy="250" r="250"/>
</g>
<g id="Layer_2">
	<g>
		<ellipse class="st2" cx="226.6" cy="65.3" rx="73.3" ry="34.5"/>
	</g>
	<g>
		<g>
			<path class="st2" d="M283.3,395.7c-15.3,7.2-35.5,11.2-56.7,11.2c-21.2,0-41.4-4-56.7-11.2c-6.6-3.1-12-6.7-16.4-10.6
				c-0.2,0.9-0.3,1.9-0.3,2.8c0,19,32.8,34.5,73.3,34.5s73.3-15.4,73.3-34.5c0-1-0.1-1.9-0.3-2.8C295.3,389,289.8,392.6,283.3,395.7
				z"/>
		</g>
	</g>
	<g>
		<g>
			<path class="st2" d="M283.3,368.8c-15.3,7.2-35.5,11.2-56.7,11.2c-21.2,0-41.4-4-56.7-11.2c-6.6-3.1-12-6.7-16.4-10.6
				c-0.2,0.9-0.3,1.9-0.3,2.8c0,19,32.8,34.5,73.3,34.5s73.3-15.4,73.3-34.5c0-1-0.1-1.9-0.3-2.8
				C295.3,362.1,289.8,365.7,283.3,368.8z"/>
		</g>
	</g>
	<g>
		<g>
			<path class="st2" d="M283.3,341.9c-15.3,7.2-35.5,11.2-56.7,11.2c-21.2,0-41.4-4-56.7-11.2c-6.6-3.1-12-6.7-16.4-10.6
				c-0.2,0.9-0.3,1.9-0.3,2.8c0,19,32.8,34.5,73.3,34.5s73.3-15.4,73.3-34.5c0-1-0.1-1.9-0.3-2.8
				C295.3,335.2,289.8,338.8,283.3,341.9z"/>
		</g>
	</g>
	<g>
		<g>
			<path class="st2" d="M283.3,315c-15.3,7.2-35.5,11.2-56.7,11.2c-21.2,0-41.4-4-56.7-11.2c-6.6-3.1-12-6.7-16.4-10.6
				c-0.2,0.9-0.3,1.9-0.3,2.8c0,19,32.8,34.5,73.3,34.5s73.3-15.4,73.3-34.5c0-1-0.1-1.9-0.3-2.8C295.3,308.4,289.8,311.9,283.3,315
				z"/>
		</g>
	</g>
	<g>
		<g>
			<path class="st2" d="M283.3,288.2c-15.3,7.2-35.5,11.2-56.7,11.2c-21.2,0-41.4-4-56.7-11.2c-6.6-3.1-12-6.7-16.4-10.6
				c-0.2,0.9-0.3,1.9-0.3,2.8c0,19,32.8,34.5,73.3,34.5s73.3-15.4,73.3-34.5c0-1-0.1-1.9-0.3-2.8
				C295.3,281.5,289.8,285.1,283.3,288.2z"/>
		</g>
	</g>
	<g>
		<g>
			<path class="st2" d="M283.3,261.3c-15.3,7.2-35.5,11.2-56.7,11.2c-21.2,0-41.4-4-56.7-11.2c-6.6-3.1-12-6.7-16.4-10.6
				c-0.2,0.9-0.3,1.9-0.3,2.8c0,19,32.8,34.5,73.3,34.5s73.3-15.4,73.3-34.5c0-1-0.1-1.9-0.3-2.8
				C295.3,254.6,289.8,258.2,283.3,261.3z"/>
		</g>
	</g>
	<g>
		<g>
			<path class="st2" d="M283.3,234.4c-15.3,7.2-35.5,11.2-56.7,11.2c-21.2,0-41.4-4-56.7-11.2c-6.6-3.1-12-6.7-16.4-10.6
				c-0.2,0.9-0.3,1.9-0.3,2.8c0,19,32.8,34.5,73.3,34.5s73.3-15.4,73.3-34.5c0-1-0.1-1.9-0.3-2.8
				C295.3,227.7,289.8,231.3,283.3,234.4z"/>
		</g>
	</g>
	<g>
		<g>
			<path class="st2" d="M283.3,207.5c-15.3,7.2-35.5,11.2-56.7,11.2c-21.2,0-41.4-4-56.7-11.2c-6.6-3.1-12-6.7-16.4-10.6
				c-0.2,0.9-0.3,1.9-0.3,2.8c0,19,32.8,34.5,73.3,34.5s73.3-15.4,73.3-34.5c0-1-0.1-1.9-0.3-2.8
				C295.3,200.8,289.8,204.4,283.3,207.5z"/>
		</g>
	</g>
	<g>
		<g>
			<path class="st2" d="M283.3,180.6c-15.3,7.2-35.5,11.2-56.7,11.2c-21.2,0-41.4-4-56.7-11.2c-6.6-3.1-12-6.7-16.4-10.6
				c-0.2,0.9-0.3,1.9-0.3,2.8c0,19,32.8,34.5,73.3,34.5s73.3-15.4,73.3-34.5c0-1-0.1-1.9-0.3-2.8C295.3,174,289.8,177.6,283.3,180.6
				z"/>
		</g>
	</g>
	<g>
		<g>
			<path class="st2" d="M283.3,153.8c-15.3,7.2-35.5,11.2-56.7,11.2c-21.2,0-41.4-4-56.7-11.2c-6.6-3.1-12-6.7-16.4-10.6
				c-0.2,0.9-0.3,1.9-0.3,2.8c0,19,32.8,34.5,73.3,34.5s73.3-15.4,73.3-34.5c0-1-0.1-1.9-0.3-2.8
				C295.3,147.1,289.8,150.7,283.3,153.8z"/>
		</g>
	</g>
	<g>
		<g>
			<path class="st2" d="M283.3,126.9c-15.3,7.2-35.5,11.2-56.7,11.2c-21.2,0-41.4-4-56.7-11.2c-6.6-3.1-12-6.7-16.4-10.6
				c-0.2,0.9-0.3,1.9-0.3,2.8c0,19,32.8,34.5,73.3,34.5s73.3-15.4,73.3-34.5c0-1-0.1-1.9-0.3-2.8
				C295.3,120.2,289.8,123.8,283.3,126.9z"/>
		</g>
	</g>
	<g>
		<g>
			<path class="st2" d="M283.3,100c-15.3,7.2-35.5,11.2-56.7,11.2c-21.2,0-41.4-4-56.7-11.2c-6.6-3.1-12-6.7-16.4-10.6
				c-0.2,0.9-0.3,1.9-0.3,2.8c0,19,32.8,34.5,73.3,34.5s73.3-15.4,73.3-34.5c0-1-0.1-1.9-0.3-2.8C295.3,93.3,289.8,96.9,283.3,100z"
				/>
		</g>
	</g>
	<g>
		<ellipse class="st2" cx="382.6" cy="115" rx="73.3" ry="34.5"/>
	</g>
	<g>
		<g>
			<path class="st2" d="M439.3,364.7c-15.3,7.2-35.5,11.2-56.7,11.2c-21.2,0-41.4-4-56.7-11.2c-6.6-3.1-12-6.7-16.4-10.6
				c-0.2,0.9-0.3,1.9-0.3,2.8c0,19,32.8,34.5,73.3,34.5s73.3-15.4,73.3-34.5c0-1-0.1-1.9-0.3-2.8C451.3,358,445.8,361.6,439.3,364.7
				z"/>
		</g>
	</g>
	<g>
		<g>
			<path class="st2" d="M439.3,337.8c-15.3,7.2-35.5,11.2-56.7,11.2c-21.2,0-41.4-4-56.7-11.2c-6.6-3.1-12-6.7-16.4-10.6
				c-0.2,0.9-0.3,1.9-0.3,2.8c0,19,32.8,34.5,73.3,34.5s73.3-15.4,73.3-34.5c0-1-0.1-1.9-0.3-2.8
				C451.3,331.2,445.8,334.7,439.3,337.8z"/>
		</g>
	</g>
	<g>
		<g>
			<path class="st2" d="M439.3,310.9c-15.3,7.2-35.5,11.2-56.7,11.2c-21.2,0-41.4-4-56.7-11.2c-6.6-3.1-12-6.7-16.4-10.6
				c-0.2,0.9-0.3,1.9-0.3,2.8c0,19,32.8,34.5,73.3,34.5s73.3-15.4,73.3-34.5c0-1-0.1-1.9-0.3-2.8
				C451.3,304.3,445.8,307.9,439.3,310.9z"/>
		</g>
	</g>
	<g>
		<g>
			<path class="st2" d="M439.3,284.1c-15.3,7.2-35.5,11.2-56.7,11.2c-21.2,0-41.4-4-56.7-11.2c-6.6-3.1-12-6.7-16.4-10.6
				c-0.2,0.9-0.3,1.9-0.3,2.8c0,19,32.8,34.5,73.3,34.5s73.3-15.4,73.3-34.5c0-1-0.1-1.9-0.3-2.8C451.3,277.4,445.8,281,439.3,284.1
				z"/>
		</g>
	</g>
	<g>
		<g>
			<path class="st2" d="M439.3,257.2c-15.3,7.2-35.5,11.2-56.7,11.2c-21.2,0-41.4-4-56.7-11.2c-6.6-3.1-12-6.7-16.4-10.6
				c-0.2,0.9-0.3,1.9-0.3,2.8c0,19,32.8,34.5,73.3,34.5s73.3-15.4,73.3-34.5c0-1-0.1-1.9-0.3-2.8
				C451.3,250.5,445.8,254.1,439.3,257.2z"/>
		</g>
	</g>
	<g>
		<g>
			<path class="st2" d="M439.3,230.3c-15.3,7.2-35.5,11.2-56.7,11.2c-21.2,0-41.4-4-56.7-11.2c-6.6-3.1-12-6.7-16.4-10.6
				c-0.2,0.9-0.3,1.9-0.3,2.8c0,19,32.8,34.5,73.3,34.5s73.3-15.4,73.3-34.5c0-1-0.1-1.9-0.3-2.8
				C451.3,223.6,445.8,227.2,439.3,230.3z"/>
		</g>
	</g>
	<g>
		<g>
			<path class="st2" d="M439.3,203.4c-15.3,7.2-35.5,11.2-56.7,11.2c-21.2,0-41.4-4-56.7-11.2c-6.6-3.1-12-6.7-16.4-10.6
				c-0.2,0.9-0.3,1.9-0.3,2.8c0,19,32.8,34.5,73.3,34.5s73.3-15.4,73.3-34.5c0-1-0.1-1.9-0.3-2.8
				C451.3,196.8,445.8,200.3,439.3,203.4z"/>
		</g>
	</g>
	<g>
		<g>
			<path class="st2" d="M439.3,176.5c-15.3,7.2-35.5,11.2-56.7,11.2c-21.2,0-41.4-4-56.7-11.2c-6.6-3.1-12-6.7-16.4-10.6
				c-0.2,0.9-0.3,1.9-0.3,2.8c0,19,32.8,34.5,73.3,34.5s73.3-15.4,73.3-34.5c0-1-0.1-1.9-0.3-2.8
				C451.3,169.9,445.8,173.5,439.3,176.5z"/>
		</g>
	</g>
	<g>
		<g>
			<path class="st2" d="M439.3,149.7c-15.3,7.2-35.5,11.2-56.7,11.2c-21.2,0-41.4-4-56.7-11.2c-6.6-3.1-12-6.7-16.4-10.6
				c-0.2,0.9-0.3,1.9-0.3,2.8c0,19,32.8,34.5,73.3,34.5s73.3-15.4,73.3-34.5c0-1-0.1-1.9-0.3-2.8C451.3,143,445.8,146.6,439.3,149.7
				z"/>
		</g>
	</g>
	<g>
		<path class="st2" d="M117.4,276.3c13,0,25.2-1.6,35.8-4.4v-15.1c-11,2.6-23.2,4-35.8,4c-21.2,0-41.4-4-56.7-11.2
			c-6.6-3.1-12-6.7-16.4-10.6c-0.2,0.9-0.3,1.9-0.3,2.8C44.1,260.8,76.9,276.3,117.4,276.3z"/>
		<path class="st2" d="M117.4,249.4c13,0,25.2-1.6,35.8-4.4v-15.1c-11,2.6-23.2,4-35.8,4c-21.2,0-41.4-4-56.7-11.2
			c-6.6-3.1-12-6.7-16.4-10.6c-0.2,0.9-0.3,1.9-0.3,2.8C44.1,233.9,76.9,249.4,117.4,249.4z"/>
		<path class="st2" d="M117.4,195.6c13,0,25.2-1.6,35.8-4.4v-60.2c-10.6-2.8-22.8-4.4-35.8-4.4c-40.5,0-73.3,15.4-73.3,34.5
			C44.1,180.2,76.9,195.6,117.4,195.6z"/>
		<path class="st2" d="M117.4,222.5c13,0,25.2-1.6,35.8-4.4V203c-11,2.6-23.2,4-35.8,4c-21.2,0-41.4-4-56.7-11.2
			c-6.6-3.1-12-6.7-16.4-10.6c-0.2,0.9-0.3,1.9-0.3,2.8C44.1,207.1,76.9,222.5,117.4,222.5z"/>
		<path class="st2" d="M117.4,356.9c13,0,25.2-1.6,35.8-4.4v-15.1c-11,2.6-23.2,4-35.8,4c-21.2,0-41.4-4-56.7-11.2
			c-6.6-3.1-12-6.7-16.4-10.6c-0.2,0.9-0.3,1.9-0.3,2.8C44.1,341.5,76.9,356.9,117.4,356.9z"/>
		<path class="st2" d="M153.2,364.2c-11,2.6-23.2,4-35.8,4c-21.2,0-41.4-4-56.7-11.2c-6.6-3.1-12-6.7-16.4-10.6
			c-0.2,0.9-0.3,1.9-0.3,2.8c0,19,32.8,34.5,73.3,34.5c13,0,25.2-1.6,35.8-4.4V364.2z"/>
		<path class="st2" d="M117.4,330c13,0,25.2-1.6,35.8-4.4v-15.1c-11,2.6-23.2,4-35.8,4c-21.2,0-41.4-4-56.7-11.2
			c-6.6-3.1-12-6.7-16.4-10.6c-0.2,0.9-0.3,1.9-0.3,2.8C44.1,314.6,76.9,330,117.4,330z"/>
		<path class="st2" d="M117.4,303.1c13,0,25.2-1.6,35.8-4.4v-15.1c-11,2.6-23.2,4-35.8,4c-21.2,0-41.4-4-56.7-11.2
			c-6.6-3.1-12-6.7-16.4-10.6c-0.2,0.9-0.3,1.9-0.3,2.8C44.1,287.7,76.9,303.1,117.4,303.1z"/>
	</g>
</g>
</svg>
