<?xml version="1.0" encoding="utf-8"?>
<!-- Generator: Adobe Illustrator 21.0.2, SVG Export Plug-In . SVG Version: 6.00 Build 0)  -->
<svg version="1.1" xmlns="http://www.w3.org/2000/svg" xmlns:xlink="http://www.w3.org/1999/xlink" x="0px" y="0px"
	 viewBox="0 0 500 500" style="enable-background:new 0 0 500 500;" xml:space="preserve">
<style type="text/css">
	.st0{display:none;}
	.st1{display:inline;}
	.st2{fill:#FFFFFF;}
</style>
<g id="Layer_1" class="st0">
	<circle class="st1" cx="250" cy="250" r="250"/>
</g>
<g id="Layer_2">
	<path class="st2" d="M265.9,46.3L265.9,46.3L250,9.1l-16,37.2h0.1C123.1,53.2,60.7,131.1,60.7,190c0,6,0.3,11.9,1,17.8
		c17.1-5.9,35.4-9.2,54.6-9.2c18.9,0,35.1,7.1,52,12.9c24.2-13.7,52.1-21.5,81.8-21.5s57.6,7.8,81.8,21.5l0,0
		c16.9-5.8,33.1-12.9,52-12.9c19.1,0,37.5,3.2,54.6,9.2c0.6-5.8,1-11.8,1-17.8C439.4,131.1,376.9,53.1,265.9,46.3z"/>
	<rect x="158.5" y="250" class="st2" width="183.1" height="183.1"/>
</g>
</svg>
