<?xml version="1.0" encoding="utf-8"?>
<!-- Generator: Adobe Illustrator 21.0.2, SVG Export Plug-In . SVG Version: 6.00 Build 0)  -->
<svg version="1.1" xmlns="http://www.w3.org/2000/svg" xmlns:xlink="http://www.w3.org/1999/xlink" x="0px" y="0px"
	 viewBox="0 0 500 500" style="enable-background:new 0 0 500 500;" xml:space="preserve">
<style type="text/css">
	.st0{display:none;}
	.st1{display:inline;}
	.st2{fill:#FFFFFF;}
</style>
<g id="Layer_1" class="st0">
	<circle class="st1" cx="250" cy="250" r="250"/>
</g>
<g id="Layer_2">
	<g>
		<path class="st2" d="M261.7,75v77.6c20-0.7,39.2-3,57-6.8C305.1,108.3,284.7,81.8,261.7,75z"/>
		<path class="st2" d="M312,84.6c6.2,7.8,11.9,16.7,17.1,26.9c4.6,8.9,8.6,18.4,12.2,28.5c12.7-3.8,24.5-8.4,34.9-13.6
			C358.4,108.2,336.5,93.8,312,84.6z"/>
		<path class="st2" d="M238.3,152.5V75c-23,6.8-43.4,33.4-57,70.8C199.2,149.5,218.4,151.9,238.3,152.5z"/>
		<path class="st2" d="M170.8,111.5c5.2-10.2,11-19.2,17.1-26.9c-24.4,9.2-46.3,23.6-64.3,41.8c10.4,5.2,22.2,9.8,34.9,13.6
			C162.2,129.9,166.2,120.4,170.8,111.5z"/>
		<path class="st2" d="M426.5,238.7c-2.3-35.1-14.8-67.5-34.6-94c-1,0.6-2,1.1-3.1,1.6c-12.3,6.4-26,11.8-40.6,16.1
			c6.1,23.6,9.8,49.4,10.6,76.2H426.5z"/>
		<path class="st2" d="M335.5,238.7c-0.8-25.1-4.3-49-9.9-70.4c-20.2,4.4-41.7,7-63.9,7.6v62.8H335.5z"/>
		<path class="st2" d="M238.3,238.7v-62.8c-22.2-0.7-43.7-3.3-63.9-7.6c-5.6,21.4-9.1,45.3-9.9,70.4H238.3z"/>
		<path class="st2" d="M141.2,238.7c0.8-26.8,4.4-52.6,10.6-76.2c-14.6-4.4-28.3-9.8-40.6-16.1c-1-0.5-2.1-1.1-3.1-1.6
			c-19.8,26.6-32.4,58.9-34.6,94H141.2z"/>
		<g>
			<path class="st2" d="M111.2,354.4c12.3-6.4,26-11.8,40.6-16.2c-6.2-23.6-9.8-49.5-10.6-76.3H73.5c2.3,35.1,14.8,67.5,34.7,94.1
				C109.2,355.5,110.2,355,111.2,354.4z"/>
			<path class="st2" d="M188,416c-6.2-7.8-11.9-16.8-17.1-26.9c-4.6-8.8-8.6-18.4-12.2-28.5c-12.7,3.8-24.5,8.4-34.9,13.6
				C141.7,392.5,163.5,406.9,188,416z"/>
		</g>
		<g>
			<path class="st2" d="M238.3,348.1c-20,0.7-39.2,3-56.9,6.7c13.5,37.4,33.9,64,56.9,70.8V348.1z"/>
			<path class="st2" d="M238.3,324.8V262h-73.8c0.8,25.1,4.4,49,9.9,70.5C194.6,328.1,216.1,325.5,238.3,324.8z"/>
		</g>
		<g>
			<path class="st2" d="M318.6,354.9c-17.8-3.7-37-6.1-56.9-6.7v77.5C284.7,418.9,305.1,392.3,318.6,354.9z"/>
			<path class="st2" d="M325.5,332.4c5.6-21.4,9.1-45.3,9.9-70.5h-73.8v62.8C283.9,325.5,305.4,328.1,325.5,332.4z"/>
		</g>
		<g>
			<path class="st2" d="M376.3,374.2c-10.4-5.2-22.1-9.7-34.9-13.6c-3.6,10.1-7.6,19.6-12.2,28.5c-5.2,10.2-11,19.2-17.1,26.9
				C336.5,406.9,358.3,392.5,376.3,374.2z"/>
			<path class="st2" d="M388.8,354.4c1,0.5,2,1.1,3,1.6c19.8-26.6,32.4-58.9,34.7-94.1h-67.7c-0.8,26.8-4.4,52.7-10.6,76.3
				C362.8,342.7,376.5,348.1,388.8,354.4z"/>
		</g>
	</g>
</g>
</svg>
