<?xml version="1.0" encoding="utf-8"?>
<!-- Generator: Adobe Illustrator 21.0.2, SVG Export Plug-In . SVG Version: 6.00 Build 0)  -->
<svg version="1.1" xmlns="http://www.w3.org/2000/svg" xmlns:xlink="http://www.w3.org/1999/xlink" x="0px" y="0px"
	 viewBox="0 0 500 500" style="enable-background:new 0 0 500 500;" xml:space="preserve">
<style type="text/css">
	.st0{display:none;}
	.st1{display:inline;}
	.st2{fill:#FFFFFF;}
	.st3{enable-background:new    ;}
	.st4{fill:none;stroke:#FFFFFF;stroke-width:19;stroke-miterlimit:10;}
</style>
<g id="Layer_1" class="st0">
	<circle class="st1" cx="250" cy="250" r="250"/>
</g>
<g id="Layer_2">
	<rect x="109.7" y="377.9" class="st2" width="81" height="34.8"/>
	<rect x="229.7" y="272.3" class="st2" width="68" height="34.8"/>
	<rect x="109.7" y="325.1" class="st2" width="81" height="34.8"/>
	<rect x="315.7" y="272.3" class="st2" width="68" height="34.8"/>
	<rect x="208.7" y="377.9" class="st2" width="175" height="34.8"/>
	<rect x="315.7" y="61.1" class="st2" width="68" height="34.8"/>
	<rect x="315.7" y="166.7" class="st2" width="68" height="34.8"/>
	<rect x="315.7" y="113.9" class="st2" width="68" height="34.8"/>
	<rect x="315.7" y="219.5" class="st2" width="68" height="34.8"/>
	<rect x="208.7" y="325.1" class="st2" width="175" height="34.8"/>
	<g class="st3">
		<path class="st2" d="M110.7,131.2c0-8.3,2.1-15.3,6.3-21.2c4.2-5.8,10.2-8.7,18.1-8.7c7.3,0,13.3,2.6,18.1,7.8s7.2,12.8,7.2,22.9
			c0,9.8-2.4,17.4-7.2,22.7c-4.8,5.3-10.8,8-17.9,8c-7,0-12.9-2.6-17.5-7.8C113,149.7,110.7,141.8,110.7,131.2z M135.5,111.2
			c-3.5,0-6.5,1.5-8.8,4.6c-2.4,3.1-3.5,8.7-3.5,16.9c0,7.4,1.2,12.7,3.6,15.7c2.4,3,5.3,4.6,8.8,4.6c3.6,0,6.6-1.5,8.9-4.6
			c2.3-3.1,3.5-8.7,3.5-16.8c0-7.5-1.2-12.8-3.6-15.8C142,112.7,139,111.2,135.5,111.2z M135.5,223.7l63.6-122.4h11.6l-63.4,122.4
			H135.5z M185.8,192.2c0-8.3,2.1-15.4,6.3-21.2c4.2-5.8,10.2-8.7,18.2-8.7c7.3,0,13.3,2.6,18.1,7.8c4.8,5.2,7.2,12.8,7.2,22.9
			c0,9.8-2.4,17.4-7.3,22.7c-4.8,5.3-10.8,8-17.9,8c-7,0-12.9-2.6-17.5-7.9C188.1,210.6,185.8,202.7,185.8,192.2z M210.6,172.2
			c-3.6,0-6.6,1.5-8.9,4.6c-2.4,3.1-3.5,8.7-3.5,16.9c0,7.4,1.2,12.6,3.6,15.7s5.3,4.6,8.8,4.6c3.6,0,6.6-1.5,9-4.6
			c2.3-3.1,3.5-8.7,3.5-16.8c0-7.5-1.2-12.8-3.6-15.8C217.1,173.7,214.2,172.2,210.6,172.2z"/>
	</g>
	<g>
		<path class="st2" d="M266.5,201.5h31.1v-34.8h-23.4C273.7,179,271,190.7,266.5,201.5z"/>
		<path class="st2" d="M229.7,246.4v7.9h68v-34.8h-40.9C249.5,230.1,240.3,239.2,229.7,246.4z"/>
		<path class="st2" d="M273.4,148.7h24.3v-34.8h-35.8C267.7,124.5,271.7,136.3,273.4,148.7z"/>
		<path class="st2" d="M229.7,61.1v17.4c7.3,4.9,13.9,10.8,19.6,17.3h48.3V61.1H229.7z"/>
	</g>
	<circle class="st4" cx="173.2" cy="162.5" r="101.2"/>
</g>
</svg>
