<?xml version="1.0" encoding="utf-8"?>
<!-- Generator: Adobe Illustrator 21.0.2, SVG Export Plug-In . SVG Version: 6.00 Build 0)  -->
<svg version="1.1" xmlns="http://www.w3.org/2000/svg" xmlns:xlink="http://www.w3.org/1999/xlink" x="0px" y="0px"
	 viewBox="0 0 500 500" style="enable-background:new 0 0 500 500;" xml:space="preserve">
<style type="text/css">
	.st0{display:none;}
	.st1{display:inline;}
	.st2{fill:#FFFFFF;}
</style>
<g id="Layer_1" class="st0">
	<circle class="st1" cx="250" cy="250" r="250"/>
</g>
<g id="Layer_2">
	<path class="st2" d="M407.1,83.6H294.6c-5,0-9.3,2.7-11.6,6.8l0,0c0,0,0,0,0,0c-0.1,0.2-0.2,0.4-0.3,0.6c-0.1,0.1-0.1,0.3-0.2,0.4
		c-0.1,0.2-0.2,0.4-0.3,0.6c-0.1,0.3-0.2,0.5-0.3,0.8c0,0.2-0.1,0.3-0.1,0.5c-0.1,0.3-0.1,0.5-0.2,0.8c0,0.1,0,0.2-0.1,0.3
		c-0.1,0.4-0.1,0.7-0.2,1.1c0,0.1,0,0.2,0,0.3c0,0.4-0.1,0.8-0.1,1.2c0,7.4,6,13.3,13.3,13.3h39.3h52.9l-23.1,23.1l-14,14
		L223.2,273.8l-66.8-68.2L107.4,262c-0.3-4-0.5-8-0.5-12c0-79,64.2-143.2,143.2-143.2c6.3,0,12.5,0.4,18.6,1.2
		c-1.5-3.4-2.3-7.1-2.3-11.1c0-3.1,0.5-6.1,1.5-8.9c-5.8-0.6-11.7-1-17.7-1c-89.9,0-163,73.1-163,163s73.1,163,163,163
		s163-73.1,163-163c0-0.4,0-0.8,0-1.1c-10.6-2.3-19-10.5-21.5-21c1.1,7.2,1.7,14.6,1.7,22.1c0,79-64.2,143.2-143.2,143.2
		c-63.3,0-117.1-41.3-136-98.3l43.4-50l65.5,66.8l144.2-144.2l14.1-14.1v0l24.4-24.4v72.3v20c0,0.4,0,0.8,0.1,1.2c0,0.1,0,0.2,0,0.3
		c0,0.4,0.1,0.8,0.2,1.2c0,0,0,0.1,0,0.1c0.1,0.3,0.2,0.7,0.3,1c0,0.1,0.1,0.2,0.1,0.4c0.1,0.3,0.2,0.6,0.3,0.9
		c0.1,0.1,0.1,0.3,0.2,0.4c0.1,0.2,0.2,0.4,0.3,0.6c0.1,0.2,0.2,0.3,0.3,0.5c0.1,0.2,0.2,0.3,0.3,0.5c0.2,0.3,0.4,0.6,0.6,0.8
		c0.1,0.1,0.1,0.2,0.2,0.3c0.1,0.2,0.3,0.4,0.5,0.6c0,0,0,0,0.1,0.1c0.3,0.4,0.7,0.8,1.1,1.1c0,0,0,0,0.1,0.1
		c2.4,2.1,5.4,3.4,8.8,3.4c7.4,0,13.3-6,13.3-13.3V108.7C432.3,94.9,421,83.6,407.1,83.6z"/>
</g>
</svg>
