<?xml version="1.0" encoding="utf-8"?>
<!-- Generator: Adobe Illustrator 21.0.2, SVG Export Plug-In . SVG Version: 6.00 Build 0)  -->
<svg version="1.1" xmlns="http://www.w3.org/2000/svg" xmlns:xlink="http://www.w3.org/1999/xlink" x="0px" y="0px"
	 viewBox="0 0 500 500" style="enable-background:new 0 0 500 500;" xml:space="preserve">
<style type="text/css">
	.st0{display:none;}
	.st1{display:inline;}
	.st2{fill:#FFFFFF;}
</style>
<g id="Layer_1" class="st0">
	<circle class="st1" cx="250" cy="250" r="250"/>
</g>
<g id="Layer_2">
	<g>
		<polygon class="st2" points="71,182.2 168.2,182.2 143.9,133.6 119.6,85 		"/>
		<polygon class="st2" points="339.5,120.9 363.8,72.3 266.6,72.3 290.9,120.9 315.2,169.5 		"/>
		<polygon class="st2" points="160.5,120.9 184.8,169.5 209.1,120.9 233.4,72.3 136.2,72.3 		"/>
		<polygon class="st2" points="201.4,182.2 298.6,182.2 250,85 		"/>
		<polygon class="st2" points="380.4,85 356.1,133.6 331.8,182.2 429,182.2 		"/>
		<polygon class="st2" points="331.8,202.7 323.4,202.7 271.9,435.3 426.5,202.7 		"/>
		<polygon class="st2" points="302.4,202.7 298.6,202.7 201.4,202.7 197.6,202.7 206.1,241.4 250,439.4 		"/>
		<polygon class="st2" points="196.3,292 176.6,202.7 168.2,202.7 73.5,202.7 228.1,435.3 		"/>
	</g>
</g>
</svg>
