<?xml version="1.0" encoding="utf-8"?>
<!-- Generator: Adobe Illustrator 21.0.2, SVG Export Plug-In . SVG Version: 6.00 Build 0)  -->
<svg version="1.1" xmlns="http://www.w3.org/2000/svg" xmlns:xlink="http://www.w3.org/1999/xlink" x="0px" y="0px"
	 viewBox="0 0 500 500" style="enable-background:new 0 0 500 500;" xml:space="preserve">
<style type="text/css">
	.st0{display:none;}
	.st1{display:inline;}
	.st2{fill:#FFFFFF;}
</style>
<g id="Layer_1" class="st0">
	<circle class="st1" cx="250" cy="250" r="250"/>
</g>
<g id="Layer_2">
	<g>
		<polygon class="st2" points="325.8,184.3 435,184.3 325.8,53.8 		"/>
		<polygon class="st2" points="309.6,53.8 200.5,184.3 309.6,184.3 		"/>
		<polygon class="st2" points="309.6,200.5 200.5,200.5 309.6,331 		"/>
		<polygon class="st2" points="325.8,200.5 325.8,331 435,200.5 		"/>
	</g>
	<g>
		<path class="st2" d="M254.2,471.2c-11.9,0-25-3-39.1-9c-45.8-19.5-59-63.4-69.5-98.6c-7.7-25.8-14.4-48-30.8-53
			c-29.7-9.1-55.4-4-67.7,5.1c-4,2.9-5.4,5.6-5.4,6.7c0,5.5-4.5,10-10,10s-10-4.5-10-10c0-8.2,4.8-16.3,13.5-22.7
			c15.1-11.2,46.5-20,85.4-8.2c26.7,8.1,35.1,36.4,44.1,66.4c10.3,34.5,21,70.1,58.2,85.9c22.4,9.5,40.6,9.7,54.2,0.7
			c19.6-12.9,31.2-46.2,31.2-88.9c0-5.5,4.5-10,10-10s10,4.5,10,10c0,23.7-3.9,81.5-40.2,105.6C278.1,467.9,266.8,471.2,254.2,471.2
			z"/>
	</g>
</g>
</svg>
