<?xml version="1.0" encoding="utf-8"?>
<!-- Generator: Adobe Illustrator 21.0.2, SVG Export Plug-In . SVG Version: 6.00 Build 0)  -->
<svg version="1.1" xmlns="http://www.w3.org/2000/svg" xmlns:xlink="http://www.w3.org/1999/xlink" x="0px" y="0px"
	 viewBox="0 0 500 500" style="enable-background:new 0 0 500 500;" xml:space="preserve">
<style type="text/css">
	.st0{display:none;}
	.st1{display:inline;}
	.st2{fill:#FFFFFF;}
</style>
<g id="Layer_1" class="st0">
	<circle class="st1" cx="250" cy="250" r="250"/>
</g>
<g id="Layer_2">
	<g>
		<path class="st2" d="M429.5,218.1c-7.6-12.4-11.7-13-29-12.8c-7.4-23-16.6-50.6-24.3-69.4c-19-46.7-68.1-46.6-120.2-46.5h-6.9
			h-6.9C190.1,89.3,141,89.3,122,135.9c-7.6,18.8-16.9,46.3-24.3,69.4c-17.3-0.2-21.4,0.4-29,12.8c-8.8,14.4-5.5,22.4,17.8,23
			c-1.1,3.8-1.9,6.1-2,6.6c-0.5,1.7-0.8,3.4-0.8,5.2V334v0.8V368c0,11.4,9.3,20.8,20.8,20.8H136c11.4,0,20.8-9.3,20.8-20.8v-15h92.4
			h92.4v15c0,11.4,9.3,20.8,20.8,20.8h31.3c11.4,0,20.8-9.3,20.8-20.8v-33.2V334v-81c0-1.8-0.3-3.5-0.8-5.2c-0.1-0.5-0.9-2.9-2-6.6
			C435,240.5,438.3,232.5,429.5,218.1z M155.8,149.7c9.3-22.9,36-23.9,86.4-23.9h6.9h6.9c50.4-0.1,77.1,1,86.4,23.9
			c6.7,16.6,15,41,21.9,62.4c-17.7,4.5-51.6,9.2-115.3,9.2s-97.4-4.8-115.1-9.2C140.8,190.6,149.1,166.2,155.8,149.7z M175.6,287.3
			c-2.3,12.1-11,9.8-40.4,9.8c-29.4,0-34-8.7-34-16.7c0-8.1-2.8-34.6,27.7-22.5C154.7,268.2,177.9,275.2,175.6,287.3z M204.7,277.9
			c-4.8-5.2-7.1-13.1-7.1-23.7c0-8.3,2.1-15.3,6.3-21.2c4.2-5.8,10.2-8.7,18.1-8.7c7.3,0,13.3,2.6,18.1,7.8s7.2,12.8,7.2,22.9
			c0,9.8-2.4,17.4-7.2,22.7c-4.8,5.3-10.8,8-17.9,8C215.2,285.7,209.3,283.1,204.7,277.9z M234.2,346.7h-11.8L286,224.3h11.6
			L234.2,346.7z M315.2,338.7c-4.8,5.3-10.8,8-17.9,8c-7,0-12.9-2.6-17.5-7.9c-4.8-5.2-7.1-13.1-7.1-23.6c0-8.3,2.1-15.4,6.3-21.2
			c4.2-5.8,10.2-8.7,18.2-8.7c7.3,0,13.3,2.6,18.1,7.8c4.8,5.2,7.2,12.8,7.2,22.9C322.5,325.8,320.1,333.4,315.2,338.7z
			 M397.2,280.4c0,8.1-4.6,16.7-34,16.7c-29.4,0-38.1,2.3-40.4-9.8s20.9-19.2,46.7-29.4C400,245.8,397.2,272.3,397.2,280.4z"/>
		<path class="st2" d="M222.4,234.2c-3.5,0-6.5,1.5-8.8,4.6c-2.4,3.1-3.5,8.7-3.5,16.9c0,7.4,1.2,12.7,3.6,15.7
			c2.4,3,5.3,4.6,8.8,4.6c3.6,0,6.6-1.5,8.9-4.6c2.3-3.1,3.5-8.7,3.5-16.8c0-7.5-1.2-12.8-3.6-15.8
			C228.9,235.7,225.9,234.2,222.4,234.2z"/>
		<path class="st2" d="M297.5,295.2c-3.6,0-6.6,1.5-8.9,4.6c-2.4,3.1-3.5,8.7-3.5,16.9c0,7.4,1.2,12.6,3.6,15.7
			c2.4,3.1,5.3,4.6,8.8,4.6c3.6,0,6.6-1.5,9-4.6c2.3-3.1,3.5-8.7,3.5-16.8c0-7.5-1.2-12.8-3.6-15.8
			C304,296.7,301.1,295.2,297.5,295.2z"/>
	</g>
</g>
</svg>
