<?xml version="1.0" encoding="utf-8"?>
<!-- Generator: Adobe Illustrator 21.0.2, SVG Export Plug-In . SVG Version: 6.00 Build 0)  -->
<svg version="1.1" xmlns="http://www.w3.org/2000/svg" xmlns:xlink="http://www.w3.org/1999/xlink" x="0px" y="0px"
	 viewBox="0 0 500 500" style="enable-background:new 0 0 500 500;" xml:space="preserve">
<style type="text/css">
	.st0{display:none;}
	.st1{display:inline;}
	.st2{fill:#FFFFFF;}
</style>
<g id="Layer_1" class="st0">
	<circle class="st1" cx="250" cy="250" r="250"/>
</g>
<g id="Layer_2">
	<g>
		<path class="st2" d="M136.3,66h227.3c4.3,0,8.4,1,12,2.8v-6.2c0-6.6-5.4-12-12-12H136.3c-6.6,0-12,5.4-12,12v6.2
			C128,67,132,66,136.3,66z"/>
	</g>
	<g>
		<path class="st2" d="M107.3,142.7h34.2c8.3,0,15.2,6.8,15.2,15.2v0c0,8.3-6.8,15.2-15.2,15.2h-34.2c-8.3,0-15.2-6.8-15.2-15.2v0
			C92.1,149.6,98.9,142.7,107.3,142.7z"/>
	</g>
	<g>
		<path class="st2" d="M107.3,234.8h34.2c8.3,0,15.2,6.8,15.2,15.2v0c0,8.3-6.8,15.2-15.2,15.2h-34.2c-8.3,0-15.2-6.8-15.2-15.2v0
			C92.1,241.7,98.9,234.8,107.3,234.8z"/>
	</g>
	<g>
		<path class="st2" d="M107.3,326.9h34.2c8.3,0,15.2,6.8,15.2,15.2l0,0c0,8.3-6.8,15.2-15.2,15.2h-34.2c-8.3,0-15.2-6.8-15.2-15.2
			l0,0C92.1,333.7,98.9,326.9,107.3,326.9z"/>
	</g>
	<g>
		<path class="st2" d="M363.7,81H136.3c-6.6,0-12,5.4-12,12v34.7h17.1c16.6,0,30.2,13.5,30.2,30.2c0,16.6-13.5,30.2-30.2,30.2h-17.1
			v31.8h17.1c16.6,0,30.2,13.5,30.2,30.2c0,16.6-13.5,30.2-30.2,30.2h-17.1v31.7h17.1c16.6,0,30.2,13.5,30.2,30.2
			c0,16.6-13.5,30.2-30.2,30.2h-17.1V407c0,6.6,5.4,12,12,12h227.3c6.6,0,12-5.4,12-12V93C375.7,86.4,370.3,81,363.7,81z M341,196.3
			H191v-76.7h150V196.3z"/>
	</g>
</g>
</svg>
