<?xml version="1.0" encoding="utf-8"?>
<!-- Generator: Adobe Illustrator 21.0.2, SVG Export Plug-In . SVG Version: 6.00 Build 0)  -->
<svg version="1.1" xmlns="http://www.w3.org/2000/svg" xmlns:xlink="http://www.w3.org/1999/xlink" x="0px" y="0px"
	 viewBox="0 0 500 500" style="enable-background:new 0 0 500 500;" xml:space="preserve">
<style type="text/css">
	.st0{display:none;}
	.st1{display:inline;}
	.st2{opacity:0.7;fill:#FFFFFF;}
	.st3{fill:#FFFFFF;}
</style>
<g id="Layer_1" class="st0">
	<circle class="st1" cx="250" cy="250" r="250"/>
</g>
<g id="Layer_2">
	<g>
		
			<rect x="80.1" y="147.7" transform="matrix(0.9276 -0.3735 0.3735 0.9276 -73.7481 111.3317)" class="st2" width="340.6" height="196.6"/>
		<g>
			<path class="st3" d="M346.6,130.7l-245.9,99c-5.9,2.4-8.8,9.1-6.4,15l45.2,112.3c2.4,5.9,9.1,8.8,15,6.4l245.9-99
				c5.9-2.4,8.8-9.1,6.4-15l-45.2-112.3C359.2,131.2,352.4,128.3,346.6,130.7z"/>
			<path class="st3" d="M357.7,74.4L53.6,196.8c5.8,14.4-1.2,30.9-15.6,36.7L106.6,404c14.4-5.8,30.9,1.2,36.7,15.6l304.1-122.4
				c-5.8-14.4,1.2-30.9,15.6-36.7L394.4,90C379.9,95.8,363.5,88.8,357.7,74.4z M428.1,240.7c7.1,17.7-1.5,37.9-19.2,45l-245.9,99
				c-17.7,7.1-37.9-1.5-45-19.2L72.9,253.3c-7.1-17.7,1.5-37.9,19.2-45l245.9-99c17.7-7.1,37.9,1.5,45,19.2L428.1,240.7z"/>
		</g>
	</g>
</g>
</svg>
