<?xml version="1.0" encoding="utf-8"?>
<!-- Generator: Adobe Illustrator 21.0.2, SVG Export Plug-In . SVG Version: 6.00 Build 0)  -->
<svg version="1.1" xmlns="http://www.w3.org/2000/svg" xmlns:xlink="http://www.w3.org/1999/xlink" x="0px" y="0px"
	 viewBox="0 0 500 500" style="enable-background:new 0 0 500 500;" xml:space="preserve">
<style type="text/css">
	.st0{display:none;}
	.st1{display:inline;}
	.st2{fill:#FFFFFF;}
</style>
<g id="Layer_1" class="st0">
	<circle class="st1" cx="250" cy="250" r="250"/>
</g>
<g id="Layer_2">
	<g>
		<path class="st2" d="M387.1,91L280,37.6c-12.8-6.4-28.4-1.1-34.8,11.6l-53.3,106.8l12.5,6.2c21.8-30.7,53.8-64.1,60.9-44
			c7.7,21.6,22.1,3.5,38.8-3.9c16.7-7.4,9.9,22.7,2.5,49.7s27.8-25.7,39.1,1.7c9,21.9-7.4,49.6-14.3,59.8l14.1,7l53.3-106.8
			C405.1,113.1,399.9,97.4,387.1,91z"/>
		<path class="st2" d="M158.5,223c-6.4,12.8-1.1,28.4,11.6,34.8l3.3,1.6c12.8,6.4,18,22,11.6,34.8l-6.7,13.4l-8.1,16.1
			c-11.8,9.2-23.3,23.4-32,41c-18.8,37.7-17.8,76.4,2.3,86.4s51.6-12.5,70.4-50.2c8.7-17.5,13.2-35.3,13.5-50.2l8.1-16.1l6.7-13.4
			c6.4-12.8,22-18,34.8-11.6l3.3,1.6c12.8,6.4,28.4,1.1,34.8-11.6l17.3-34.7l-153.5-76.6L158.5,223z M150.3,431.7
			c-11.5-5.8-16.2-19.8-10.5-31.3c5.8-11.5,19.8-16.2,31.3-10.5s16.2,19.8,10.5,31.3C175.9,432.7,161.9,437.4,150.3,431.7z"/>
	</g>
</g>
</svg>
