<?xml version="1.0" encoding="utf-8"?>
<!-- Generator: Adobe Illustrator 21.0.2, SVG Export Plug-In . SVG Version: 6.00 Build 0)  -->
<svg version="1.1" xmlns="http://www.w3.org/2000/svg" xmlns:xlink="http://www.w3.org/1999/xlink" x="0px" y="0px"
	 viewBox="0 0 500 500" style="enable-background:new 0 0 500 500;" xml:space="preserve">
<style type="text/css">
	.st0{display:none;}
	.st1{display:inline;}
	.st2{fill:#FFFFFF;}
</style>
<g id="Layer_1" class="st0">
	<circle class="st1" cx="250" cy="250" r="250"/>
</g>
<g id="Layer_2">
	<g id="Layer_2_1_">
		<path class="st2" d="M363.2,213.8c-6.8-11.1-10.5-11.7-26.1-11.5c-6.6-20.7-14.9-45.5-21.8-62.4c-17.1-42-61.2-41.9-108-41.8h-6.2
			h-6.2C148.1,98,104,98,86.9,139.9c-6.8,16.9-15.2,41.6-21.8,62.4c-15.5-0.2-19.2,0.4-26.1,11.5c-7.9,12.9-4.9,20.1,16,20.7
			c-1,3.4-1.7,5.5-1.8,5.9c-0.4,1.5-0.7,3.1-0.7,4.7v72.9v0.7v29.8c0,10.2,8.4,18.7,18.7,18.7h28.3c10.2,0,18.7-8.4,18.7-18.7V335
			h83h83v13.5c0,10.2,8.4,18.7,18.7,18.7H331c10.2,0,18.7-8.4,18.7-18.7v-29.8v-0.7v-72.8c0-1.6-0.3-3.1-0.7-4.7
			c-0.1-0.4-0.8-2.6-1.8-5.9C368.1,233.9,371.1,226.7,363.2,213.8z M135.1,275.9c-2.1,10.9-9.9,8.8-36.3,8.8s-30.5-7.8-30.5-15
			c0-7.3-2.5-31.1,24.9-20.2C116.3,258.8,137.1,265.1,135.1,275.9z M97.6,208.4c6.2-19.3,13.7-41.2,19.7-56.1
			c8.4-20.6,32.3-21.5,77.6-21.5h6.2h6.2c45.3-0.1,69.3,0.9,77.6,21.5c6,14.9,13.5,36.8,19.7,56.1c-15.9,4-46.4,8.3-103.6,8.3
			S113.5,212.3,97.6,208.4z M334.2,269.7c0,7.3-4.1,15-30.5,15c-26.4,0-34.2,2.1-36.3-8.8s18.8-17.3,42-26.4
			C336.7,238.6,334.2,262.4,334.2,269.7z"/>
	</g>
	<path class="st2" d="M395.2,61.1l7.8,36.7c3.7,17.2-7.5,34.4-24.7,38.1l0,0c-17.2,3.7-34.4-7.5-38.1-24.7l-7.8-36.6
		c-13.2,13.4-19.7,33.1-15.5,52.9c4.7,22.2,21.6,38.8,42.2,44.2l40,187.8c3,14.1,17,23.2,31,20.1l0,0c14.1-3,23.2-17,20.1-31
		l-39.9-187.8c16.6-13.3,25.3-35.3,20.5-57.5C426.6,83.3,412.7,68.1,395.2,61.1z M427,365.1c-7.2,1.5-14.4-3.1-16-10.4
		c-1.5-7.2,3.1-14.4,10.4-16c7.2-1.5,14.4,3.1,16,10.4C438.9,356.4,434.2,363.6,427,365.1z"/>
</g>
</svg>
