<?xml version="1.0" encoding="utf-8"?>
<!-- Generator: Adobe Illustrator 21.0.2, SVG Export Plug-In . SVG Version: 6.00 Build 0)  -->
<svg version="1.1" id="Layer_1" xmlns="http://www.w3.org/2000/svg" xmlns:xlink="http://www.w3.org/1999/xlink" x="0px" y="0px"
	 viewBox="0 0 500 500" style="enable-background:new 0 0 500 500;" xml:space="preserve">
<style type="text/css">
	.st0{display:none;}
	.st1{display:inline;}
	.st2{fill:#FFFFFF;}
	.st3{enable-background:new    ;}
</style>
<g id="Layer_1_1_" class="st0">
	<circle class="st1" cx="250" cy="250" r="250"/>
</g>
<g id="Layer_2">
	<g>
		<path class="st2" d="M420.9,251.2L268.2,98.4l-11.6-11.6c-3.6-3.6-9.6-3.6-13.2,0l-11.6,11.6L79.1,251.2c-3.6,3.6-3.6,9.6,0,13.2
			L90.7,276c3.6,3.6,9.6,3.6,13.2,0L250,129.8L396.2,276c3.6,3.6,9.6,3.6,13.2,0l11.6-11.6C424.6,260.7,424.6,254.8,420.9,251.2z"/>
	</g>
	<g>
		<path class="st2" d="M364.5,168.7V93.4c0-5.1-4.2-9.3-9.3-9.3H336c-5.1,0-9.3,4.2-9.3,9.3v37.3L364.5,168.7z"/>
	</g>
	<g>
		<g>
			<path class="st2" d="M256.2,175.2L256.2,175.2L256.2,175.2 M250.1,181.3l10.2,10.2l94.2,94.3v15.8v12.5v57.3h-52.6
				c-0.6-0.1-1.3-0.1-1.9-0.1H198.4H175h-29.8v-50v-19.7V286l94.5-94.5L250.1,181.3 M250.1,159.8c-2.4,0-4.8,0.9-6.6,2.7L227,178.8
				l-97.1,97.1c-1.8,1.8-2.7,4.2-2.7,6.6v19.2v19.7v58.7c0,5.1,4.2,9.3,9.3,9.3H175h23.4H300c0.4,0.1,0.8,0.1,1.3,0.1h61.9
				c5.1,0,9.3-4.2,9.3-9.3v-66v-12.5v-19.1h0.3c0-2.4-0.9-4.8-2.7-6.6L273,178.8l-16.3-16.3C254.9,160.7,252.5,159.8,250.1,159.8
				L250.1,159.8z"/>
		</g>
	</g>
	<g class="st3">
		<path class="st2" d="M197.6,261.5c0-8.3,2.1-15.3,6.3-21.2c4.2-5.8,10.2-8.7,18.1-8.7c7.3,0,13.3,2.6,18.1,7.8
			c4.8,5.2,7.2,12.8,7.2,22.9c0,9.8-2.4,17.4-7.2,22.7c-4.8,5.3-10.8,8-17.9,8c-7,0-12.9-2.6-17.5-7.8
			C199.9,280,197.6,272.1,197.6,261.5z M222.4,241.5c-3.5,0-6.5,1.5-8.8,4.6c-2.4,3.1-3.5,8.7-3.5,16.9c0,7.4,1.2,12.7,3.6,15.7
			c2.4,3,5.3,4.6,8.8,4.6c3.6,0,6.6-1.5,8.9-4.6c2.3-3.1,3.5-8.7,3.5-16.8c0-7.5-1.2-12.8-3.6-15.8
			C228.9,243,225.9,241.5,222.4,241.5z M222.4,354L286,231.6h11.6L234.2,354H222.4z M272.7,322.5c0-8.3,2.1-15.4,6.3-21.2
			c4.2-5.8,10.2-8.7,18.2-8.7c7.3,0,13.3,2.6,18.1,7.8c4.8,5.2,7.2,12.8,7.2,22.9c0,9.8-2.4,17.4-7.3,22.7c-4.8,5.3-10.8,8-17.9,8
			c-7,0-12.9-2.6-17.5-7.9C275,340.9,272.7,333,272.7,322.5z M297.5,302.5c-3.6,0-6.6,1.5-8.9,4.6c-2.4,3.1-3.5,8.7-3.5,16.9
			c0,7.4,1.2,12.6,3.6,15.7c2.4,3.1,5.3,4.6,8.8,4.6c3.6,0,6.6-1.5,9-4.6c2.3-3.1,3.5-8.7,3.5-16.8c0-7.5-1.2-12.8-3.6-15.8
			C304,304,301.1,302.5,297.5,302.5z"/>
	</g>
</g>
</svg>
