<?xml version="1.0" encoding="utf-8"?>
<!-- Generator: Adobe Illustrator 21.0.2, SVG Export Plug-In . SVG Version: 6.00 Build 0)  -->
<svg version="1.1" xmlns="http://www.w3.org/2000/svg" xmlns:xlink="http://www.w3.org/1999/xlink" x="0px" y="0px"
	 viewBox="0 0 500 500" style="enable-background:new 0 0 500 500;" xml:space="preserve">
<style type="text/css">
	.st0{display:none;}
	.st1{display:inline;}
	.st2{fill:#FFFFFF;}
</style>
<g id="Layer_1" class="st0">
	<circle class="st1" cx="250" cy="250" r="250"/>
</g>
<g id="Layer_2">
	<g>
		<path class="st2" d="M350.2,282c-0.9,0-1.9,0-2.8,0.1c-10.7-44.7-50.9-77.9-98.9-77.9s-88.2,33.2-98.9,77.9
			c-0.9,0-1.9-0.1-2.8-0.1c-34.7,0-62.8,28.1-62.8,62.8s28.1,62.8,62.8,62.8c17.1,0,32.6-6.9,44-18c16.4,11.3,36.3,18,57.7,18
			s41.3-6.7,57.7-18c11.3,11.1,26.8,18,44,18c34.7,0,62.8-28.1,62.8-62.8S384.9,282,350.2,282z"/>
		<ellipse class="st2" cx="197" cy="127.3" rx="47.2" ry="66.2"/>
		<ellipse class="st2" cx="106.1" cy="215.1" rx="35.8" ry="50.2"/>
		<ellipse class="st2" cx="400.6" cy="215.1" rx="35.8" ry="50.2"/>
		<ellipse class="st2" cx="309.7" cy="127.3" rx="47.2" ry="66.2"/>
	</g>
</g>
</svg>
