<?xml version="1.0" encoding="utf-8"?>
<!-- Generator: Adobe Illustrator 21.0.2, SVG Export Plug-In . SVG Version: 6.00 Build 0)  -->
<svg version="1.1" xmlns="http://www.w3.org/2000/svg" xmlns:xlink="http://www.w3.org/1999/xlink" x="0px" y="0px"
	 viewBox="0 0 500 500" style="enable-background:new 0 0 500 500;" xml:space="preserve">
<style type="text/css">
	.st0{display:none;}
	.st1{display:inline;}
	.st2{opacity:0.5;fill:#FFFFFF;}
	.st3{fill:#FFFFFF;}
	.st4{fill:#FCFCFC;}
</style>
<g id="Layer_1" class="st0">
	<circle class="st1" cx="250" cy="250" r="250"/>
</g>
<g id="Layer_2">
	<rect x="124.7" y="244.3" class="st2" width="250.6" height="134.7"/>
	<path class="st3" d="M350.3,108.3H149.7c-6.6,0-12-5.4-12-12V75c0-6.6,5.4-12,12-12h200.7c6.6,0,12,5.4,12,12v21.3
		C362.3,102.9,356.9,108.3,350.3,108.3z"/>
	<g>
		<path class="st3" d="M375.3,244.3v-16c0-30.8-25.2-56-56-56H299v-48h-98v48h-20.3c-30.8,0-56,25.2-56,56v16H375.3z"/>
		<path class="st3" d="M124.7,379v2c0,30.8,25.2,56,56,56h138.6c30.8,0,56-25.2,56-56v-2H124.7z"/>
	</g>
	<polygon class="st4" points="267.9,293.5 267.9,257.3 231.4,257.3 231.4,293.5 195,293.5 195,329.9 231.4,329.9 231.4,366.4 
		267.9,366.4 267.9,329.9 304.3,329.9 304.3,293.5 	"/>
</g>
</svg>
