<?xml version="1.0" encoding="utf-8"?>
<!-- Generator: Adobe Illustrator 21.0.2, SVG Export Plug-In . SVG Version: 6.00 Build 0)  -->
<svg version="1.1" xmlns="http://www.w3.org/2000/svg" xmlns:xlink="http://www.w3.org/1999/xlink" x="0px" y="0px"
	 viewBox="0 0 500 500" style="enable-background:new 0 0 500 500;" xml:space="preserve">
<style type="text/css">
	.st0{display:none;}
	.st1{display:inline;}
	.st2{fill:#FFFFFF;}
</style>
<g id="Layer_1" class="st0">
	<circle class="st1" cx="250" cy="250" r="250"/>
</g>
<g id="Layer_2">
	<g>
		<path class="st2" d="M250.4,142.1l-34.1-60.5c-3.2-5.7-10.6-7.8-16.3-4.6L181,87.7c-5.7,3.2-7.8,10.6-4.6,16.3l34.1,60.5
			c3.2,5.7,10.6,7.8,16.3,4.6l18.8-10.6C251.6,155.2,253.6,147.9,250.4,142.1z"/>
		<path class="st2" d="M284,314.6c0,0-35.9,19-73.7-47.9s-2.9-87.8-2.9-87.8L162,98.5c-64.6,36.5-26.9,126.5,9.1,190.4
			c36.1,63.8,93.7,142.6,158.3,106.2L284,314.6z"/>
		<path class="st2" d="M337.6,296.8l34.1,60.5c3.2,5.7,1.2,13.1-4.6,16.3l-18.8,10.6c-5.7,3.2-13.1,1.2-16.3-4.6l-34.1-60.5
			c-3.2-5.7-1.2-13.1,4.6-16.3l18.8-10.6C327,289,334.4,291,337.6,296.8z"/>
	</g>
</g>
</svg>
