<?xml version="1.0" encoding="utf-8"?>
<!-- Generator: Adobe Illustrator 21.0.2, SVG Export Plug-In . SVG Version: 6.00 Build 0)  -->
<svg version="1.1" xmlns="http://www.w3.org/2000/svg" xmlns:xlink="http://www.w3.org/1999/xlink" x="0px" y="0px"
	 viewBox="0 0 500 500" style="enable-background:new 0 0 500 500;" xml:space="preserve">
<style type="text/css">
	.st0{display:none;}
	.st1{display:inline;}
	.st2{fill:#FFFFFF;}
</style>
<g id="Layer_1" class="st0">
	<circle class="st1" cx="250" cy="250" r="250"/>
</g>
<g id="Layer_2">
	<g>
		<polygon class="st2" points="440.6,144.3 152.7,144.3 296.7,235.8 		"/>
		<path class="st2" d="M296.7,264.2L130.3,158.6v185.1c0,6.6,5.4,12,12,12H451c6.6,0,12-5.4,12-12V158.5L296.7,264.2z"/>
	</g>
	<g>
		<path class="st2" d="M99.7,179.7H57c-5.5,0-10-4.5-10-10s4.5-10,10-10h42.7c5.5,0,10,4.5,10,10S105.2,179.7,99.7,179.7z"/>
	</g>
	<g>
		<path class="st2" d="M99.7,227.7H36.3c-5.5,0-10-4.5-10-10s4.5-10,10-10h63.3c5.5,0,10,4.5,10,10S105.2,227.7,99.7,227.7z"/>
	</g>
	<g>
		<path class="st2" d="M99.7,281H36.3c-5.5,0-10-4.5-10-10s4.5-10,10-10h63.3c5.5,0,10,4.5,10,10S105.2,281,99.7,281z"/>
	</g>
	<g>
		<path class="st2" d="M99.7,327H57c-5.5,0-10-4.5-10-10s4.5-10,10-10h42.7c5.5,0,10,4.5,10,10S105.2,327,99.7,327z"/>
	</g>
</g>
</svg>
