<?xml version="1.0" encoding="utf-8"?>
<!-- Generator: Adobe Illustrator 21.0.2, SVG Export Plug-In . SVG Version: 6.00 Build 0)  -->
<svg version="1.1" xmlns="http://www.w3.org/2000/svg" xmlns:xlink="http://www.w3.org/1999/xlink" x="0px" y="0px"
	 viewBox="0 0 500 500" style="enable-background:new 0 0 500 500;" xml:space="preserve">
<style type="text/css">
	.st0{display:none;}
	.st1{display:inline;}
	.st2{fill:#FFFFFF;}
</style>
<g id="Layer_1" class="st0">
	<circle class="st1" cx="250" cy="250" r="250"/>
</g>
<g id="Layer_2">
	<g>
		<path class="st2" d="M261.5,116.1c0-14.9,7.1-8.5,11.3-22c4.3-13.5,15.6-29.8,40.4-16.3c24.8,13.5,26.9,29.1,45.4,33.3
			c18.4,4.3,37.6,28.3,34,46.8c-3.5,18.4-0.7,44.6,5.7,56.7c6.4,12,17,39.7,3.5,55.3s-17.7,24.1-17.7,40.4c0,16.3,6.4,29.1-9.2,39
			c-15.6,9.9-20.6,19.1-22.7,31.2c-2.1,12-31.2,22-41.1,19.8c-9.9-2.1-19.1,16.3-34.7,12.8c-15.6-3.5-14.9-13.5-14.9-22.7
			C261.5,381.2,261.5,116.1,261.5,116.1z"/>
		<path class="st2" d="M238.5,116.1c0-14.9-7.1-8.5-11.3-22c-4.3-13.5-15.6-29.8-40.4-16.3s-26.9,29.1-45.4,33.3
			c-18.4,4.3-37.6,28.3-34,46.8c3.5,18.4,0.7,44.6-5.7,56.7c-6.4,12-17,39.7-3.5,55.3s17.7,24.1,17.7,40.4c0,16.3-6.4,29.1,9.2,39
			s20.6,19.1,22.7,31.2c2.1,12,31.2,22,41.1,19.8s19.1,16.3,34.7,12.8c15.6-3.5,14.9-13.5,14.9-22.7
			C238.5,381.2,238.5,116.1,238.5,116.1z"/>
	</g>
</g>
</svg>
