<?xml version="1.0" encoding="utf-8"?>
<!-- Generator: Adobe Illustrator 21.0.2, SVG Export Plug-In . SVG Version: 6.00 Build 0)  -->
<svg version="1.1" xmlns="http://www.w3.org/2000/svg" xmlns:xlink="http://www.w3.org/1999/xlink" x="0px" y="0px"
	 viewBox="0 0 500 500" style="enable-background:new 0 0 500 500;" xml:space="preserve">
<style type="text/css">
	.st0{display:none;}
	.st1{display:inline;}
	.st2{fill:#FFFFFF;}
</style>
<g id="Layer_1" class="st0">
	<circle class="st1" cx="250" cy="250" r="250"/>
</g>
<g id="Layer_2">
	<path class="st2" d="M342.8,362.4c21-4.4,36.9-23.1,36.9-45.4V107.7c0-25.5-20.9-46.3-46.3-46.3H166.7c-25.5,0-46.3,20.8-46.3,46.3
		V317c0,22.2,15.9,41,36.9,45.4l-68,79.1c9.7,8.2,20.1,15.6,31,22.3l63.6-74h132.3l63.6,74c10.9-6.6,21.2-14.1,31-22.3L342.8,362.4z
		 M361.7,318c0,18-14.6,32.7-32.7,32.7S296.3,336,296.3,318c0-18,14.6-32.7,32.7-32.7S361.7,300,361.7,318z M181,84
		c0-6.6,5.4-12,12-12h114c6.6,0,12,5.4,12,12v13.3c0,6.6-5.4,12-12,12H193c-6.6,0-12-5.4-12-12V84z M148.3,142c0-6.6,5.4-12,12-12
		h179.3c6.6,0,12,5.4,12,12v96c0,6.6-5.4,12-12,12H160.3c-6.6,0-12-5.4-12-12V142z M138.3,318c0-18,14.6-32.7,32.7-32.7
		s32.7,14.6,32.7,32.7c0,18-14.6,32.7-32.7,32.7S138.3,336,138.3,318z"/>
</g>
</svg>
