<?xml version="1.0" encoding="utf-8"?>
<!-- Generator: Adobe Illustrator 21.0.2, SVG Export Plug-In . SVG Version: 6.00 Build 0)  -->
<svg version="1.1" xmlns="http://www.w3.org/2000/svg" xmlns:xlink="http://www.w3.org/1999/xlink" x="0px" y="0px"
	 viewBox="0 0 500 500" style="enable-background:new 0 0 500 500;" xml:space="preserve">
<style type="text/css">
	.st0{display:none;}
	.st1{display:inline;}
	.st2{fill:#FFFFFF;}
</style>
<g id="Layer_1" class="st0">
	<circle class="st1" cx="250" cy="250" r="250"/>
</g>
<g id="Layer_2">
	<path class="st2" d="M299.5,258.4c-19.2,0-35.8,11.5-43.1,28.1h-90c-0.9,0-1.7,0.3-2.4,1l-15.6,15.6c-1.3,1.3-1.3,3.5,0,4.8
		l15.6,15.6c0.7,0.7,1.5,1,2.4,1h4l17.4-17.4l17.3,17.3l17.3-17.3l17.4,17.4h16.6c7.3,16.5,23.8,28.1,43.1,28.1
		c26,0,47.1-21.1,47.1-47.1S325.5,258.4,299.5,258.4z M323.1,318.9c-7.4,0-13.5-6-13.5-13.5c0-7.4,6-13.5,13.5-13.5
		c7.4,0,13.5,6,13.5,13.5C336.6,312.9,330.5,318.9,323.1,318.9z"/>
	<g id="Layer_2_1_">
		<g>
			<path class="st2" d="M420.9,251.2L268.2,98.4l-11.6-11.6c-3.6-3.6-9.6-3.6-13.2,0l-11.6,11.6L79.1,251.2c-3.6,3.6-3.6,9.6,0,13.2
				L90.7,276c3.6,3.6,9.6,3.6,13.2,0L250,129.8L396.2,276c3.6,3.6,9.6,3.6,13.2,0l11.6-11.6C424.6,260.7,424.6,254.8,420.9,251.2z"
				/>
		</g>
		<g>
			<path class="st2" d="M364.5,168.7V93.4c0-5.1-4.2-9.3-9.3-9.3H336c-5.1,0-9.3,4.2-9.3,9.3v37.3L364.5,168.7z"/>
		</g>
		<g>
			<g>
				<path class="st2" d="M256.2,175.2L256.2,175.2L256.2,175.2 M250.1,181.3l10.2,10.2l94.2,94.3v15.8v12.5v57.3h-52.6
					c-0.6-0.1-1.3-0.1-1.9-0.1H198.4H175h-29.8v-50v-19.7V286l94.5-94.5L250.1,181.3 M250.1,159.8c-2.4,0-4.8,0.9-6.6,2.7L227,178.8
					l-97.1,97.1c-1.8,1.8-2.7,4.2-2.7,6.6v19.2v19.7v58.7c0,5.1,4.2,9.3,9.3,9.3H175h23.4H300c0.4,0.1,0.8,0.1,1.3,0.1h61.9
					c5.1,0,9.3-4.2,9.3-9.3v-66v-12.5v-19.1h0.3c0-2.4-0.9-4.8-2.7-6.6L273,178.8l-16.3-16.3C254.9,160.7,252.5,159.8,250.1,159.8
					L250.1,159.8z"/>
			</g>
		</g>
	</g>
</g>
</svg>
