<?xml version="1.0" encoding="utf-8"?>
<!-- Generator: Adobe Illustrator 21.0.2, SVG Export Plug-In . SVG Version: 6.00 Build 0)  -->
<svg version="1.1" xmlns="http://www.w3.org/2000/svg" xmlns:xlink="http://www.w3.org/1999/xlink" x="0px" y="0px"
	 viewBox="0 0 500 500" style="enable-background:new 0 0 500 500;" xml:space="preserve">
<style type="text/css">
	.st0{display:none;}
	.st1{display:inline;}
	.st2{fill:#FFFFFF;}
</style>
<g id="Layer_1" class="st0">
	<circle class="st1" cx="250" cy="250" r="250"/>
</g>
<g id="Layer_2">
	<g>
		<g>
			<g>
				<path class="st2" d="M250,131.8c-99.7,0-180.5,80.8-180.5,180.5c0,16,80.8,28.9,180.5,28.9s180.5-12.9,180.5-28.9
					C430.5,212.6,349.7,131.8,250,131.8z"/>
			</g>
			<g>
				<g>
					<path class="st2" d="M445.3,292c0.7,6.7,1,13.5,1,20.3c0,4.9-1.7,12-9.7,18.3c-3.7,2.9-8.5,5.4-14.7,7.8
						c-10.1,3.8-24.1,7.2-41.8,10c-34.9,5.6-81.1,8.7-130.1,8.7s-95.2-3.1-130.1-8.7c-17.6-2.8-31.7-6.2-41.8-10
						c-6.2-2.3-11-4.9-14.7-7.8c-8.1-6.3-9.7-13.4-9.7-18.3c0-6.8,0.4-13.6,1-20.3c-11,7.7-17.1,16.2-17.1,25.1
						c0,35.3,95.1,63.9,212.3,63.9s212.3-28.6,212.3-63.9C462.3,308.2,456.2,299.7,445.3,292z"/>
				</g>
			</g>
		</g>
		<g>
			<path class="st2" d="M250,126c-21.3,0-38.6-17.3-38.6-38.6s17.3-38.6,38.6-38.6c21.3,0,38.6,17.3,38.6,38.6S271.3,126,250,126z
				 M250,64.7c-12.5,0-22.7,10.2-22.7,22.7s10.2,22.7,22.7,22.7c12.5,0,22.7-10.2,22.7-22.7S262.5,64.7,250,64.7z"/>
		</g>
	</g>
</g>
</svg>
