<?xml version="1.0" encoding="utf-8"?>
<!-- Generator: Adobe Illustrator 21.0.2, SVG Export Plug-In . SVG Version: 6.00 Build 0)  -->
<svg version="1.1" xmlns="http://www.w3.org/2000/svg" xmlns:xlink="http://www.w3.org/1999/xlink" x="0px" y="0px"
	 viewBox="0 0 500 500" style="enable-background:new 0 0 500 500;" xml:space="preserve">
<style type="text/css">
	.st0{display:none;}
	.st1{display:inline;}
	.st2{fill:#FFFFFF;}
</style>
<g id="Layer_1" class="st0">
	<circle class="st1" cx="250" cy="250" r="250"/>
</g>
<g id="Layer_2">
	<g>
		<ellipse class="st2" cx="172.1" cy="228.2" rx="73.3" ry="34.5"/>
	</g>
	<g>
		<g>
			<path class="st2" d="M228.7,424.2c-15.3,7.2-35.5,11.2-56.7,11.2c-21.2,0-41.4-4-56.7-11.2c-6.6-3.1-12-6.7-16.4-10.6
				c-0.2,0.9-0.3,1.9-0.3,2.8c0,19,32.8,34.5,73.3,34.5s73.3-15.4,73.3-34.5c0-1-0.1-1.9-0.3-2.8
				C240.7,417.5,235.2,421.1,228.7,424.2z"/>
		</g>
	</g>
	<g>
		<g>
			<path class="st2" d="M228.7,397.3c-15.3,7.2-35.5,11.2-56.7,11.2c-21.2,0-41.4-4-56.7-11.2c-6.6-3.1-12-6.7-16.4-10.6
				c-0.2,0.9-0.3,1.9-0.3,2.8c0,19,32.8,34.5,73.3,34.5s73.3-15.4,73.3-34.5c0-1-0.1-1.9-0.3-2.8
				C240.7,390.6,235.2,394.2,228.7,397.3z"/>
		</g>
	</g>
	<g>
		<g>
			<path class="st2" d="M228.7,370.4c-15.3,7.2-35.5,11.2-56.7,11.2c-21.2,0-41.4-4-56.7-11.2c-6.6-3.1-12-6.7-16.4-10.6
				c-0.2,0.9-0.3,1.9-0.3,2.8c0,19,32.8,34.5,73.3,34.5s73.3-15.4,73.3-34.5c0-1-0.1-1.9-0.3-2.8
				C240.7,363.7,235.2,367.3,228.7,370.4z"/>
		</g>
	</g>
	<g>
		<g>
			<path class="st2" d="M228.7,343.5c-15.3,7.2-35.5,11.2-56.7,11.2c-21.2,0-41.4-4-56.7-11.2c-6.6-3.1-12-6.7-16.4-10.6
				c-0.2,0.9-0.3,1.9-0.3,2.8c0,19,32.8,34.5,73.3,34.5s73.3-15.4,73.3-34.5c0-1-0.1-1.9-0.3-2.8
				C240.7,336.9,235.2,340.5,228.7,343.5z"/>
		</g>
	</g>
	<g>
		<g>
			<path class="st2" d="M228.7,316.7c-15.3,7.2-35.5,11.2-56.7,11.2c-21.2,0-41.4-4-56.7-11.2c-6.6-3.1-12-6.7-16.4-10.6
				c-0.2,0.9-0.3,1.9-0.3,2.8c0,19,32.8,34.5,73.3,34.5s73.3-15.4,73.3-34.5c0-1-0.1-1.9-0.3-2.8C240.7,310,235.2,313.6,228.7,316.7
				z"/>
		</g>
	</g>
	<g>
		<g>
			<path class="st2" d="M228.7,289.8C213.4,297,193.2,301,172,301c-21.2,0-41.4-4-56.7-11.2c-6.6-3.1-12-6.7-16.4-10.6
				c-0.2,0.9-0.3,1.9-0.3,2.8c0,19,32.8,34.5,73.3,34.5s73.3-15.4,73.3-34.5c0-1-0.1-1.9-0.3-2.8
				C240.7,283.1,235.2,286.7,228.7,289.8z"/>
		</g>
	</g>
	<g>
		<g>
			<path class="st2" d="M228.7,262.9c-15.3,7.2-35.5,11.2-56.7,11.2c-21.2,0-41.4-4-56.7-11.2c-6.6-3.1-12-6.7-16.4-10.6
				c-0.2,0.9-0.3,1.9-0.3,2.8c0,19,32.8,34.5,73.3,34.5s73.3-15.4,73.3-34.5c0-1-0.1-1.9-0.3-2.8
				C240.7,256.2,235.2,259.8,228.7,262.9z"/>
		</g>
	</g>
	<g>
		<ellipse class="st2" cx="328" cy="277.9" rx="73.3" ry="34.5"/>
	</g>
	<g>
		<g>
			<path class="st2" d="M384.7,393.2c-15.3,7.2-35.5,11.2-56.7,11.2s-41.4-4-56.7-11.2c-6.6-3.1-12-6.7-16.4-10.6
				c-0.2,0.9-0.3,1.9-0.3,2.8c0,19,32.8,34.5,73.3,34.5s73.3-15.4,73.3-34.5c0-1-0.1-1.9-0.3-2.8
				C396.7,386.5,391.2,390.1,384.7,393.2z"/>
		</g>
	</g>
	<g>
		<g>
			<path class="st2" d="M384.7,366.3c-15.3,7.2-35.5,11.2-56.7,11.2s-41.4-4-56.7-11.2c-6.6-3.1-12-6.7-16.4-10.6
				c-0.2,0.9-0.3,1.9-0.3,2.8c0,19,32.8,34.5,73.3,34.5s73.3-15.4,73.3-34.5c0-1-0.1-1.9-0.3-2.8
				C396.7,359.7,391.2,363.2,384.7,366.3z"/>
		</g>
	</g>
	<g>
		<g>
			<path class="st2" d="M384.7,339.4c-15.3,7.2-35.5,11.2-56.7,11.2s-41.4-4-56.7-11.2c-6.6-3.1-12-6.7-16.4-10.6
				c-0.2,0.9-0.3,1.9-0.3,2.8c0,19,32.8,34.5,73.3,34.5s73.3-15.4,73.3-34.5c0-1-0.1-1.9-0.3-2.8
				C396.7,332.8,391.2,336.4,384.7,339.4z"/>
		</g>
	</g>
	<g>
		<g>
			<path class="st2" d="M384.7,312.6c-15.3,7.2-35.5,11.2-56.7,11.2s-41.4-4-56.7-11.2c-6.6-3.1-12-6.7-16.4-10.6
				c-0.2,0.9-0.3,1.9-0.3,2.8c0,19,32.8,34.5,73.3,34.5s73.3-15.4,73.3-34.5c0-1-0.1-1.9-0.3-2.8
				C396.7,305.9,391.2,309.5,384.7,312.6z"/>
		</g>
	</g>
	<path class="st2" d="M275,141.3c-14,6.1-20.4,22.5-14.3,36.6c6.1,14,22.5,20.4,36.6,14.3c14-6.1,20.4-22.5,14.3-36.6
		C305.4,141.6,289,135.2,275,141.3z"/>
	<path class="st2" d="M258.9,122.5c-6.1-14-22.5-20.4-36.6-14.3c-14,6.1-20.4,22.5-14.3,36.6l51.6-20.2
		C259.5,123.9,259.2,123.2,258.9,122.5z"/>
	<g>
		<path class="st2" d="M172.3,193.7l22.9,52.2c10.8-4.7,22.9-2.1,30.8,5.6c12-6.1,19.3-14.3,19.3-23.3
			C245.4,209.2,212.7,193.8,172.3,193.7z"/>
		<path class="st2" d="M405.9,153.5l-28.9-65.9c-14.2,6.2-30.7-0.2-36.9-14.4l-159.3,69.9c6.2,14.2-0.2,30.7-14.4,36.9l0.8,1.8
			c1.7,0,3.3-0.1,5-0.1c21.3,0,41.5,4,56.9,11.2c18.3,8.6,28.4,21.1,28.4,35.3c0,10.7-5.8,20.5-16.5,28.3l150.6-66.1
			C385.2,176.3,391.7,159.7,405.9,153.5z M302.5,204.1c-20.6,9-44.7-0.4-53.7-20.9c-9-20.6,0.4-44.7,20.9-53.7s44.7,0.4,53.7,20.9
			C332.5,170.9,323.1,195,302.5,204.1z"/>
	</g>
	<g>
		<path class="st2" d="M136.9,197.9l7,16c14.2-6.2,30.7,0.2,36.9,14.4l48.9-21.4c-13.4-8-34.2-13.2-57.6-13.2
			C159.3,193.7,147.3,195.2,136.9,197.9z"/>
		<path class="st2" d="M354.5,121.5l-28.9-65.9c-14.2,6.2-30.7-0.2-36.9-14.4l-159.3,69.9c6.2,14.2-0.2,30.7-14.4,36.9l17,38.8
			c12.1-3.3,25.9-5.1,40.1-5.1c21.3,0,41.5,4,56.9,11.2c0.9,0.4,1.8,0.9,2.7,1.3l-9.6-20.9c-10.6-3.5-19.8-11.3-24.6-22.3
			c-9-20.6,0.4-44.7,20.9-53.7c20.6-9,44.7,0.4,53.7,20.9c0.4,0.9,0.7,1.7,1,2.6l35.8-14l29.1,52.3l2-0.9
			C333.9,144.3,340.4,127.7,354.5,121.5z"/>
	</g>
</g>
</svg>
