<?xml version="1.0" encoding="utf-8"?>
<!-- Generator: Adobe Illustrator 21.0.2, SVG Export Plug-In . SVG Version: 6.00 Build 0)  -->
<svg version="1.1" xmlns="http://www.w3.org/2000/svg" xmlns:xlink="http://www.w3.org/1999/xlink" x="0px" y="0px"
	 viewBox="0 0 500 500" style="enable-background:new 0 0 500 500;" xml:space="preserve">
<style type="text/css">
	.st0{display:none;}
	.st1{display:inline;}
	.st2{fill:#FFFFFF;}
</style>
<g id="Layer_1" class="st0">
	<circle class="st1" cx="250" cy="250" r="250"/>
</g>
<g id="Layer_2">
	<g>
		<path class="st2" d="M422.3,325H77.7c-6.6,0-12,5.4-12,12v39.3c0,6.6,5.4,12,12,12h344.7c6.6,0,12-5.4,12-12V337
			C434.3,330.4,428.9,325,422.3,325z M250,377.3c-11.4,0-20.7-9.3-20.7-20.7c0-11.4,9.3-20.7,20.7-20.7s20.7,9.3,20.7,20.7
			C270.7,368.1,261.4,377.3,250,377.3z"/>
		<path class="st2" d="M382.3,122.3c6.6,0,12-5.4,12-12v-36c0-6.6-5.4-12-12-12H277c-6.6,0-12,5.4-12,12v36c0,6.6,5.4,12,12,12h34
			v33.3H117.7c-6.6,0-12,5.4-12,12V303h288.7V167.7c0-6.6-5.4-12-12-12h-34v-33.3H382.3z M357.7,191.7v30c0,6.6-5.4,12-12,12H154.3
			c-6.6,0-12-5.4-12-12v-30c0-6.6,5.4-12,12-12h191.3C352.3,179.7,357.7,185.1,357.7,191.7z M289,106.3c-6.6,0-12-5.4-12-12V91
			c0-6.6,5.4-12,12-12h81.3c6.6,0,12,5.4,12,12v3.3c0,6.6-5.4,12-12,12H289z"/>
	</g>
</g>
</svg>
