<?xml version="1.0" encoding="utf-8"?>
<!-- Generator: Adobe Illustrator 21.0.2, SVG Export Plug-In . SVG Version: 6.00 Build 0)  -->
<svg version="1.1" xmlns="http://www.w3.org/2000/svg" xmlns:xlink="http://www.w3.org/1999/xlink" x="0px" y="0px"
	 viewBox="0 0 500 500" style="enable-background:new 0 0 500 500;" xml:space="preserve">
<style type="text/css">
	.st0{display:none;}
	.st1{display:inline;}
	.st2{fill:#FFFFFF;}
</style>
<g id="Layer_1" class="st0">
	<circle class="st1" cx="250" cy="250" r="250"/>
</g>
<g id="Layer_2">
	<circle class="st2" cx="185.4" cy="106.5" r="74.2"/>
	<path class="st2" d="M413.2,240.7h-25.6c-1.7-6.4-3.8-12.6-6.3-18.5v-69.7c0-6.2-5.1-11.3-11.3-11.3h-75.3
		c-8.2-2.8-16.8-4.8-25.6-6.1c-11.9,34.8-44.9,59.9-83.6,59.9c-16.4,0-31.7-4.5-44.9-12.3c-22.2,25.3-35.6,58.4-35.6,94.7
		c0,46.8,22.3,88.3,56.9,114.5v39.9c0,6.2,5.1,11.3,11.3,11.3h40.2c6.2,0,11.3-5.1,11.3-11.3V419c7.8,1.3,15.8,2,23.9,2
		c5.3,0,10.6-0.3,15.7-0.9v11.6c0,6.2,5.1,11.3,11.3,11.3h40.2c6.2,0,11.3-5.1,11.3-11.3v-34.1c29.3-19.2,51.2-48.9,60.4-83.7h25.6
		c6.2,0,11.3-5.1,11.3-11.3V252C424.5,245.7,419.4,240.7,413.2,240.7z M328.3,257c-14.7,0-26.7-11.9-26.7-26.7s11.9-26.7,26.7-26.7
		s26.7,11.9,26.7,26.7S343.1,257,328.3,257z"/>
</g>
</svg>
