<?xml version="1.0" encoding="utf-8"?>
<!-- Generator: Adobe Illustrator 21.0.2, SVG Export Plug-In . SVG Version: 6.00 Build 0)  -->
<svg version="1.1" xmlns="http://www.w3.org/2000/svg" xmlns:xlink="http://www.w3.org/1999/xlink" x="0px" y="0px"
	 viewBox="0 0 500 500" style="enable-background:new 0 0 500 500;" xml:space="preserve">
<style type="text/css">
	.st0{display:none;}
	.st1{display:inline;}
	.st2{fill:#FFFFFF;}
</style>
<g id="Layer_1" class="st0">
	<circle class="st1" cx="250" cy="250" r="250"/>
</g>
<g id="Layer_2">
	<path class="st2" d="M314.6,322.9c-13.5-4.7-43.7-0.5-67.6,2.1c-23.9,2.6-32.8-7.3-39.5-17.7s1.6-29.6,1.6-29.6
		s18.2-24.4,30.2-44.2c12-19.8-10.9-36.9-29.6-22.9c-18.7,14-48.9,46.5-48.9,46.5c-24.4,0.5-40.7,12.6-48,19.5
		c-0.3-1.8-0.7-3-1.4-3.6c-6.2-4.7-25.5-16.6-67.6-15.9v117.8c0,0,37.3-6.9,50-17.1c17.4,3,67.4,11.6,109.1,17.1
		c51.5,6.8,58.8-11.4,75.4-19.2C294.8,347.8,328.1,327.5,314.6,322.9z"/>
	<g>
		<path class="st2" d="M224,205.4c-4.7,0-9.7,1.6-14.5,5.1c-16.7,12.5-42.4,39.6-47.8,45.4v23.3c0,5.1,4.2,9.4,9.4,9.4h34.6
			c1.2-6.1,3.3-10.9,3.3-10.9s18.2-24.4,30.2-44.2C248.1,218.7,237.7,205.4,224,205.4z"/>
		<path class="st2" d="M419.7,123.7H171.1c-5.1,0-9.4,4.2-9.4,9.4v92.6c10.6-10.7,24.4-23.9,35.2-32c8.1-6.1,17.5-9.3,27.1-9.3h0
			c14.5,0,27.9,7.6,34.7,19.8c6.9,12.2,6.3,27.2-1.6,40.2c-10.3,17-24.6,36.7-29.5,43.5c-0.1,0.2-0.2,0.5-0.2,0.7h192.2
			c5.1,0,9.4-4.2,9.4-9.4V133C429,127.9,424.8,123.7,419.7,123.7z"/>
	</g>
</g>
</svg>
