<?xml version="1.0" encoding="utf-8"?>
<!-- Generator: Adobe Illustrator 21.0.2, SVG Export Plug-In . SVG Version: 6.00 Build 0)  -->
<svg version="1.1" xmlns="http://www.w3.org/2000/svg" xmlns:xlink="http://www.w3.org/1999/xlink" x="0px" y="0px"
	 viewBox="0 0 500 500" style="enable-background:new 0 0 500 500;" xml:space="preserve">
<style type="text/css">
	.st0{display:none;}
	.st1{display:inline;}
	.st2{fill:#FFFFFF;}
</style>
<g id="Layer_1" class="st0">
	<circle class="st1" cx="250" cy="250" r="250"/>
</g>
<g id="Layer_2">
	<path class="st2" d="M388.1,140.5h-38c0-55.2-44.9-100.1-100.1-100.1S149.9,85.2,149.9,140.5h-38L86.5,422.7h327L388.1,140.5z
		 M177.1,140.5c13.2-27,40.9-45.6,72.9-45.6c32,0,59.7,18.6,72.9,45.6H177.1z M250,59.3c33.9,0,63.1,21,75.1,50.6
		c-18.4-20.9-45.2-34.1-75.1-34.1s-56.8,13.2-75.1,34.1C186.9,80.3,216.1,59.3,250,59.3z"/>
</g>
</svg>
