<?xml version="1.0" encoding="utf-8"?>
<!-- Generator: Adobe Illustrator 21.0.2, SVG Export Plug-In . SVG Version: 6.00 Build 0)  -->
<svg version="1.1" xmlns="http://www.w3.org/2000/svg" xmlns:xlink="http://www.w3.org/1999/xlink" x="0px" y="0px"
	 viewBox="0 0 500 500" style="enable-background:new 0 0 500 500;" xml:space="preserve">
<style type="text/css">
	.st0{display:none;}
	.st1{display:inline;}
	.st2{fill:#FFFFFF;}
</style>
<g id="Layer_1" class="st0">
	<circle class="st1" cx="250" cy="250" r="250"/>
</g>
<g id="Layer_2">
	<g>
		<path class="st2" d="M325.1,313.2c-1.5-17.3-11.2-34.5-11.2-34.5l48.5-186.3c5.1-18.1-8.1-37.7-29.5-43.7s-42.9,3.8-48,21.9
			l-36.6,115.6c0,0-23.8-15.6-47.8,1c0,0-29.2-10.6-47.2,7.6c0,0-30.7-11.1-47.7,15.1c-17,26.2-26.9,98.3-19.7,132.5
			s11.5,47.5,11.5,47.5s-21.3,38.3,20.5,50s104.4,29.4,104.4,29.4s28.3,8,35.7-18.1c2.3-8,3.5-12.5,4.2-14.9
			c0,0,25.8-25.7,44.2-56.8S326.6,330.5,325.1,313.2z M187.3,360.9l-8.6-2.4l-5.4,10.7l10.9,3.1l-3.5,12.3l-13.3-3.8l-7.5,14.8
			l-12.7-3.6l7.6-14.8l-9.8-2.8l-7.6,14.8l-12.6-3.5l7.6-14.8l-6.1-1.7l3.5-12.3l8.6,2.4l5.5-10.7l-10.8-3.1l3.5-12.3l13.3,3.8
			l7.7-15l12.7,3.6l-7.7,15l9.8,2.8l7.7-15l12.6,3.6l-7.7,15l6.2,1.7L187.3,360.9z M224.3,412.5l-18.3-5.2l12.3-43.4
			c-3.6,1.4-7,2.4-10.1,3c-3.2,0.6-7,1-11.6,1.1l4.2-14.9c6.7-0.2,12.2-1.3,16.4-3.1c4.2-1.8,7.8-4.5,10.9-8.1l15,4.2L224.3,412.5z"
			/>
		<polygon class="st2" points="150.8,362.8 160.6,365.6 166,354.9 156.3,352.2 		"/>
	</g>
</g>
</svg>
