<?xml version="1.0" encoding="utf-8"?>
<!-- Generator: Adobe Illustrator 21.0.2, SVG Export Plug-In . SVG Version: 6.00 Build 0)  -->
<svg version="1.1" xmlns="http://www.w3.org/2000/svg" xmlns:xlink="http://www.w3.org/1999/xlink" x="0px" y="0px"
	 viewBox="0 0 500 500" style="enable-background:new 0 0 500 500;" xml:space="preserve">
<style type="text/css">
	.st0{display:none;}
	.st1{display:inline;}
	.st2{fill:#FFFFFF;}
</style>
<g id="Layer_1" class="st0">
	<circle class="st1" cx="250" cy="250" r="250"/>
</g>
<g id="Layer_2">
	<g id="Layer_2_1_">
		<path class="st2" d="M429.5,218.1c-7.6-12.4-11.7-13-29-12.8c-7.4-23-16.6-50.6-24.3-69.4c-19-46.7-68.1-46.6-120.2-46.5h-6.9
			h-6.9C190.1,89.3,141,89.3,122,135.9c-7.6,18.8-16.9,46.3-24.3,69.4c-17.3-0.2-21.4,0.4-29,12.8c-8.8,14.4-5.5,22.4,17.8,23
			c-1.1,3.8-1.9,6.1-2,6.6c-0.5,1.7-0.8,3.4-0.8,5.2V334v0.8V368c0,11.4,9.3,20.8,20.8,20.8H136c11.4,0,20.8-9.3,20.8-20.8v-15h92.4
			h92.4v15c0,11.4,9.3,20.8,20.8,20.8h31.3c11.4,0,20.8-9.3,20.8-20.8v-33.2V334v-81c0-1.8-0.3-3.5-0.8-5.2c-0.1-0.5-0.9-2.9-2-6.6
			C435,240.5,438.3,232.5,429.5,218.1z M175.6,287.3c-2.3,12.1-11,9.8-40.4,9.8s-34-8.7-34-16.7c0-8.1-2.8-34.6,27.7-22.5
			C154.7,268.2,177.9,275.2,175.6,287.3z M133.9,212.1c6.9-21.5,15.2-45.9,21.9-62.4c9.3-22.9,36-23.9,86.4-23.9h6.9h6.9
			c50.4-0.1,77.1,1,86.4,23.9c6.7,16.6,15,41,21.9,62.4c-17.7,4.5-51.6,9.2-115.3,9.2S151.6,216.5,133.9,212.1z M397.2,280.4
			c0,8.1-4.6,16.7-34,16.7s-38.1,2.3-40.4-9.8c-2.3-12.1,20.9-19.2,46.7-29.4C400,245.8,397.2,272.3,397.2,280.4z"/>
	</g>
	<path class="st2" d="M305.7,80.3H194.3c-6.6,0-14.3-5.6-12-12l10-30.7c1.8-6.3,5.4-12,12-12h91.3c6.6,0,10,5.4,12,12l10,30.7
		C319.6,75,312.3,80.3,305.7,80.3z"/>
</g>
</svg>
