<?xml version="1.0" encoding="utf-8"?>
<!-- Generator: Adobe Illustrator 21.0.2, SVG Export Plug-In . SVG Version: 6.00 Build 0)  -->
<svg version="1.1" xmlns="http://www.w3.org/2000/svg" xmlns:xlink="http://www.w3.org/1999/xlink" x="0px" y="0px"
	 viewBox="0 0 500 500" style="enable-background:new 0 0 500 500;" xml:space="preserve">
<style type="text/css">
	.st0{display:none;}
	.st1{display:inline;}
	.st2{fill:#FFFFFF;}
</style>
<g id="Layer_1" class="st0">
	<circle class="st1" cx="250" cy="250" r="250"/>
</g>
<g id="Layer_2">
	<g>
		<path class="st2" d="M30.3,350.3h359.3v-96.7H30.3V350.3z M369.7,330.3H156.3v-56.7h213.3V330.3z"/>
		<rect x="402.7" y="253.7" class="st2" width="26" height="96.7"/>
		<rect x="441.7" y="253.7" class="st2" width="26" height="96.7"/>
	</g>
	<g>
		<path class="st2" d="M433,237.6c-0.6,0-1.1-0.1-1.7-0.2c-4-0.9-6.6-4.9-5.6-9c5.8-25.5-4.1-34.5-17.8-47
			c-8.2-7.4-17.5-15.9-23.7-28.8c-4.8-9.9-7.5-20.4-10.1-30.6c-6.2-24-11-42.9-38.7-48.6c-46.9-9.6-68.7-29.7-69.6-30.5
			c-3-2.8-3.2-7.6-0.4-10.6c2.8-3,7.6-3.2,10.6-0.4c0.2,0.2,20,18.1,62.4,26.8c36.8,7.6,43.9,35.2,50.2,59.6
			c2.4,9.5,5,19.3,9.1,27.9c4.9,10.2,12.7,17.3,20.2,24.2c14.1,12.8,30.1,27.3,22.3,61.4C439.5,235.3,436.4,237.6,433,237.6z"/>
	</g>
	<g>
		<path class="st2" d="M375.8,234.8c-0.3,0-0.7,0-1-0.1c-45-6.3-56.7-14.6-73.6-52.3c-6.1-13.7-19-15.2-39.4-15.9
			c-16.4-0.6-35-1.3-46.3-15.8c-3.6-4.6-6.8-9.3-10-13.9c-14.4-21.1-24.8-36.3-58.2-24.5c-3.9,1.4-8.2-0.7-9.6-4.6
			c-1.4-3.9,0.7-8.2,4.6-9.6c44.3-15.7,60.9,8.7,75.6,30.2c3,4.4,6.1,8.9,9.4,13.1c7,8.9,20.6,9.5,35,10
			c18.8,0.7,42.2,1.6,52.6,24.8c14.6,32.7,22.2,38,61.9,43.6c4.1,0.6,7,4.4,6.4,8.5C382.7,232.1,379.5,234.8,375.8,234.8z"/>
	</g>
</g>
</svg>
