<?xml version="1.0" encoding="utf-8"?>
<!-- Generator: Adobe Illustrator 21.0.2, SVG Export Plug-In . SVG Version: 6.00 Build 0)  -->
<svg version="1.1" xmlns="http://www.w3.org/2000/svg" xmlns:xlink="http://www.w3.org/1999/xlink" x="0px" y="0px"
	 viewBox="0 0 500 500" style="enable-background:new 0 0 500 500;" xml:space="preserve">
<style type="text/css">
	.st0{display:none;}
	.st1{display:inline;}
	.st2{fill:#FFFFFF;}
</style>
<g id="Layer_1" class="st0">
	<circle class="st1" cx="250" cy="250" r="250"/>
</g>
<g id="Layer_2">
	<path class="st2" d="M444.8,120.6L408.3,157c-17.1,17.1-45.2,17.1-62.4,0l0,0c-17.1-17.1-17.1-45.2,0-62.4l36.4-36.4
		c-25.4-5.2-52.9,2.1-72.6,21.8c-22.1,22.1-28.6,53.9-19.4,81.7L103.8,348.4c-14,14-14,36.9,0,50.8l0,0c14,14,36.9,14,50.8,0
		l186.6-186.6c27.8,9.2,59.6,2.7,81.7-19.4C442.7,173.5,449.9,146,444.8,120.6z M118.2,384.8c-7.2-7.2-7.2-18.9,0-26.2
		c7.2-7.2,18.9-7.2,26.2,0c7.2,7.2,7.2,18.9,0,26.2C137.1,392,125.4,392,118.2,384.8z"/>
	<path class="st2" d="M141.9,76.4l-9.1,9.1l-5.8,5.8l-29.8,29.8c8.4,14.8,6.3,33.8-6.3,46.4c-12.6,12.6-31.7,14.7-46.4,6.3
		l-33.7,33.7l81.1,81.1l33.2-33.2c-10.1-15-8.5-35.6,4.8-48.9c13.3-13.3,33.7-14.9,48.8-4.8l188.4,200.6c0.5,0.5,1,1,1.5,1.5
		c13.5,12.7,34.8,12,47.5-1.5c12.7-13.5,12-34.8-1.5-47.5L208.7,161.4L158.3,111l2.9-2.9c16.7-16.7,39.3-24.2,61.3-22.6l18.6-18.6
		C210.7,46.3,168.8,49.5,141.9,76.4z"/>
</g>
</svg>
