<?xml version="1.0" encoding="utf-8"?>
<!-- Generator: Adobe Illustrator 21.0.2, SVG Export Plug-In . SVG Version: 6.00 Build 0)  -->
<svg version="1.1" xmlns="http://www.w3.org/2000/svg" xmlns:xlink="http://www.w3.org/1999/xlink" x="0px" y="0px"
	 viewBox="0 0 500 500" style="enable-background:new 0 0 500 500;" xml:space="preserve">
<style type="text/css">
	.st0{display:none;}
	.st1{display:inline;}
	.st2{fill:#FFFFFF;}
</style>
<g id="Layer_1" class="st0">
	<circle class="st1" cx="250" cy="250" r="250"/>
</g>
<g id="Layer_2">
	<path class="st2" d="M398.7,128.9H101.3c-14.9,0-27,12.1-27,27v167.3c0,14.9,12.1,27,27,27H237v48.3c-55.5,0.8-98.7,6.7-98.7,13.9
		c0,7.7,50,14,111.7,14s111.7-6.3,111.7-14c0-7.2-43.1-13.1-98.7-13.9v-48.3h135.7c14.9,0,27-12.1,27-27V155.9
		C425.7,141,413.6,128.9,398.7,128.9z M240.5,336.3c0-5.2,4.3-9.5,9.5-9.5s9.5,4.3,9.5,9.5s-4.3,9.5-9.5,9.5
		S240.5,341.6,240.5,336.3z M398.7,323.1H101.3V155.9h297.3V323.1z"/>
</g>
</svg>
