<?xml version="1.0" encoding="utf-8"?>
<!-- Generator: Adobe Illustrator 21.0.2, SVG Export Plug-In . SVG Version: 6.00 Build 0)  -->
<svg version="1.1" xmlns="http://www.w3.org/2000/svg" xmlns:xlink="http://www.w3.org/1999/xlink" x="0px" y="0px"
	 viewBox="0 0 500 500" style="enable-background:new 0 0 500 500;" xml:space="preserve">
<style type="text/css">
	.st0{display:none;}
	.st1{display:inline;}
	.st2{fill:#FFFFFF;}
</style>
<g id="Layer_1" class="st0">
	<circle class="st1" cx="250" cy="250" r="250"/>
</g>
<g id="Layer_2">
	<g>
		<path class="st2" d="M297,326.5H194v-10.3c0-17.5,2-31.8,6-42.7c4-10.9,9.9-20.9,17.8-30c7.9-9,25.5-24.9,53-47.7
			c14.6-11.9,22-22.9,22-32.8c0-9.9-2.9-17.7-8.8-23.2c-5.9-5.5-14.8-8.3-26.7-8.3c-12.8,0-23.5,4.2-31.9,12.7
			c-8.4,8.5-13.8,23.3-16.1,44.5l-105.2-13c3.6-38.7,17.7-69.8,42.2-93.4c24.5-23.6,62-35.4,112.6-35.4c39.4,0,71.2,8.2,95.4,24.7
			c32.9,22.2,49.3,51.9,49.3,88.9c0,15.4-4.2,30.2-12.7,44.5c-8.5,14.3-25.8,31.7-52.1,52.3c-18.3,14.5-29.8,26.1-34.6,34.8
			C299.4,301,297,312.5,297,326.5z M190.5,353.9h110.3v97.3H190.5V353.9z"/>
	</g>
</g>
</svg>
