<?xml version="1.0" encoding="utf-8"?>
<!-- Generator: Adobe Illustrator 21.0.2, SVG Export Plug-In . SVG Version: 6.00 Build 0)  -->
<svg version="1.1" xmlns="http://www.w3.org/2000/svg" xmlns:xlink="http://www.w3.org/1999/xlink" x="0px" y="0px"
	 viewBox="0 0 500 500" style="enable-background:new 0 0 500 500;" xml:space="preserve">
<style type="text/css">
	.st0{display:none;}
	.st1{display:inline;}
	.st2{fill:#FFFFFF;}
</style>
<g id="Layer_1" class="st0">
	<circle class="st1" cx="250" cy="250" r="250"/>
</g>
<g id="Layer_2">
	<g id="Layer_2_1_">
		<path class="st2" d="M379.9,316.7c-5.5-9-8.5-9.4-21-9.3c-5.4-16.7-12-36.7-17.6-50.3c-13.8-33.9-49.4-33.8-87.2-33.7h-5h-5
			c-37.8-0.1-73.4-0.1-87.2,33.7c-5.5,13.6-12.3,33.6-17.6,50.3c-12.5-0.1-15.5,0.3-21,9.3c-6.4,10.4-4,16.2,12.9,16.7
			c-0.8,2.8-1.4,4.4-1.5,4.8c-0.4,1.2-0.6,2.5-0.6,3.8v58.8v0.6v24.1c0,8.3,6.7,15.1,15.1,15.1h22.8c8.3,0,15.1-6.7,15.1-15.1v-10.9
			h67h67v10.9c0,8.3,6.7,15.1,15.1,15.1H354c8.3,0,15.1-6.7,15.1-15.1v-24.1v-0.6V342c0-1.3-0.2-2.5-0.6-3.8
			c-0.1-0.4-0.7-2.1-1.5-4.8C383.9,332.9,386.3,327.1,379.9,316.7z M181.4,267.1c6.7-16.6,26.1-17.3,62.7-17.3h5h5
			c36.6-0.1,55.9,0.7,62.7,17.3c4.9,12,10.9,29.7,15.9,45.3c-12.8,3.3-37.4,6.7-83.6,6.7s-70.6-3.5-83.5-6.7
			C170.6,296.8,176.6,279.1,181.4,267.1z M195.8,366.9c-1.7,8.8-8,7.1-29.3,7.1s-24.7-6.3-24.7-12.1c0-5.9-2-25.1,20.1-16.3
			C180.6,353,197.5,358.1,195.8,366.9z M356.5,361.9c0,5.9-3.3,12.1-24.7,12.1c-21.3,0-27.6,1.7-29.3-7.1
			c-1.7-8.8,15.2-13.9,33.9-21.3C358.5,336.8,356.5,356,356.5,361.9z"/>
	</g>
	<path class="st2" d="M265.9,46.3L265.9,46.3L250,9.1l-16,37.2h0.1c-111,6.9-173.4,84.8-173.4,143.7c0,6,0.3,11.9,1,17.8
		c17.1-5.9,35.4-9.2,54.6-9.2c18.9,0,35.1,7.1,52,12.9c24.2-13.7,52.1-21.5,81.8-21.5c29.7,0,57.6,7.8,81.8,21.5c0,0,0,0,0,0
		c16.9-5.8,33.1-12.9,52-12.9c19.1,0,37.5,3.2,54.6,9.2c0.6-5.8,1-11.8,1-17.8C439.4,131.1,376.9,53.1,265.9,46.3z"/>
</g>
</svg>
