<?xml version="1.0" encoding="utf-8"?>
<!-- Generator: Adobe Illustrator 21.0.2, SVG Export Plug-In . SVG Version: 6.00 Build 0)  -->
<svg version="1.1" xmlns="http://www.w3.org/2000/svg" xmlns:xlink="http://www.w3.org/1999/xlink" x="0px" y="0px"
	 viewBox="0 0 500 500" style="enable-background:new 0 0 500 500;" xml:space="preserve">
<style type="text/css">
	.st0{display:none;}
	.st1{display:inline;}
	.st2{fill:#FFFFFF;}
</style>
<g id="Layer_1" class="st0">
	<circle class="st1" cx="250" cy="250" r="250"/>
</g>
<g id="Layer_2">
	<path class="st2" d="M291.2,51h-82.4c-9.3,0-16.9,7.6-16.9,16.9v42.3v23.1v16.9c0,7,2.6,13.9,7.9,19.2l30.9,30.9
		c10.6,10.6,27.9,10.6,38.5,0l30.9-30.9c5.3-5.3,7.9-12.3,7.9-19.2v-16.9v-23.1V68C308.1,58.6,300.5,51,291.2,51z"/>
	<path class="st2" d="M449,291.2v-82.4c0-9.3-7.6-16.9-16.9-16.9h-42.3h-23.1h-16.9c-7,0-13.9,2.6-19.2,7.9l-30.9,30.9
		c-10.6,10.6-10.6,27.9,0,38.5l30.9,30.9c5.3,5.3,12.3,7.9,19.2,7.9h16.9h23.1H432C441.4,308.1,449,300.5,449,291.2z"/>
	<path class="st2" d="M208.8,449h82.4c9.3,0,16.9-7.6,16.9-16.9v-42.3v-23.1v-16.9c0-7-2.6-13.9-7.9-19.2l-30.9-30.9
		c-10.6-10.6-27.9-10.6-38.5,0l-30.9,30.9c-5.3,5.3-7.9,12.3-7.9,19.2v16.9v23.1V432C191.9,441.4,199.5,449,208.8,449z"/>
	<path class="st2" d="M51,208.8v82.4c0,9.3,7.6,16.9,16.9,16.9h42.3h23.1h16.9c7,0,13.9-2.6,19.2-7.9l30.9-30.9
		c10.6-10.6,10.6-27.9,0-38.5l-30.9-30.9c-5.3-5.3-12.3-7.9-19.2-7.9h-16.9h-23.1H68C58.6,191.9,51,199.5,51,208.8z"/>
</g>
</svg>
