<?xml version="1.0" encoding="utf-8"?>
<!-- Generator: Adobe Illustrator 21.0.2, SVG Export Plug-In . SVG Version: 6.00 Build 0)  -->
<svg version="1.1" xmlns="http://www.w3.org/2000/svg" xmlns:xlink="http://www.w3.org/1999/xlink" x="0px" y="0px"
	 viewBox="0 0 500 500" style="enable-background:new 0 0 500 500;" xml:space="preserve">
<style type="text/css">
	.st0{display:none;}
	.st1{display:inline;}
	.st2{fill:#FFFFFF;}
</style>
<g id="Layer_1" class="st0">
	<circle class="st1" cx="250" cy="250" r="250"/>
</g>
<g id="Layer_2">
	<g>
		<g>
			<path class="st2" d="M164,250.1c34,14.1,62.7,37.9,82.8,68.2c-6.6-32.2-22.4-62.9-47.4-87.8c-31.2-31.2-71.3-48.1-112.2-50.6
				c1.2,19.2,5.6,38.3,13.1,56.4C122,237,143.6,241.6,164,250.1z"/>
		</g>
		<g>
			<path class="st2" d="M336,250.1L336,250.1c20.4-8.4,41.9-13.1,63.6-13.9c7.6-18.1,11.9-37.1,13.1-56.4
				c-40.8,2.5-81,19.4-112.2,50.6c-25,25-40.8,55.6-47.4,87.8C273.3,288,302.1,264.1,336,250.1z"/>
		</g>
		<g>
			<path class="st2" d="M206.1,223.7c20,20,34.9,44,43.9,70.3c9-26.3,23.9-50.3,43.9-70.3c15.7-15.7,33.9-28.2,53.7-37.3
				c0-19.4-3.2-38.5-9.4-56.5c-36.8,18-67.4,48.9-84.3,89.7c-1.4,3.4-2.7,6.8-3.9,10.2c-1.2-3.4-2.4-6.8-3.9-10.2
				c-16.9-40.8-47.5-71.7-84.3-89.7c-6.2,18.1-9.4,37.1-9.4,56.5C172.3,195.5,190.5,208,206.1,223.7z"/>
		</g>
		<path class="st2" d="M127,339.3c40.8,16.9,84.3,17.1,123,3.9c-18-36.8-48.9-67.4-89.7-84.3s-84.3-17.1-123-3.9
			C55.3,291.8,86.2,322.4,127,339.3z"/>
		<path class="st2" d="M339.7,258.9c-40.8,16.9-71.7,47.5-89.7,84.3c38.7,13.3,82.2,13,123-3.9s71.7-47.5,89.7-84.3
			C424,241.8,380.5,242,339.7,258.9z"/>
		<path class="st2" d="M226.8,169.1c9.1,10.9,16.9,23,23.2,35.8c6.4-12.9,14.2-24.9,23.2-35.8c-5.6-14.9-13.4-28.9-23.2-41.7
			C240.2,140.2,232.4,154.2,226.8,169.1z"/>
	</g>
</g>
</svg>
